<svg width="581" height="548" viewBox="0 0 581 548" fill="none" xmlns="http://www.w3.org/2000/svg">
<g clip-path="url(#clip0_5333_98546)">
<path d="M465.368 177.407C384.983 113.035 304.598 48.6823 224.223 -15.5813C219.757 -19.1586 215.056 -22.3703 210.107 -25.2065C203.661 -28.9024 196.741 -31.62 189.693 -33.211C160.25 -40.3261 126.903 -30.6911 106.804 -7.34942C74.2656 30.6573 79.3421 86.0368 118.485 117.294C180.171 166.715 241.847 216.125 303.533 265.546C333.627 289.649 337.797 325.946 313.893 356.373C273.597 407.77 233.311 459.167 193.143 510.574L193.133 510.584L193.015 510.712C185.001 521.019 176.997 531.079 168.983 541.376C165.168 546.219 161.718 551.437 158.633 556.763C157.529 558.631 156.543 560.627 155.558 562.603C155.439 562.85 155.311 563.226 155.193 563.473C154.582 564.955 153.971 566.576 153.35 568.197C152.374 570.796 151.635 573.404 150.905 576.132C150.422 578.355 149.919 580.599 149.555 582.951C149.318 585.421 149.2 588.03 149.2 590.51C149.259 616.046 159.087 641.562 178.17 657.976C191.664 669.469 206.766 676.742 222.35 679.568C229.279 680.784 236.199 681.258 243.001 680.873C247.821 680.616 252.513 679.855 257.087 678.867C257.333 678.738 257.708 678.738 257.954 678.6C274.011 673.481 288.827 663.292 300.655 648.143C332.937 607.033 365.101 565.815 397.393 524.715C429.922 483.25 462.461 441.764 494.871 400.171C499.425 394.35 503.614 388.263 507.064 381.8C545.3 310.322 528.405 227.954 465.368 177.407Z" fill="#EB0064"/>
<g clip-path="url(#clip1_5333_98546)">
<path d="M151.25 90.0084C155.444 81.341 118.301 73.4848 107.068 100.193C96.8833 124.423 79.9757 130.611 87.9303 147.391C96.5338 165.551 145.21 167.73 166.344 147.601C183.485 131.272 164.88 124.393 167.276 109.041C169.672 93.6887 164.647 88.6865 151.25 90.0084Z" fill="#263238"/>
<path d="M83.5863 142.009C81.6559 132.545 85.5499 128.64 90.4758 123.698C97.1324 117.601 101.692 109.895 103.606 101.511C104.598 96.9321 107.134 92.7423 110.867 89.5153C114.6 86.2883 119.347 84.1821 124.457 83.485C135.441 81.6524 147.073 84.8971 150.151 89.013C150.642 89.5928 150.921 90.2955 150.951 91.0245C150.981 91.7535 150.76 92.4729 150.318 93.0838L148.92 92.2726C149.189 91.9095 149.32 91.4771 149.293 91.0408C149.266 90.6045 149.083 90.188 148.77 89.8542C146.041 86.1889 134.958 83.2597 124.774 84.9722C117.501 86.1889 108.132 90.0945 105.237 101.841C103.265 110.476 98.5659 118.412 91.7072 124.689C86.9145 129.496 83.3866 132.981 85.2338 141.723L83.5863 142.009Z" fill="#263238"/>
<path d="M60.7054 134.841L59.6737 131.837C58.9614 129.795 57.6707 127.957 55.9294 126.504L52.6011 123.77C51.5486 122.892 50.1888 122.373 48.7572 122.305C47.3257 122.236 45.9127 122.622 44.7631 123.395L41.2018 125.798C40.5509 126.237 40.0031 126.789 39.59 127.42C39.1769 128.052 38.9068 128.751 38.7953 129.478C38.6839 130.205 38.7333 130.944 38.9407 131.653C39.1481 132.362 39.5094 133.027 40.0036 133.609L42.3001 136.313C42.3001 136.313 47.6919 144.545 55.4967 147.399L57.294 146.017C59.0134 144.661 60.2535 142.879 60.86 140.892C61.4665 138.905 61.4128 136.801 60.7054 134.841Z" fill="#FFC3BD"/>
<path d="M125.39 186.961L124.325 187.697L123.459 188.267L121.795 189.319C120.68 189.98 119.549 190.596 118.467 191.197C116.203 192.371 113.869 193.434 111.478 194.381C106.559 196.339 101.387 197.732 96.0843 198.527C90.4848 199.377 84.7703 199.407 79.1601 198.617C76.2891 198.21 73.469 197.551 70.7396 196.649C70.0573 196.454 69.375 196.199 68.7094 195.943L67.7109 195.568L67.2117 195.373L66.6625 195.162L65.9636 194.862C64.5111 194.19 63.172 193.335 61.9863 192.323C61.1339 191.607 60.3491 190.828 59.6399 189.995C57.7571 187.69 56.234 185.163 55.1134 182.484C54.115 180.261 53.3495 178.128 52.6672 176.04C51.4258 171.999 50.4204 167.903 49.6551 163.767C48.135 155.775 47.2838 147.691 47.109 139.583C46.903 138.065 47.3459 136.533 48.3474 135.3C49.3488 134.067 50.8335 133.225 52.499 132.945C54.1644 132.665 55.8853 132.97 57.311 133.795C58.7367 134.621 59.76 135.907 60.1724 137.39V137.555C63.068 144.75 65.8471 152.126 68.7759 159.126C70.2903 162.611 71.7547 166.081 73.4189 169.235C74.2176 170.812 75.083 172.315 75.8984 173.621C76.4536 174.579 77.1662 175.455 78.0119 176.22C78.0119 176.22 78.0119 176.22 77.8954 176.01C77.5121 175.651 77.0614 175.356 76.5641 175.139L76.2479 174.988C76.148 174.988 75.9483 174.883 76.0648 174.913H76.3311L76.847 175.033C77.1904 175.13 77.5407 175.205 77.8954 175.259C79.3002 175.512 80.7244 175.667 82.1556 175.724C85.1517 175.807 88.1465 175.524 91.0587 174.883C94.2544 174.156 97.3643 173.15 100.344 171.879C101.892 171.248 103.423 170.512 104.921 169.776C105.67 169.4 106.402 168.995 107.101 168.604L108.765 167.643L110.063 166.907C112.987 165.229 116.518 164.639 119.913 165.261C123.309 165.883 126.306 167.668 128.274 170.242C130.243 172.816 131.03 175.978 130.47 179.065C129.911 182.151 128.048 184.922 125.273 186.795L125.39 186.961Z" fill="#FFC3BD"/>
<path d="M154.579 535.033C165.113 531.893 173.982 525.464 172.202 514.183C171.42 509.346 188.61 507.453 188.61 507.453C186.663 522.82 188.793 525.479 190.84 528.949C192.887 532.419 192.77 536.67 189.176 537.045C184.916 537.511 183.967 537.046 178.675 537.721C172.485 538.458 168.474 541.372 156.11 541.372C149.436 541.372 151.25 536.024 154.579 535.033Z" fill="#263238"/>
<path d="M186.612 370.87C187.827 293.9 179.955 251.945 179.955 251.945L116.868 254.784C116.868 254.784 126.204 325.205 142.779 377.074C147.205 404.909 157.173 451.987 164.08 483.607C174.327 482.815 184.458 481.084 194.317 478.439C196.73 450.665 197.162 410.512 186.612 370.87Z" fill="#00A1FF"/>
<path d="M187.978 514.962C187.978 514.962 190.441 500.421 192.105 478.43C183.733 481.061 175.048 482.795 166.228 483.597C169.822 502.795 172.385 515.022 172.385 515.022C177.428 516.66 182.95 516.638 187.978 514.962Z" fill="#FFC3BD"/>
<path d="M160.637 474.369C161.186 477.013 162.717 483.637 164.232 485.965C164.319 486.1 164.44 486.215 164.584 486.3C164.728 486.386 164.892 486.441 165.064 486.461C176.829 487.798 188.578 485.665 193.354 483.742C193.488 483.694 193.608 483.621 193.709 483.528C193.809 483.434 193.887 483.323 193.937 483.202C195.268 480.017 195.75 473.317 195.9 470.493C195.909 470.341 195.878 470.188 195.811 470.047C195.745 469.907 195.643 469.782 195.515 469.682C195.386 469.582 195.235 469.51 195.071 469.471C194.907 469.432 194.735 469.427 194.569 469.457C183.665 471.281 172.652 472.525 161.586 473.182C161.434 473.198 161.288 473.242 161.157 473.312C161.025 473.382 160.911 473.475 160.822 473.587C160.733 473.698 160.67 473.826 160.638 473.96C160.607 474.095 160.606 474.234 160.637 474.369Z" fill="#263238"/>
<path d="M117.7 164.281C108.348 165.783 94.086 172.919 94.086 172.919C94.086 172.919 86.5808 189.142 95.5671 200.829C104.42 202.721 108.88 201.174 108.88 201.174L117.7 164.281Z" fill="#263238"/>
<path opacity="0.2" d="M95.5703 200.822C104.423 202.715 108.883 201.168 108.883 201.168L108.567 179.281C102.56 186.582 97.5506 193.822 95.5703 200.822Z" fill="black"/>
<path opacity="0.2" d="M186.284 325.435C179.228 309.858 171.64 297.029 168.727 285.312C163.735 317.173 167.662 346.48 186.65 367.48C186.867 351.978 186.683 337.948 186.284 325.435Z" fill="black"/>
<path d="M282.718 447.601L257.539 463.764C236.987 439.594 206.168 402.672 198.712 386.599C179.775 345.815 141.699 255.912 141.699 255.912L191.124 245.547C191.124 245.547 222.31 271.684 242.429 370.315C259.27 391.916 273.448 423.702 282.718 447.601Z" fill="#00A1FF"/>
<path d="M281.271 524.226C287.545 513.155 287.628 500.958 280.855 491.344C277.943 487.228 292.737 479.102 292.737 479.102C297.963 493.838 302.223 494.694 305.851 496.977C309.478 499.26 309.844 504.172 306.782 505.84C303.441 507.613 300.594 510.054 298.462 512.975C294.668 517.481 292.538 523.67 287.096 527.531C283.618 529.979 278.509 529.078 281.271 524.226Z" fill="#263238"/>
<path d="M295.482 485.851C295.482 485.851 291.138 472.061 282.618 451.406C276.183 456.908 269.063 461.717 261.4 465.737C273.432 481.9 282.235 493.511 282.235 493.511C287.351 492.112 291.936 489.461 295.482 485.851Z" fill="#FFC3BD"/>
<path d="M252.099 459.441C253.763 461.635 258.223 467.117 260.669 468.665C260.813 468.756 260.977 468.817 261.15 468.843C261.323 468.869 261.5 468.859 261.668 468.815C272.984 465.66 282.719 459.336 286.28 455.776C286.38 455.681 286.456 455.567 286.502 455.442C286.548 455.318 286.563 455.186 286.547 455.055C286.314 451.675 283.684 445.381 282.536 442.752C282.473 442.613 282.377 442.488 282.253 442.387C282.13 442.286 281.983 442.211 281.824 442.167C281.664 442.124 281.496 442.114 281.331 442.137C281.166 442.16 281.009 442.217 280.872 442.302C271.791 448.021 262.344 453.253 252.582 457.969C252.434 458.028 252.302 458.116 252.195 458.225C252.088 458.335 252.009 458.464 251.963 458.604C251.917 458.745 251.905 458.892 251.929 459.036C251.952 459.181 252.011 459.319 252.099 459.441Z" fill="#263238"/>
<path d="M103.426 186.704C105.689 199.998 96.9192 210.303 110.415 216.432C108.169 226.541 111.497 246.73 116.839 254.736C124.344 258.417 161.055 252.979 191.059 245.558C190.626 233.992 180.092 211.234 183.021 173.35C183.179 171.278 182.852 169.198 182.063 167.247C181.273 165.296 180.038 163.516 178.438 162.024C176.838 160.531 174.908 159.358 172.773 158.582C170.638 157.806 168.347 157.443 166.047 157.517C163.451 157.517 160.689 157.743 157.893 157.968C148.064 158.537 138.292 159.742 128.654 161.573C125.542 162.234 122.33 162.985 119.285 163.766C113.991 165.177 109.454 168.29 106.531 172.517C103.609 176.744 102.504 181.791 103.426 186.704Z" fill="#263238"/>
<path d="M124.622 176.558C124.622 176.558 134.024 173.464 138.95 181.065C147.154 176.904 158.687 159.313 157.871 157.977C144.142 161.386 124.622 176.558 124.622 176.558Z" fill="white"/>
<path d="M124.622 176.595C124.622 176.595 117.483 175.829 115.47 181.538C115.47 170.271 123.89 163.181 127.568 161.859C126.287 164.804 124.622 176.595 124.622 176.595Z" fill="white"/>
<path d="M154.277 128.164C153.229 136.952 153.062 151.072 157.888 157.997C157.888 157.997 139.583 169.308 124.606 176.563C119.896 166.724 127.551 161.827 127.551 161.827C134.69 159.364 134.624 151.117 133.659 144.808L154.277 128.164Z" fill="#FFC3BD"/>
<path opacity="0.2" d="M133.697 144.823L145.346 135.359C145.737 137.126 145.611 138.953 144.98 140.662C142.962 145.585 139.085 149.708 134.03 152.304C134.213 149.806 134.102 147.299 133.697 144.823Z" fill="black"/>
<path d="M158.04 111.841C156.375 126.111 156.126 132.165 147.972 139.225C135.69 149.845 117.002 144.978 113.923 130.588C111.144 117.624 114.19 96.4739 129.633 91.3215C145.076 86.1692 159.571 97.5855 158.04 111.841Z" fill="#FFC3BD"/>
<path d="M154.581 122.304C152.141 120.195 150.715 117.307 150.609 114.259C150.503 111.211 151.726 108.248 154.015 106.005C158.176 102.205 164 110.076 164 110.076L154.581 122.304Z" fill="#263238"/>
<path d="M160.67 123.81C160.053 124.99 159.163 126.038 158.061 126.882C156.959 127.727 155.67 128.349 154.28 128.707C150.735 129.504 149.088 125.989 150.186 122.474C151.168 119.304 154.213 115.083 157.708 115.849C161.203 116.615 162.384 120.731 160.67 123.81Z" fill="#FFC3BD"/>
<path d="M149.852 91.5535C138.649 97.8622 126.071 101.915 112.975 103.436C112.975 93.1759 135.207 81.6544 149.852 91.5535Z" fill="#263238"/>
<path d="M141.263 92.8262C138.684 101.839 164.561 118.363 159.569 134.255C168.023 122.373 161.932 95.6352 161.932 95.6352C161.932 95.6352 140.132 83.1824 141.263 92.8262Z" fill="#263238"/>
<path opacity="0.2" d="M182.618 180.697C182.319 188.717 182.613 196.746 183.5 204.731C175.179 196.8 164.728 181.823 164.046 174.312L182.618 180.697Z" fill="black"/>
<path d="M236.955 152.461L238.769 142.922L255.194 148.645C255.194 148.645 251.383 157.523 244.377 161.443L242.43 160.332C240.903 159.493 239.614 158.345 238.664 156.979C237.713 155.613 237.128 154.066 236.955 152.461Z" fill="#FFC3BD"/>
<path d="M249.016 137.602L254.424 140.261C255.606 140.839 256.486 141.816 256.872 142.979C257.259 144.141 257.12 145.394 256.488 146.464L255.206 148.643L238.781 142.919L242.692 138.698C243.447 137.888 244.487 137.337 245.638 137.138C246.79 136.938 247.982 137.102 249.016 137.602Z" fill="#FFC3BD"/>
<path d="M179.69 163.37L181.787 165.323L184.067 167.411C185.615 168.778 187.162 170.175 188.76 171.497C191.922 174.186 195.183 176.679 198.462 179.008C201.554 181.197 204.838 183.156 208.28 184.866C210.912 186.202 213.776 187.127 216.751 187.6L212.274 188.351C211.176 188.832 211.242 189.042 211.475 188.877C211.925 188.605 212.338 188.288 212.707 187.931C213.924 186.787 215.037 185.556 216.035 184.25C218.298 181.351 220.595 178.061 222.691 174.652C224.788 171.242 227.018 167.742 229.165 164.137L235.572 153.441V153.351C236.323 152.077 237.552 151.085 239.039 150.553C240.526 150.021 242.174 149.984 243.688 150.448C245.203 150.912 246.485 151.847 247.306 153.086C248.127 154.325 248.433 155.788 248.169 157.212C247.404 161.538 246.355 165.624 245.191 169.785C244.026 173.946 242.778 178.061 241.113 182.192C239.483 186.452 237.548 190.611 235.322 194.645C234.031 196.916 232.569 199.104 230.946 201.195C229.921 202.484 228.774 203.69 227.517 204.8C225.656 206.475 223.459 207.815 221.044 208.75C219.858 209.206 218.588 209.456 217.3 209.486H216.567C209.992 209.521 203.484 208.287 197.48 205.866C194.83 204.844 192.241 203.695 189.725 202.426C187.318 201.144 184.993 199.818 182.752 198.446C178.397 195.693 174.25 192.682 170.338 189.433C168.424 187.84 166.527 186.233 164.713 184.536C163.815 183.694 162.899 182.853 162.017 181.967C161.135 181.081 160.353 180.27 159.271 179.143C156.879 176.753 155.637 173.602 155.818 170.385C155.999 167.168 157.589 164.148 160.237 161.988C162.885 159.829 166.375 158.708 169.939 158.871C173.503 159.035 176.849 160.469 179.241 162.86L179.69 163.37Z" fill="#FFC3BD"/>
<path d="M166.775 157.555C178.973 157.885 191.105 171.074 191.105 171.074C191.105 171.074 186.412 188.574 173.049 196.115C165.527 190.827 159.154 186.591 159.154 186.591C148.52 172.516 152.064 163.173 166.775 157.555Z" fill="#263238"/>
<path d="M114.404 253.759C115.302 258.461 116.384 262.156 116.733 263.283C116.767 263.403 116.827 263.515 116.91 263.613C116.993 263.711 117.097 263.793 117.216 263.854C118.997 264.74 127.118 268.36 142.028 267.564C158.67 266.753 183.082 258.551 195.746 249.824C195.931 249.695 196.063 249.515 196.124 249.311C196.184 249.108 196.168 248.892 196.079 248.697C195.101 246.74 193.961 244.852 192.668 243.049C192.541 242.876 192.356 242.745 192.14 242.674C191.925 242.604 191.689 242.598 191.47 242.659C186.011 244.161 151.647 253.038 115.452 252.648C115.298 252.648 115.147 252.679 115.007 252.737C114.868 252.796 114.744 252.88 114.645 252.986C114.545 253.092 114.472 253.215 114.43 253.349C114.389 253.482 114.38 253.622 114.404 253.759Z" fill="#00A1FF"/>
<path opacity="0.3" d="M114.404 253.759C115.302 258.461 116.384 262.156 116.733 263.283C116.767 263.403 116.827 263.515 116.91 263.613C116.993 263.711 117.097 263.793 117.216 263.854C118.997 264.74 127.118 268.36 142.028 267.564C158.67 266.753 183.082 258.551 195.746 249.824C195.931 249.695 196.063 249.515 196.124 249.311C196.184 249.108 196.168 248.892 196.079 248.697C195.101 246.74 193.961 244.852 192.668 243.049C192.541 242.876 192.356 242.745 192.14 242.674C191.925 242.604 191.689 242.598 191.47 242.659C186.011 244.161 151.647 253.038 115.452 252.648C115.298 252.648 115.147 252.679 115.007 252.737C114.868 252.796 114.744 252.88 114.645 252.986C114.545 253.092 114.472 253.215 114.43 253.349C114.389 253.482 114.38 253.622 114.404 253.759Z" fill="white"/>
</g>
<path d="M580.52 397.483C571.363 288.67 562.314 179.917 552.979 71.1249C552.546 65.0771 551.491 59.0292 550.131 53.2086C540.845 13.9073 501.633 -15.4624 461.456 -13.5354C448.405 -12.7942 436.152 -9.60229 425.25 -4.30546C421.692 -2.63538 418.183 -0.629297 415.048 1.50525C413.668 2.32546 412.456 3.11603 411.263 4.09436C409.735 5.11222 408.306 6.20915 406.975 7.37524C405.713 8.44251 404.53 9.41096 403.367 10.5573C383.318 28.9578 371.972 56.193 374.446 86.1952C381.455 169.739 388.572 253.352 395.59 336.895C399.001 377.659 374.2 407.197 333.51 411.061C256.377 418.265 179.344 425.35 102.211 432.545L102.034 432.574C89.4561 435.993 77.0262 439.215 64.4485 442.624C58.4947 444.196 52.61 446.291 46.952 448.702C44.951 449.532 42.9697 450.53 40.9983 451.518C40.7518 451.647 40.4364 451.864 40.19 451.993C38.81 452.813 37.3511 453.732 35.8824 454.661C33.5462 456.153 31.3974 457.793 29.1697 459.533C27.4447 461.015 25.7098 462.517 24.0045 464.167C22.3288 465.996 20.6728 468.012 19.1942 469.998C3.94518 490.454 -3.47726 516.77 1.93432 541.387C5.83776 558.7 13.5559 573.612 24.3298 585.253C29.1401 590.392 34.394 594.948 40.0618 598.723C44.0737 601.421 48.2827 603.634 52.5311 605.601C52.8071 605.64 53.1029 605.868 53.3789 605.907C62.8122 609.218 72.9848 610.818 83.5615 610.542C72.9848 610.818 62.822 609.218 53.3887 605.917C67.3662 612.212 83.4728 614.84 100.723 613.22C155.617 608.101 210.62 603.041 265.446 598.021C320.873 592.813 376.221 587.714 431.539 582.437C439.307 581.755 446.985 580.559 454.556 578.484C536.892 556.002 587.746 483.023 580.52 397.483Z" fill="#00DCD4"/>
<path d="M507.036 381.793C545.302 310.326 528.416 227.958 465.37 177.411C435.621 153.585 405.872 129.769 376.113 105.953C382.59 182.925 389.125 259.937 395.591 336.899C399.002 377.663 374.201 407.2 333.511 411.064C311.026 413.159 288.572 415.244 266.098 417.329C241.75 448.409 217.413 479.488 193.125 510.568L193.115 510.577L192.997 510.706C184.983 521.013 176.979 531.073 168.965 541.37C165.15 546.212 161.7 551.43 158.615 556.757C157.511 558.624 156.525 560.621 155.54 562.597C155.421 562.844 155.293 563.22 155.175 563.467C154.564 564.949 153.953 566.57 153.332 568.19C152.356 570.789 151.616 573.398 150.887 576.126C150.404 578.349 149.901 580.592 149.536 582.944C149.3 585.415 149.182 588.024 149.182 590.504C149.201 596.572 149.773 602.63 150.877 608.569C189.093 605.031 227.31 601.523 265.447 598.025C292.249 595.505 319.021 593.014 345.793 590.514C362.974 568.566 380.155 546.627 397.365 524.709C429.894 483.243 462.433 441.758 494.843 400.164C499.397 394.344 503.586 388.256 507.036 381.793Z" fill="#000DF1"/>
<path d="M458.997 495.062H239.952C235.901 495.096 231.885 494.372 228.159 492.935C224.432 491.498 221.075 489.38 218.298 486.713C215.521 484.046 213.385 480.889 212.024 477.44C210.662 473.991 210.105 470.324 210.388 466.671L237.007 55.1657C237.615 47.5275 241.37 40.3731 247.531 35.1163C253.692 29.8595 261.81 26.8829 270.282 26.7746H489.376C493.427 26.7408 497.443 27.4651 501.169 28.902C504.896 30.3389 508.253 32.4573 511.03 35.124C513.807 37.7906 515.943 40.9478 517.305 44.397C518.666 47.8461 519.223 51.5125 518.94 55.1657L492.238 466.671C491.631 474.304 487.88 481.454 481.727 486.71C475.573 491.966 467.462 494.947 458.997 495.062Z" fill="#00A1FF"/>
<path opacity="0.8" d="M458.997 495.062H239.952C235.901 495.096 231.885 494.372 228.159 492.935C224.432 491.498 221.075 489.38 218.298 486.713C215.521 484.046 213.385 480.889 212.024 477.44C210.662 473.991 210.105 470.324 210.388 466.671L237.007 55.1657C237.615 47.5275 241.37 40.3731 247.531 35.1163C253.692 29.8595 261.81 26.8829 270.282 26.7746H489.376C493.427 26.7408 497.443 27.4651 501.169 28.902C504.896 30.3389 508.253 32.4573 511.03 35.124C513.807 37.7906 515.943 40.9478 517.305 44.397C518.666 47.8461 519.223 51.5125 518.94 55.1657L492.238 466.671C491.631 474.304 487.88 481.454 481.727 486.71C475.573 491.966 467.462 494.947 458.997 495.062Z" fill="white"/>
<path d="M457.702 486.815H244.747C241.9 486.84 239.079 486.332 236.46 485.323C233.841 484.315 231.482 482.827 229.53 480.954C227.578 479.081 226.076 476.864 225.119 474.441C224.161 472.018 223.769 469.442 223.967 466.875L250.586 57.1588C251.013 51.8053 253.639 46.7895 257.949 43.0971C262.259 39.4047 267.941 37.3026 273.878 37.2039H486.834C489.681 37.1811 492.502 37.6908 495.121 38.7011C497.74 39.7114 500.099 41.2004 502.051 43.0744C504.002 44.9485 505.504 47.1672 506.461 49.591C507.419 52.0148 507.811 54.5914 507.613 57.1588L480.994 466.875C480.567 472.227 477.94 477.241 473.63 480.931C469.319 484.621 463.638 486.72 457.702 486.815Z" fill="#00A1FF"/>
<path d="M455.402 484.65H242.447C239.599 484.673 236.778 484.163 234.159 483.153C231.54 482.143 229.181 480.654 227.229 478.78C225.278 476.906 223.776 474.687 222.819 472.263C221.862 469.839 221.469 467.263 221.667 464.695L248.286 54.9791C248.713 49.6256 251.339 44.6098 255.649 40.9174C259.959 37.225 265.641 35.1229 271.578 35.0242H484.534C487.381 35.0014 490.203 35.5112 492.821 36.5214C495.44 37.5317 497.8 39.0207 499.751 40.8948C501.703 42.7688 503.204 44.9875 504.161 47.4113C505.119 49.8351 505.511 52.4117 505.314 54.9791L478.694 464.695C478.267 470.049 475.641 475.065 471.331 478.757C467.021 482.449 461.339 484.551 455.402 484.65Z" fill="white"/>
<path opacity="0.1" d="M449.179 469.417H250.581C248.822 469.431 247.078 469.116 245.46 468.492C243.841 467.868 242.383 466.948 241.177 465.79C239.971 464.632 239.042 463.261 238.45 461.763C237.859 460.265 237.616 458.673 237.738 457.086L248.918 286.183C249.18 282.867 250.809 279.76 253.483 277.477C256.157 275.194 259.681 273.9 263.359 273.852H461.873C463.633 273.838 465.377 274.153 466.995 274.777C468.614 275.401 470.072 276.321 471.278 277.479C472.484 278.637 473.412 280.008 474.004 281.506C474.596 283.004 474.839 284.596 474.717 286.183L463.62 457.086C463.358 460.402 461.729 463.509 459.055 465.792C456.381 468.075 452.857 469.369 449.179 469.417Z" fill="#00A1FF"/>
<path opacity="0.1" d="M405.076 65.4143H347.196C346.567 65.4198 345.943 65.3076 345.365 65.0848C344.786 64.8619 344.264 64.5332 343.833 64.1194C343.402 63.7055 343.07 63.2155 342.858 62.6801C342.647 62.1446 342.56 61.5754 342.604 61.0083C342.695 59.8191 343.278 58.7044 344.237 57.8855C345.195 57.0666 346.459 56.6032 347.778 56.5872H405.642C406.278 56.573 406.91 56.6794 407.498 56.8994C408.086 57.1194 408.616 57.4482 409.055 57.8647C409.494 58.2811 409.831 58.7759 410.046 59.3173C410.26 59.8587 410.347 60.4347 410.3 61.0083C410.208 62.2038 409.617 63.3231 408.648 64.1407C407.678 64.9583 406.402 65.4134 405.076 65.4143Z" fill="#00A1FF"/>
<path opacity="0.1" d="M428.104 230.363C463.746 199.079 466.179 149.09 433.539 118.71C400.899 88.3304 345.546 89.0633 309.904 120.347C274.262 151.631 271.829 201.62 304.469 232C337.109 262.38 392.462 261.647 428.104 230.363Z" fill="#00A1FF"/>
<path d="M307.814 227.624C300.532 220.616 294.93 212.323 291.359 203.267C287.789 194.21 286.328 184.584 287.068 174.992H288.731C288.011 184.377 289.441 193.796 292.934 202.659C296.427 211.521 301.906 219.636 309.029 226.496L307.814 227.624Z" fill="#00A1FF"/>
<path d="M450.931 175.657L449.267 175.567C449.722 168.943 449.162 162.293 447.604 155.807L449.267 155.477C450.858 162.101 451.418 168.893 450.931 175.657Z" fill="#00A1FF"/>
<path d="M442.779 142.71C438.707 134.544 432.882 127.191 425.642 121.076C418.403 114.961 409.892 110.205 400.604 107.085L401.186 105.672C410.687 108.856 419.391 113.717 426.792 119.973C434.193 126.229 440.142 133.753 444.293 142.108L442.779 142.71Z" fill="#00A1FF"/>
<path d="M420.502 223.248C451.562 195.985 453.686 152.425 425.245 125.953C396.804 99.4817 348.569 100.123 317.508 127.386C286.448 154.649 284.324 198.209 312.765 224.681C341.206 251.152 389.441 250.511 420.502 223.248Z" fill="#00A1FF"/>
<path d="M360.538 184.66C364.198 183.924 365.912 181.097 366.694 177.878C366.777 177.533 366.844 177.202 366.91 176.871V176.57C367.11 175.229 367.221 173.878 367.243 172.525C363.7 172.208 360.409 170.724 357.997 168.356C355.586 165.988 354.222 162.901 354.166 159.683C353.983 153.302 355.549 146.978 358.725 141.277C357.907 141.374 357.132 141.664 356.479 142.119C356.416 142.162 356.343 142.193 356.265 142.209C356.188 142.224 356.107 142.224 356.03 142.209C355.885 142.187 355.755 142.117 355.664 142.014C355.575 141.901 355.538 141.761 355.56 141.624C355.581 141.487 355.66 141.363 355.78 141.277C356.815 140.57 358.077 140.19 359.374 140.194C359.623 139.833 359.856 139.457 360.106 139.111C359.041 139.111 358.009 139.111 357.011 139.111C358.109 132.164 372.9 126.329 382.982 131.593C387.474 132.405 394.894 138.209 394.894 138.209C395.043 141.906 394.926 145.608 394.545 149.292C393.879 155.578 392.232 162.961 388.223 167.081C389.22 164.974 389.587 162.666 389.287 160.39C388.326 161.249 387.133 161.865 385.827 162.179C385.353 163.101 384.796 163.986 384.163 164.826C382.599 171.277 381.484 179.863 383.864 184.811C386.01 184.931 388.089 185.112 390.069 185.307L390.552 185.382C391.858 184.689 393.114 183.92 394.312 183.081C409.285 172.555 393.397 160.194 397.14 148.871C400.883 137.547 397.722 133.247 387.491 132.886C391.733 126.765 364.781 116.991 352.935 135.984C342.204 153.202 338.744 161.803 342.603 175.262C344.054 179.661 347.342 183.377 351.771 185.623C352.525 185.436 353.292 185.296 354.066 185.202C356.179 185.021 358.375 184.811 360.538 184.66Z" fill="#263238"/>
<path d="M337.266 211.125C336.655 210.148 336.1 209.145 335.602 208.117C334.471 211.125 333.356 214.132 332.274 217.14C331.243 219.847 330.261 222.553 329.23 225.14L327.683 228.794L327.017 230.298C326.784 230.704 327.017 230.463 327.017 230.583C326.308 231.33 325.522 232.015 324.671 232.629C324.488 232.794 324.255 232.944 324.056 233.095C328.659 235.901 333.612 238.208 338.813 239.967C338.929 233.095 339.861 225.952 340.859 224.042C334.87 220.283 335.768 216.238 337.266 211.125Z" fill="#FFC3BD"/>
<path d="M343.084 190.867L342.67 191.392C342.803 191.212 342.952 191.047 343.101 190.882L343.084 190.867Z" fill="#263238"/>
<path d="M339.24 200.943C339.216 197.633 340.326 194.397 342.418 191.68C339.228 196.215 336.606 201.057 334.599 206.116C334.599 206.116 334.898 206.913 335.53 208.161C336.028 209.188 336.583 210.192 337.194 211.169C338.38 207.858 339.069 204.419 339.24 200.943Z" fill="#263238"/>
<path d="M397.243 222.739C395.271 220.12 393.519 217.37 392.002 214.514C391.503 214.754 390.987 214.995 390.455 215.206C385.464 210.439 381.205 206.589 381.205 206.589C374.982 194.86 378.825 188.183 390.621 185.461C392.452 185.802 394.199 186.438 395.779 187.341C394.223 186.352 392.435 185.703 390.555 185.446L390.072 185.371C388.092 185.175 386.013 184.995 383.866 184.875C384.332 185.972 373.651 199.912 366.947 202.123C364.201 195.867 356.498 195.446 356.498 195.446C356.498 195.446 349.311 194.108 347.082 198.198C348.546 189.747 357.547 185.296 360.541 184.664C358.378 184.829 356.182 185.04 354.069 185.281C353.295 185.375 352.528 185.515 351.773 185.702C348.35 186.551 345.314 188.362 343.105 190.875C342.956 191.04 342.806 191.205 342.673 191.386L342.423 191.672C340.331 194.389 339.221 197.625 339.246 200.935C339.094 204.403 338.428 207.837 337.266 211.145C335.769 216.198 334.87 220.303 340.743 224.063C339.745 225.973 338.813 233.085 338.697 239.988C346.965 242.758 355.716 244.164 364.534 244.138C375.825 244.123 386.98 241.912 397.243 237.657C396.957 232.059 397.007 226.452 397.392 220.86C397.343 221.461 397.276 222.123 397.243 222.739Z" fill="#263238"/>
<path d="M356.495 195.47C356.495 195.47 364.198 195.891 366.943 202.147C373.598 199.861 384.329 185.996 383.863 184.898C383.863 184.898 368.707 191.545 356.495 195.47Z" fill="white"/>
<path d="M360.574 184.664C357.579 185.311 348.578 189.762 347.114 198.198C349.344 194.108 356.531 195.446 356.531 195.446C354.202 187.536 360.574 184.664 360.574 184.664Z" fill="white"/>
<path d="M384.16 164.906C382.714 166.802 380.885 168.435 378.769 169.718C377.88 170.297 376.933 170.8 375.941 171.222C373.762 174.384 370.512 176.826 366.674 178.184V177.929C365.892 181.147 364.179 183.944 360.518 184.711C360.518 184.711 354.146 187.598 356.442 195.508C368.671 191.583 383.81 184.982 383.81 184.982C381.481 179.959 382.596 171.357 384.16 164.906Z" fill="#FFC3BD"/>
<path d="M366.729 177.898C366.813 177.552 366.879 177.221 366.946 176.891C366.879 177.176 366.813 177.552 366.729 177.898Z" fill="#263238"/>
<path opacity="0.2" d="M366.729 177.898C366.813 177.552 366.879 177.221 366.946 176.891C366.879 177.176 366.813 177.552 366.729 177.898Z" fill="black"/>
<path d="M367.33 172.531C367.308 173.884 367.196 175.235 366.997 176.576C367.204 175.236 367.315 173.885 367.33 172.531Z" fill="#263238"/>
<path opacity="0.2" d="M367.33 172.531C367.308 173.884 367.196 175.235 366.997 176.576C367.204 175.236 367.315 173.885 367.33 172.531Z" fill="black"/>
<path d="M375.943 171.156C373.264 172.317 370.281 172.785 367.325 172.51C367.311 173.863 367.2 175.214 366.993 176.555V176.856C366.993 177.186 366.86 177.517 366.776 177.863V178.119C370.577 176.743 373.79 174.303 375.943 171.156Z" fill="#FFC3BD"/>
<path opacity="0.2" d="M375.943 171.156C373.264 172.317 370.281 172.785 367.325 172.51C367.311 173.863 367.2 175.214 366.993 176.555V176.856C366.993 177.186 366.86 177.517 366.776 177.863V178.119C370.577 176.743 373.79 174.303 375.943 171.156Z" fill="black"/>
<path d="M387.006 153.078C386.308 151.574 385.509 149.965 384.694 148.461C383.646 150.497 383.469 152.81 384.195 154.957C384.932 154.118 385.902 153.469 387.006 153.078Z" fill="#263238"/>
<path d="M387.011 153.102C385.907 153.494 384.937 154.142 384.199 154.981C383.524 155.693 382.964 156.488 382.536 157.342C381.271 159.869 382.053 162.696 384.832 162.47C385.131 162.47 385.447 162.35 385.763 162.29C387.07 161.976 388.263 161.359 389.224 160.5C388.876 157.952 388.131 155.461 387.011 153.102Z" fill="#FFC3BD"/>
<mask id="path-63-outside-1_5333_98546" maskUnits="userSpaceOnUse" x="353.326" y="134.188" width="35" height="40" fill="black">
<rect fill="white" x="353.326" y="134.188" width="35" height="40"/>
<path d="M375.941 171.12C376.933 170.698 377.88 170.195 378.77 169.616C380.885 168.333 382.714 166.7 384.16 164.804C384.793 163.964 385.35 163.079 385.824 162.158C385.508 162.158 385.192 162.308 384.892 162.338C382.114 162.564 381.332 159.736 382.596 157.21C383.024 156.356 383.585 155.561 384.26 154.849C383.534 152.702 383.712 150.389 384.759 148.353C382.23 143.661 379.552 139.33 379.302 136.188C373.077 137.927 366.617 138.883 360.103 139.03C359.853 139.375 359.987 139.413 359.737 139.774C360.301 139.771 360.496 140.186 361.035 140.338C361.105 140.361 361.169 140.397 361.224 140.443C361.279 140.489 361.323 140.544 361.354 140.606C361.385 140.667 361.402 140.734 361.404 140.802C361.406 140.869 361.394 140.936 361.367 141C361.315 141.128 361.209 141.233 361.072 141.292C360.935 141.351 360.779 141.359 360.635 141.315C360.037 141.151 359.406 141.11 358.789 141.195C355.655 146.901 354.13 153.219 354.346 159.586C354.403 162.804 355.766 165.891 358.178 168.259C360.589 170.627 363.88 172.111 367.423 172.428C370.341 172.701 373.287 172.248 375.941 171.12ZM372.231 141.586C373.138 141.747 373.987 142.105 374.706 142.629C375.424 143.153 375.991 143.827 376.357 144.594C376.422 144.72 376.43 144.863 376.381 144.995C376.331 145.127 376.227 145.236 376.091 145.3C375.953 145.352 375.797 145.352 375.659 145.3C375.584 145.282 375.515 145.248 375.457 145.201C375.399 145.154 375.354 145.095 375.326 145.03C375.024 144.422 374.563 143.89 373.983 143.479C373.404 143.068 372.723 142.79 371.998 142.669C371.848 142.646 371.713 142.573 371.621 142.465C371.528 142.356 371.485 142.219 371.499 142.082C371.506 142.005 371.532 141.931 371.574 141.863C371.616 141.796 371.675 141.738 371.744 141.694C371.814 141.65 371.894 141.619 371.978 141.606C372.062 141.593 372.149 141.596 372.231 141.616V141.586ZM371.649 149.015C371.927 149.203 372.132 149.465 372.237 149.765C372.341 150.064 372.339 150.385 372.231 150.684C372.048 151.556 371.383 152.188 370.751 152.052C370.118 151.917 369.752 151.15 369.935 150.278C370.027 149.836 370.279 149.434 370.651 149.135C370.132 148.887 369.726 148.482 369.503 147.992L371.649 149.015ZM358.007 148.383C358.096 147.948 358.342 147.552 358.705 147.255C358.195 146.995 357.887 146.892 357.665 146.402L359.754 147.105C360.022 147.3 360.22 147.563 360.324 147.86C360.428 148.157 360.432 148.475 360.336 148.774C360.136 149.646 359.487 150.278 358.855 150.157C358.223 150.037 357.824 149.285 358.007 148.413V148.383ZM361.866 155.691C361.25 155.724 360.632 155.635 360.057 155.43C359.483 155.225 358.964 154.908 358.539 154.503C360.32 153.045 361.876 151.375 363.164 149.541L361.866 155.691ZM365.077 159.721C365.004 159.704 364.94 159.661 364.9 159.602C364.86 159.544 364.846 159.473 364.861 159.406C364.877 159.34 364.921 159.283 364.983 159.246C365.045 159.21 365.121 159.197 365.194 159.21C366.395 159.444 367.639 159.419 368.827 159.137C370.015 158.854 371.113 158.323 372.032 157.586C372.058 157.561 372.089 157.542 372.124 157.528C372.159 157.514 372.196 157.507 372.234 157.506C372.272 157.505 372.309 157.511 372.345 157.524C372.38 157.536 372.412 157.555 372.439 157.579C372.467 157.602 372.489 157.631 372.504 157.662C372.519 157.693 372.527 157.727 372.528 157.761C372.529 157.795 372.522 157.829 372.508 157.861C372.494 157.893 372.474 157.922 372.448 157.947C370.901 159.234 368.859 159.925 366.758 159.872C366.195 159.867 365.634 159.827 365.077 159.752V159.721Z"/>
<path d="M370.621 149.197C370.249 149.495 369.997 149.897 369.906 150.339C369.723 151.212 370.089 152.009 370.721 152.114C371.353 152.219 372.019 151.618 372.202 150.745C372.309 150.447 372.311 150.126 372.207 149.826C372.102 149.527 371.897 149.265 371.619 149.076C371.479 149.173 371.313 149.235 371.138 149.256C370.963 149.277 370.785 149.257 370.621 149.197Z"/>
<path d="M360.391 148.85C360.487 148.551 360.483 148.233 360.379 147.936C360.275 147.639 360.077 147.376 359.809 147.181C359.664 147.276 359.497 147.339 359.32 147.362C359.143 147.386 358.962 147.37 358.794 147.316C358.43 147.613 358.184 148.009 358.095 148.444C357.912 149.316 358.278 150.113 358.91 150.233C359.542 150.354 360.108 149.722 360.391 148.85Z"/>
<path d="M358.557 154.607C358.983 155.012 359.501 155.329 360.076 155.534C360.651 155.739 361.268 155.828 361.885 155.795L363.199 149.645C361.906 151.48 360.345 153.149 358.557 154.607Z"/>
<path d="M372.416 157.587C372.36 157.538 372.286 157.511 372.208 157.511C372.131 157.511 372.056 157.538 372 157.587C371.085 158.319 369.993 158.848 368.812 159.13C367.63 159.412 366.391 159.44 365.196 159.211C365.123 159.197 365.047 159.21 364.985 159.247C364.923 159.283 364.879 159.341 364.863 159.406C364.848 159.474 364.861 159.544 364.902 159.603C364.942 159.662 365.005 159.704 365.079 159.722C365.629 159.807 366.185 159.857 366.743 159.872C368.845 159.925 370.886 159.235 372.433 157.948C372.48 157.896 372.504 157.831 372.501 157.764C372.498 157.698 372.468 157.634 372.416 157.587Z"/>
<path d="M372.036 142.676C372.76 142.797 373.441 143.075 374.021 143.487C374.6 143.898 375.061 144.43 375.363 145.037C375.391 145.102 375.436 145.161 375.494 145.208C375.552 145.255 375.621 145.289 375.696 145.308C375.834 145.36 375.99 145.36 376.128 145.308C376.265 145.243 376.368 145.134 376.418 145.002C376.467 144.871 376.459 144.727 376.395 144.601C376.028 143.835 375.462 143.16 374.743 142.636C374.024 142.112 373.175 141.754 372.269 141.593C372.116 141.576 371.963 141.614 371.842 141.699C371.72 141.783 371.64 141.907 371.62 142.045C371.588 142.178 371.614 142.317 371.691 142.434C371.768 142.551 371.891 142.637 372.036 142.676Z"/>
<path d="M370.619 149.209C370.783 149.269 370.961 149.29 371.136 149.269C371.311 149.248 371.477 149.186 371.617 149.089L369.438 148.081C369.673 148.571 370.091 148.97 370.619 149.209Z"/>
</mask>
<path d="M375.941 171.12C376.933 170.698 377.88 170.195 378.77 169.616C380.885 168.333 382.714 166.7 384.16 164.804C384.793 163.964 385.35 163.079 385.824 162.158C385.508 162.158 385.192 162.308 384.892 162.338C382.114 162.564 381.332 159.736 382.596 157.21C383.024 156.356 383.585 155.561 384.26 154.849C383.534 152.702 383.712 150.389 384.759 148.353C382.23 143.661 379.552 139.33 379.302 136.188C373.077 137.927 366.617 138.883 360.103 139.03C359.853 139.375 359.987 139.413 359.737 139.774C360.301 139.771 360.496 140.186 361.035 140.338C361.105 140.361 361.169 140.397 361.224 140.443C361.279 140.489 361.323 140.544 361.354 140.606C361.385 140.667 361.402 140.734 361.404 140.802C361.406 140.869 361.394 140.936 361.367 141C361.315 141.128 361.209 141.233 361.072 141.292C360.935 141.351 360.779 141.359 360.635 141.315C360.037 141.151 359.406 141.11 358.789 141.195C355.655 146.901 354.13 153.219 354.346 159.586C354.403 162.804 355.766 165.891 358.178 168.259C360.589 170.627 363.88 172.111 367.423 172.428C370.341 172.701 373.287 172.248 375.941 171.12ZM372.231 141.586C373.138 141.747 373.987 142.105 374.706 142.629C375.424 143.153 375.991 143.827 376.357 144.594C376.422 144.72 376.43 144.863 376.381 144.995C376.331 145.127 376.227 145.236 376.091 145.3C375.953 145.352 375.797 145.352 375.659 145.3C375.584 145.282 375.515 145.248 375.457 145.201C375.399 145.154 375.354 145.095 375.326 145.03C375.024 144.422 374.563 143.89 373.983 143.479C373.404 143.068 372.723 142.79 371.998 142.669C371.848 142.646 371.713 142.573 371.621 142.465C371.528 142.356 371.485 142.219 371.499 142.082C371.506 142.005 371.532 141.931 371.574 141.863C371.616 141.796 371.675 141.738 371.744 141.694C371.814 141.65 371.894 141.619 371.978 141.606C372.062 141.593 372.149 141.596 372.231 141.616V141.586ZM371.649 149.015C371.927 149.203 372.132 149.465 372.237 149.765C372.341 150.064 372.339 150.385 372.231 150.684C372.048 151.556 371.383 152.188 370.751 152.052C370.118 151.917 369.752 151.15 369.935 150.278C370.027 149.836 370.279 149.434 370.651 149.135C370.132 148.887 369.726 148.482 369.503 147.992L371.649 149.015ZM358.007 148.383C358.096 147.948 358.342 147.552 358.705 147.255C358.195 146.995 357.887 146.892 357.665 146.402L359.754 147.105C360.022 147.3 360.22 147.563 360.324 147.86C360.428 148.157 360.432 148.475 360.336 148.774C360.136 149.646 359.487 150.278 358.855 150.157C358.223 150.037 357.824 149.285 358.007 148.413V148.383ZM361.866 155.691C361.25 155.724 360.632 155.635 360.057 155.43C359.483 155.225 358.964 154.908 358.539 154.503C360.32 153.045 361.876 151.375 363.164 149.541L361.866 155.691ZM365.077 159.721C365.004 159.704 364.94 159.661 364.9 159.602C364.86 159.544 364.846 159.473 364.861 159.406C364.877 159.34 364.921 159.283 364.983 159.246C365.045 159.21 365.121 159.197 365.194 159.21C366.395 159.444 367.639 159.419 368.827 159.137C370.015 158.854 371.113 158.323 372.032 157.586C372.058 157.561 372.089 157.542 372.124 157.528C372.159 157.514 372.196 157.507 372.234 157.506C372.272 157.505 372.309 157.511 372.345 157.524C372.38 157.536 372.412 157.555 372.439 157.579C372.467 157.602 372.489 157.631 372.504 157.662C372.519 157.693 372.527 157.727 372.528 157.761C372.529 157.795 372.522 157.829 372.508 157.861C372.494 157.893 372.474 157.922 372.448 157.947C370.901 159.234 368.859 159.925 366.758 159.872C366.195 159.867 365.634 159.827 365.077 159.752V159.721Z" fill="#FFC3BD"/>
<path d="M370.621 149.197C370.249 149.495 369.997 149.897 369.906 150.339C369.723 151.212 370.089 152.009 370.721 152.114C371.353 152.219 372.019 151.618 372.202 150.745C372.309 150.447 372.311 150.126 372.207 149.826C372.102 149.527 371.897 149.265 371.619 149.076C371.479 149.173 371.313 149.235 371.138 149.256C370.963 149.277 370.785 149.257 370.621 149.197Z" fill="#FFC3BD"/>
<path d="M360.391 148.85C360.487 148.551 360.483 148.233 360.379 147.936C360.275 147.639 360.077 147.376 359.809 147.181C359.664 147.276 359.497 147.339 359.32 147.362C359.143 147.386 358.962 147.37 358.794 147.316C358.43 147.613 358.184 148.009 358.095 148.444C357.912 149.316 358.278 150.113 358.91 150.233C359.542 150.354 360.108 149.722 360.391 148.85Z" fill="#FFC3BD"/>
<path d="M358.557 154.607C358.983 155.012 359.501 155.329 360.076 155.534C360.651 155.739 361.268 155.828 361.885 155.795L363.199 149.645C361.906 151.48 360.345 153.149 358.557 154.607Z" fill="#FFC3BD"/>
<path d="M372.416 157.587C372.36 157.538 372.286 157.511 372.208 157.511C372.131 157.511 372.056 157.538 372 157.587C371.085 158.319 369.993 158.848 368.812 159.13C367.63 159.412 366.391 159.44 365.196 159.211C365.123 159.197 365.047 159.21 364.985 159.247C364.923 159.283 364.879 159.341 364.863 159.406C364.848 159.474 364.861 159.544 364.902 159.603C364.942 159.662 365.005 159.704 365.079 159.722C365.629 159.807 366.185 159.857 366.743 159.872C368.845 159.925 370.886 159.235 372.433 157.948C372.48 157.896 372.504 157.831 372.501 157.764C372.498 157.698 372.468 157.634 372.416 157.587Z" fill="#FFC3BD"/>
<path d="M372.036 142.676C372.76 142.797 373.441 143.075 374.021 143.487C374.6 143.898 375.061 144.43 375.363 145.037C375.391 145.102 375.436 145.161 375.494 145.208C375.552 145.255 375.621 145.289 375.696 145.308C375.834 145.36 375.99 145.36 376.128 145.308C376.265 145.243 376.368 145.134 376.418 145.002C376.467 144.871 376.459 144.727 376.395 144.601C376.028 143.835 375.462 143.16 374.743 142.636C374.024 142.112 373.175 141.754 372.269 141.593C372.116 141.576 371.963 141.614 371.842 141.699C371.72 141.783 371.64 141.907 371.62 142.045C371.588 142.178 371.614 142.317 371.691 142.434C371.768 142.551 371.891 142.637 372.036 142.676Z" fill="#FFC3BD"/>
<path d="M370.619 149.209C370.783 149.269 370.961 149.29 371.136 149.269C371.311 149.248 371.477 149.186 371.617 149.089L369.438 148.081C369.673 148.571 370.091 148.97 370.619 149.209Z" fill="#FFC3BD"/>
<path d="M375.941 171.12C376.933 170.698 377.88 170.195 378.77 169.616C380.885 168.333 382.714 166.7 384.16 164.804C384.793 163.964 385.35 163.079 385.824 162.158C385.508 162.158 385.192 162.308 384.892 162.338C382.114 162.564 381.332 159.736 382.596 157.21C383.024 156.356 383.585 155.561 384.26 154.849C383.534 152.702 383.712 150.389 384.759 148.353C382.23 143.661 379.552 139.33 379.302 136.188C373.077 137.927 366.617 138.883 360.103 139.03C359.853 139.375 359.987 139.413 359.737 139.774C360.301 139.771 360.496 140.186 361.035 140.338C361.105 140.361 361.169 140.397 361.224 140.443C361.279 140.489 361.323 140.544 361.354 140.606C361.385 140.667 361.402 140.734 361.404 140.802C361.406 140.869 361.394 140.936 361.367 141C361.315 141.128 361.209 141.233 361.072 141.292C360.935 141.351 360.779 141.359 360.635 141.315C360.037 141.151 359.406 141.11 358.789 141.195C355.655 146.901 354.13 153.219 354.346 159.586C354.403 162.804 355.766 165.891 358.178 168.259C360.589 170.627 363.88 172.111 367.423 172.428C370.341 172.701 373.287 172.248 375.941 171.12ZM372.231 141.586C373.138 141.747 373.987 142.105 374.706 142.629C375.424 143.153 375.991 143.827 376.357 144.594C376.422 144.72 376.43 144.863 376.381 144.995C376.331 145.127 376.227 145.236 376.091 145.3C375.953 145.352 375.797 145.352 375.659 145.3C375.584 145.282 375.515 145.248 375.457 145.201C375.399 145.154 375.354 145.095 375.326 145.03C375.024 144.422 374.563 143.89 373.983 143.479C373.404 143.068 372.723 142.79 371.998 142.669C371.848 142.646 371.713 142.573 371.621 142.465C371.528 142.356 371.485 142.219 371.499 142.082C371.506 142.005 371.532 141.931 371.574 141.863C371.616 141.796 371.675 141.738 371.744 141.694C371.814 141.65 371.894 141.619 371.978 141.606C372.062 141.593 372.149 141.596 372.231 141.616V141.586ZM371.649 149.015C371.927 149.203 372.132 149.465 372.237 149.765C372.341 150.064 372.339 150.385 372.231 150.684C372.048 151.556 371.383 152.188 370.751 152.052C370.118 151.917 369.752 151.15 369.935 150.278C370.027 149.836 370.279 149.434 370.651 149.135C370.132 148.887 369.726 148.482 369.503 147.992L371.649 149.015ZM358.007 148.383C358.096 147.948 358.342 147.552 358.705 147.255C358.195 146.995 357.887 146.892 357.665 146.402L359.754 147.105C360.022 147.3 360.22 147.563 360.324 147.86C360.428 148.157 360.432 148.475 360.336 148.774C360.136 149.646 359.487 150.278 358.855 150.157C358.223 150.037 357.824 149.285 358.007 148.413V148.383ZM361.866 155.691C361.25 155.724 360.632 155.635 360.057 155.43C359.483 155.225 358.964 154.908 358.539 154.503C360.32 153.045 361.876 151.375 363.164 149.541L361.866 155.691ZM365.077 159.721C365.004 159.704 364.94 159.661 364.9 159.602C364.86 159.544 364.846 159.473 364.861 159.406C364.877 159.34 364.921 159.283 364.983 159.246C365.045 159.21 365.121 159.197 365.194 159.21C366.395 159.444 367.639 159.419 368.827 159.137C370.015 158.854 371.113 158.323 372.032 157.586C372.058 157.561 372.089 157.542 372.124 157.528C372.159 157.514 372.196 157.507 372.234 157.506C372.272 157.505 372.309 157.511 372.345 157.524C372.38 157.536 372.412 157.555 372.439 157.579C372.467 157.602 372.489 157.631 372.504 157.662C372.519 157.693 372.527 157.727 372.528 157.761C372.529 157.795 372.522 157.829 372.508 157.861C372.494 157.893 372.474 157.922 372.448 157.947C370.901 159.234 368.859 159.925 366.758 159.872C366.195 159.867 365.634 159.827 365.077 159.752V159.721Z" stroke="#FFC3BD" stroke-width="2" mask="url(#path-63-outside-1_5333_98546)"/>
<path d="M370.621 149.197C370.249 149.495 369.997 149.897 369.906 150.339C369.723 151.212 370.089 152.009 370.721 152.114C371.353 152.219 372.019 151.618 372.202 150.745C372.309 150.447 372.311 150.126 372.207 149.826C372.102 149.527 371.897 149.265 371.619 149.076C371.479 149.173 371.313 149.235 371.138 149.256C370.963 149.277 370.785 149.257 370.621 149.197Z" stroke="#FFC3BD" stroke-width="2" mask="url(#path-63-outside-1_5333_98546)"/>
<path d="M360.391 148.85C360.487 148.551 360.483 148.233 360.379 147.936C360.275 147.639 360.077 147.376 359.809 147.181C359.664 147.276 359.497 147.339 359.32 147.362C359.143 147.386 358.962 147.37 358.794 147.316C358.43 147.613 358.184 148.009 358.095 148.444C357.912 149.316 358.278 150.113 358.91 150.233C359.542 150.354 360.108 149.722 360.391 148.85Z" stroke="#FFC3BD" stroke-width="2" mask="url(#path-63-outside-1_5333_98546)"/>
<path d="M358.557 154.607C358.983 155.012 359.501 155.329 360.076 155.534C360.651 155.739 361.268 155.828 361.885 155.795L363.199 149.645C361.906 151.48 360.345 153.149 358.557 154.607Z" stroke="#FFC3BD" stroke-width="2" mask="url(#path-63-outside-1_5333_98546)"/>
<path d="M372.416 157.587C372.36 157.538 372.286 157.511 372.208 157.511C372.131 157.511 372.056 157.538 372 157.587C371.085 158.319 369.993 158.848 368.812 159.13C367.63 159.412 366.391 159.44 365.196 159.211C365.123 159.197 365.047 159.21 364.985 159.247C364.923 159.283 364.879 159.341 364.863 159.406C364.848 159.474 364.861 159.544 364.902 159.603C364.942 159.662 365.005 159.704 365.079 159.722C365.629 159.807 366.185 159.857 366.743 159.872C368.845 159.925 370.886 159.235 372.433 157.948C372.48 157.896 372.504 157.831 372.501 157.764C372.498 157.698 372.468 157.634 372.416 157.587Z" stroke="#FFC3BD" stroke-width="2" mask="url(#path-63-outside-1_5333_98546)"/>
<path d="M372.036 142.676C372.76 142.797 373.441 143.075 374.021 143.487C374.6 143.898 375.061 144.43 375.363 145.037C375.391 145.102 375.436 145.161 375.494 145.208C375.552 145.255 375.621 145.289 375.696 145.308C375.834 145.36 375.99 145.36 376.128 145.308C376.265 145.243 376.368 145.134 376.418 145.002C376.467 144.871 376.459 144.727 376.395 144.601C376.028 143.835 375.462 143.16 374.743 142.636C374.024 142.112 373.175 141.754 372.269 141.593C372.116 141.576 371.963 141.614 371.842 141.699C371.72 141.783 371.64 141.907 371.62 142.045C371.588 142.178 371.614 142.317 371.691 142.434C371.768 142.551 371.891 142.637 372.036 142.676Z" stroke="#FFC3BD" stroke-width="2" mask="url(#path-63-outside-1_5333_98546)"/>
<path d="M370.619 149.209C370.783 149.269 370.961 149.29 371.136 149.269C371.311 149.248 371.477 149.186 371.617 149.089L369.438 148.081C369.673 148.571 370.091 148.97 370.619 149.209Z" stroke="#FFC3BD" stroke-width="2" mask="url(#path-63-outside-1_5333_98546)"/>
<path d="M397.24 222.746C397.24 222.129 397.34 221.467 397.373 220.836C396.441 219.498 395.493 218.144 394.511 216.806L392.598 214.234L391.999 214.52C393.516 217.377 395.268 220.126 397.24 222.746Z" fill="#263238"/>
<path opacity="0.2" d="M397.24 222.746C397.24 222.129 397.34 221.467 397.373 220.836C396.441 219.498 395.493 218.144 394.511 216.806L392.598 214.234L391.999 214.52C393.516 217.377 395.268 220.126 397.24 222.746Z" fill="black"/>
<path d="M402.183 235.195V235.436C408.819 232.195 414.932 228.147 420.351 223.406C419.442 220.98 418.376 218.605 417.157 216.293C415.543 213.148 413.749 210.081 411.783 207.105C410.119 204.518 408.356 202.052 406.542 199.586C404.879 202.729 400.154 210.293 392.65 214.188L394.564 216.759C395.545 218.097 396.494 219.451 397.425 220.789C398.24 221.962 399.089 223.15 399.771 224.323C401.052 226.353 402.25 228.398 403.099 230.338L402.932 231.361C402.732 232.609 402.483 233.887 402.183 235.195Z" fill="#FFC3BD"/>
<path d="M381.201 206.597C381.201 206.597 385.46 210.446 390.451 215.213C390.983 215.003 391.499 214.762 391.998 214.522L392.597 214.236C400.1 210.341 404.792 202.777 406.489 199.634C406.971 198.747 407.221 198.206 407.221 198.206C407.221 198.206 402.396 190.988 395.775 187.348C394.195 186.446 392.448 185.809 390.617 185.469C378.821 188.191 374.978 194.867 381.201 206.597Z" fill="#263238"/>
<path d="M460.979 55.7468H484.421C485.061 55.737 485.674 55.5108 486.139 55.1128C486.604 54.7147 486.887 54.1737 486.933 53.5964C486.953 53.3213 486.911 53.0453 486.808 52.7858C486.705 52.5263 486.544 52.2888 486.334 52.0883C486.125 51.8878 485.872 51.7285 485.592 51.6206C485.311 51.5127 485.008 51.4583 484.703 51.461H461.245C460.607 51.4705 459.997 51.6946 459.532 52.0895C459.067 52.4844 458.782 53.0217 458.733 53.5964C458.71 53.8739 458.751 54.1528 458.854 54.4152C458.957 54.6776 459.119 54.9176 459.33 55.12C459.542 55.3224 459.798 55.4827 460.081 55.5907C460.365 55.6986 460.671 55.7517 460.979 55.7468Z" fill="#00A1FF"/>
<path d="M460.496 63.1603H483.938C484.578 63.1505 485.191 62.9243 485.656 62.5262C486.121 62.1282 486.404 61.5872 486.45 61.0099C486.473 60.7336 486.432 60.456 486.33 60.1947C486.229 59.9333 486.068 59.694 485.858 59.4918C485.649 59.2897 485.395 59.129 485.113 59.0202C484.831 58.9113 484.527 58.8566 484.221 58.8595H460.779C460.136 58.8656 459.519 59.0901 459.05 59.4885C458.582 59.8869 458.296 60.4299 458.25 61.0099C458.232 61.2864 458.277 61.5634 458.381 61.8237C458.486 62.0841 458.649 62.3223 458.859 62.5238C459.069 62.7252 459.323 62.8856 459.605 62.9951C459.886 63.1045 460.19 63.1607 460.496 63.1603Z" fill="#00A1FF"/>
<path d="M270.846 63.1602H294.287C294.93 63.1507 295.545 62.9251 296.012 62.5274C296.48 62.1296 296.767 61.5885 296.816 61.0099C296.837 60.7328 296.794 60.4549 296.69 60.1935C296.586 59.9322 296.424 59.6931 296.213 59.4911C296.002 59.2892 295.747 59.1289 295.465 59.0202C295.182 58.9115 294.878 58.8568 294.57 58.8595H271.129C270.487 58.8658 269.872 59.0908 269.406 59.4896C268.94 59.8883 268.658 60.4312 268.616 61.0099C268.596 61.2856 268.638 61.5623 268.741 61.8226C268.844 62.0829 269.005 62.3213 269.214 62.523C269.423 62.7247 269.676 62.8854 269.957 62.995C270.237 63.1046 270.54 63.1609 270.846 63.1602Z" fill="#00A1FF"/>
<path d="M460.011 70.5117H483.502C484.146 70.5056 484.763 70.2811 485.231 69.8827C485.7 69.4843 485.985 68.9412 486.031 68.3613C486.049 68.0848 486.005 67.8078 485.9 67.5475C485.795 67.2871 485.633 67.0489 485.422 66.8474C485.212 66.646 484.958 66.4856 484.677 66.3761C484.395 66.2667 484.092 66.2105 483.785 66.2109H460.294C459.652 66.2204 459.037 66.4461 458.569 66.8438C458.101 67.2415 457.814 67.7827 457.765 68.3613C457.744 68.6384 457.787 68.9163 457.891 69.1776C457.995 69.439 458.157 69.6781 458.368 69.88C458.579 70.0819 458.834 70.2423 459.116 70.351C459.399 70.4597 459.704 70.5144 460.011 70.5117Z" fill="#00A1FF"/>
<path d="M429.201 340.286H287.386C284.738 340.308 282.113 339.835 279.677 338.896C277.24 337.957 275.045 336.572 273.23 334.83C271.414 333.087 270.017 331.023 269.126 328.769C268.235 326.514 267.87 324.117 268.054 321.729C268.453 316.738 270.908 312.063 274.933 308.628C278.959 305.193 284.263 303.246 289.799 303.173H431.614C434.262 303.15 436.887 303.623 439.324 304.562C441.76 305.501 443.955 306.886 445.771 308.629C447.586 310.372 448.984 312.435 449.874 314.69C450.765 316.944 451.13 319.341 450.946 321.729C450.547 326.72 448.093 331.395 444.067 334.83C440.041 338.266 434.737 340.212 429.201 340.286Z" fill="white"/>
<path d="M425.974 390.209H284.142C281.493 390.227 278.869 389.75 276.434 388.809C273.999 387.867 271.805 386.481 269.99 384.738C268.175 382.994 266.778 380.931 265.887 378.676C264.995 376.422 264.629 374.025 264.81 371.637C265.221 366.654 267.68 361.991 271.705 358.565C275.729 355.139 281.027 353.198 286.554 353.126H428.386C431.034 353.103 433.659 353.577 436.096 354.516C438.532 355.454 440.727 356.839 442.543 358.582C444.359 360.325 445.756 362.388 446.646 364.643C447.537 366.897 447.902 369.294 447.718 371.682C447.308 376.667 444.849 381.332 440.825 384.76C436.801 388.189 431.503 390.132 425.974 390.209Z" fill="white"/>
<path d="M422.729 440.05H280.914C278.265 440.073 275.64 439.6 273.204 438.661C270.768 437.722 268.573 436.337 266.757 434.594C264.941 432.852 263.544 430.788 262.653 428.533C261.763 426.279 261.398 423.882 261.581 421.494C261.98 416.501 264.434 411.825 268.459 408.387C272.485 404.95 277.789 403 283.326 402.922H425.141C427.79 402.902 430.416 403.377 432.852 404.318C435.288 405.259 437.483 406.644 439.299 408.389C441.114 410.133 442.511 412.197 443.402 414.452C444.292 416.708 444.657 419.105 444.474 421.494C444.075 426.485 441.62 431.16 437.594 434.595C433.569 438.03 428.265 439.977 422.729 440.05Z" fill="white"/>
<path d="M298.4 328.388C302.717 324.598 303.016 318.546 299.066 314.87C295.116 311.194 288.415 311.286 284.097 315.076C279.779 318.865 279.481 324.918 283.431 328.594C287.38 332.27 294.082 332.178 298.4 328.388Z" fill="#00A1FF"/>
<path d="M289.994 362.548L291.391 367.315C291.472 367.577 291.646 367.807 291.887 367.97C292.128 368.133 292.422 368.22 292.722 368.217H298.263C298.575 368.219 298.878 368.314 299.125 368.487C299.372 368.66 299.55 368.902 299.631 369.174C299.712 369.447 299.692 369.736 299.574 369.998C299.456 370.259 299.247 370.479 298.978 370.623L294.303 373.63C294.037 373.79 293.834 374.021 293.72 374.291C293.607 374.56 293.59 374.855 293.671 375.134L295.068 379.901C295.151 380.175 295.139 380.465 295.033 380.732C294.928 380.999 294.733 381.231 294.477 381.395C294.221 381.559 293.916 381.648 293.602 381.65C293.288 381.651 292.981 381.566 292.722 381.405L288.43 378.397C288.186 378.243 287.896 378.16 287.598 378.16C287.3 378.16 287.01 378.243 286.766 378.397L282.091 381.405C281.846 381.581 281.543 381.678 281.23 381.68C280.917 381.681 280.612 381.588 280.365 381.415C280.117 381.241 279.941 380.998 279.865 380.723C279.789 380.449 279.817 380.159 279.945 379.901L281.958 375.134C282.082 374.876 282.106 374.587 282.028 374.315C281.95 374.043 281.773 373.802 281.526 373.63L277.233 370.623C276.997 370.439 276.829 370.194 276.752 369.921C276.676 369.648 276.694 369.361 276.805 369.097C276.916 368.834 277.114 368.609 277.373 368.451C277.631 368.293 277.937 368.212 278.248 368.217H283.788C284.102 368.217 284.409 368.131 284.668 367.97C284.926 367.808 285.124 367.58 285.236 367.315L287.182 362.548C287.271 362.272 287.456 362.031 287.709 361.859C287.963 361.687 288.271 361.594 288.588 361.594C288.905 361.594 289.214 361.687 289.467 361.859C289.721 362.031 289.905 362.272 289.994 362.548Z" fill="#00A1FF"/>
<path d="M293.842 416.406L292.96 429.79C292.918 430.351 292.643 430.877 292.189 431.262C291.735 431.647 291.137 431.863 290.515 431.865H277.554C277.268 431.85 276.988 431.783 276.73 431.668C276.473 431.553 276.243 431.393 276.056 431.197C275.868 431.001 275.726 430.772 275.637 430.525C275.549 430.279 275.516 430.018 275.541 429.76L276.623 413.098C276.661 412.537 276.932 412.009 277.383 411.621C277.833 411.234 278.43 411.014 279.052 411.008H288.369L293.842 416.406Z" fill="#00A1FF"/>
<path d="M288.283 411.059L293.89 416.428H290.247C289.95 416.43 289.657 416.378 289.384 416.273C289.111 416.168 288.866 416.013 288.663 415.818C288.459 415.623 288.303 415.392 288.203 415.14C288.104 414.888 288.063 414.62 288.084 414.352L288.283 411.059ZM286.803 407.375L286.57 410.969L286.353 414.262C286.325 414.742 286.403 415.222 286.583 415.674C286.763 416.126 287.041 416.541 287.402 416.894C287.768 417.243 288.209 417.52 288.698 417.709C289.188 417.898 289.715 417.994 290.247 417.992H297.866L295.138 415.36L289.548 409.992L286.803 407.375Z" fill="white"/>
<path opacity="0.2" d="M424.439 319.757H318.311C317.881 319.76 317.456 319.683 317.061 319.531C316.666 319.378 316.31 319.154 316.015 318.872C315.72 318.59 315.492 318.256 315.346 317.891C315.2 317.526 315.139 317.137 315.167 316.75C315.237 315.94 315.639 315.182 316.294 314.626C316.95 314.07 317.811 313.755 318.71 313.742H424.822C425.251 313.739 425.677 313.817 426.072 313.969C426.467 314.121 426.823 314.345 427.118 314.628C427.413 314.91 427.641 315.244 427.787 315.609C427.933 315.974 427.994 316.362 427.966 316.75C427.9 317.559 427.501 318.316 426.849 318.872C426.196 319.429 425.336 319.745 424.439 319.757Z" fill="#00A1FF"/>
<path opacity="0.2" d="M404.328 329.757H317.682C317.252 329.76 316.826 329.683 316.43 329.531C316.034 329.379 315.677 329.155 315.38 328.873C315.084 328.591 314.855 328.257 314.707 327.892C314.559 327.527 314.496 327.138 314.521 326.75C314.591 325.94 314.994 325.183 315.649 324.626C316.304 324.07 317.166 323.755 318.065 323.742H404.711C405.142 323.737 405.569 323.813 405.966 323.964C406.363 324.116 406.721 324.34 407.018 324.622C407.315 324.904 407.544 325.239 407.691 325.605C407.838 325.972 407.9 326.361 407.872 326.75C407.798 327.559 407.395 328.314 406.74 328.87C406.085 329.425 405.226 329.742 404.328 329.757Z" fill="#00A1FF"/>
<path opacity="0.2" d="M420.949 373.594H391.667C390.767 373.603 389.904 373.917 389.247 374.474C388.591 375.031 388.19 375.79 388.124 376.601C388.096 376.989 388.157 377.377 388.303 377.742C388.449 378.107 388.677 378.441 388.972 378.724C389.267 379.006 389.623 379.23 390.018 379.382C390.413 379.535 390.838 379.612 391.268 379.609H420.549C421.449 379.6 422.313 379.286 422.969 378.729C423.625 378.172 424.026 377.413 424.093 376.601C424.12 376.214 424.059 375.826 423.913 375.46C423.768 375.095 423.54 374.761 423.245 374.479C422.95 374.197 422.594 373.973 422.199 373.82C421.804 373.668 421.378 373.591 420.949 373.594Z" fill="#00A1FF"/>
<path opacity="0.2" d="M374.547 373.594H314.836C313.936 373.603 313.073 373.917 312.417 374.474C311.76 375.031 311.359 375.79 311.293 376.602C311.263 376.989 311.322 377.379 311.467 377.745C311.612 378.111 311.84 378.446 312.135 378.729C312.431 379.011 312.788 379.235 313.184 379.387C313.58 379.539 314.007 379.614 314.437 379.609H374.164C375.063 379.597 375.925 379.281 376.58 378.725C377.236 378.169 377.638 377.412 377.708 376.602C377.736 376.213 377.674 375.823 377.527 375.457C377.38 375.091 377.151 374.756 376.854 374.474C376.558 374.191 376.199 373.967 375.802 373.816C375.405 373.665 374.978 373.589 374.547 373.594Z" fill="#00A1FF"/>
<path opacity="0.2" d="M402.132 363.641H315.469C314.569 363.65 313.705 363.964 313.049 364.521C312.393 365.078 311.992 365.837 311.925 366.648C311.898 367.036 311.959 367.424 312.105 367.789C312.251 368.154 312.478 368.488 312.773 368.77C313.068 369.053 313.425 369.277 313.82 369.429C314.215 369.581 314.64 369.659 315.07 369.656H401.716C402.615 369.643 403.476 369.328 404.132 368.772C404.787 368.216 405.189 367.458 405.26 366.648C405.287 366.262 405.226 365.875 405.081 365.511C404.937 365.147 404.71 364.813 404.417 364.531C404.124 364.249 403.77 364.025 403.377 363.872C402.984 363.719 402.56 363.64 402.132 363.641Z" fill="#00A1FF"/>
<path opacity="0.2" d="M417.706 423.445H311.594C310.696 423.461 309.837 423.778 309.182 424.333C308.528 424.889 308.124 425.644 308.05 426.453C308.023 426.842 308.084 427.231 308.231 427.597C308.378 427.964 308.607 428.298 308.904 428.581C309.201 428.863 309.559 429.087 309.956 429.238C310.353 429.39 310.781 429.465 311.211 429.46H417.323C418.22 429.448 419.08 429.132 419.732 428.575C420.385 428.019 420.784 427.262 420.85 426.453C420.878 426.065 420.816 425.677 420.671 425.312C420.525 424.947 420.297 424.613 420.002 424.331C419.707 424.048 419.351 423.824 418.956 423.672C418.561 423.52 418.135 423.443 417.706 423.445Z" fill="#00A1FF"/>
<path opacity="0.2" d="M398.886 413.492H312.24C311.341 413.505 310.479 413.82 309.824 414.376C309.168 414.932 308.766 415.69 308.696 416.5C308.668 416.887 308.73 417.276 308.875 417.641C309.021 418.006 309.249 418.34 309.544 418.622C309.839 418.904 310.195 419.128 310.59 419.281C310.985 419.433 311.411 419.51 311.84 419.507H398.503C399.4 419.495 400.26 419.179 400.912 418.622C401.565 418.066 401.964 417.309 402.03 416.5C402.058 416.112 401.996 415.724 401.851 415.359C401.705 414.994 401.477 414.66 401.182 414.378C400.887 414.095 400.531 413.871 400.136 413.719C399.741 413.567 399.315 413.489 398.886 413.492Z" fill="#00A1FF"/>
<path d="M379.622 134.045C379.307 134.761 379.187 135.535 379.273 136.301C379.522 139.489 382.201 143.82 384.73 148.467C385.545 149.97 386.394 151.474 387.042 153.083C388.162 155.443 388.907 157.934 389.255 160.482C389.555 162.758 389.188 165.066 388.19 167.173C392.2 163.053 393.847 155.67 394.513 149.384C394.894 145.7 395.011 141.998 394.862 138.301C394.862 138.301 387.442 132.497 382.95 131.685C381.086 131.354 379.722 131.88 379.622 134.045Z" fill="#263238"/>
<path d="M379.619 134.031C379.719 131.865 381.083 131.339 382.946 131.67C372.864 126.346 358.074 132.181 356.976 139.189C357.974 139.189 359.005 139.189 360.07 139.189C366.584 139.042 373.044 138.086 379.269 136.347C379.173 135.56 379.293 134.765 379.619 134.031Z" fill="#263238"/>
<path d="M353.935 139.359H358.908L356.836 143.088L353.935 142.674V139.359Z" fill="#263238"/>
</g>
<defs>
<clipPath id="clip0_5333_98546">
<rect width="581" height="548" fill="white"/>
</clipPath>
<clipPath id="clip1_5333_98546">
<rect width="271.135" height="461" fill="white" transform="translate(26.2998 81)"/>
</clipPath>
</defs>
</svg>
