<?xml version="1.0" encoding="UTF-8"?><svg id="Capa_2" xmlns="http://www.w3.org/2000/svg" viewBox="0 0 119.41 119.41"><defs><style>.cls-1{fill:#60bdd9;}.cls-2{fill:#0c2955;}.cls-3{fill:none;}</style></defs><g id="Capa_1-2"><rect class="cls-3" width="119.41" height="119.41"/><g><path class="cls-1" d="M86.36,47.24c5.39-3.15,10.08-7.15,13.54-12.45,2.61-4.01,5.26-8.27,5.04-13.24-.07-1.76-.38-3.47-1.29-5.14-1.32-2.42-3.4-3.76-5.97-4.57-5.09-1.6-10.17-1.44-15,.65-3.86,1.66-7.36,4.08-10.71,6.62-4.97,3.78-9.74,7.8-14.47,11.89-8.65,7.48-16.9,15.37-24.95,23.48-2.26,2.27-2.34,5.34-.33,7.83,1.59,1.97,5.85,2.26,7.65,.91,1.75-1.32,3.33-2.75,4.89-4.29,4.56-4.48,9.3-8.78,13.95-13.18,1.07-1.01,2.02-1.15,3.15-.05,2.03,1.97,4.45,3.55,7.16,4.12,6.03,1.27,11.96,.57,17.34-2.58Z"/><path class="cls-1" d="M38.91,93.02c-1.23-1.35-2.39-2.76-3.65-4.09-.81-.85-1.83-.99-2.71-.15-1.98,1.9-4.16,3.57-6.02,5.6-.82,.9-1.07,1.92-1.16,2.87-.11,3.09,3.6,6.32,6.81,4.16,2.56-1.72,4.69-3.88,6.79-6.08,.69-.72,.64-1.55-.06-2.32Z"/><path class="cls-1" d="M43.16,96.51c-.51-.54-1.27-.93-1.91-.46-1.84,1.34-3.3,3.09-3.66,5.38-.37,2.34,1.98,4.39,4.72,4.42,2.29,.01,3.87-1.26,5.18-2.95,.42-.54,.42-1.12-.08-1.66-1.42-1.57-2.81-3.17-4.25-4.73Z"/><path class="cls-1" d="M31.24,86.53c.55-.61,.49-1.27-.1-1.9-1.32-1.39-2.62-2.81-3.93-4.23-.89-.96-1.79-1.03-2.76-.11-.4,.38-.85,.72-1.27,1.09-1.35,1.17-2.22,2.54-1.52,4.39,.73,1.93,2.74,3.27,5,3.25,1.64-.23,3.28-1.06,4.57-2.5Z"/><path class="cls-1" d="M117.34,34.52c-1.98-5.4-5.21-9.94-9.04-14.12-.25-.27-.49-.54-.9-.41-.4,.12-.51,.47-.56,.83-.04,.3-.02,.61-.05,.91-.45,4.48-1.54,8.8-3.95,12.64-3.04,4.85-6.86,9.04-11.27,12.71-3.58,2.97-7.61,5-12.16,5.82-2.08,.38-4.25,.32-6.37,.46-.37,.02-.77,.02-1.03,.3l21.74,22.54c.16-.1,.32-.22,.49-.38,1.54-1.47,3.14-2.88,4.66-4.37,5.6-5.47,10.95-11.15,15.26-17.73,2.48-3.79,4.48-7.72,4.54-12.89-.3-1.8-.54-4.08-1.36-6.32Z"/><path class="cls-2" d="M94.13,80.57c-4.8-4.8-28.48-29.4-28.48-29.4-.97-.73-1.99-1.4-3.1-1.96-1.02-.51-1.88-.66-2.79,.13-5.41,4.68-10.8,9.37-16.24,14.02-8.15,8.15-17.38,.47-15.37-6.28,.78-2.61,2.09-4.14,4.04-5.94,5.82-5.36,11.63-10.73,17.45-16.1,2.35-2.17,4.72-4.31,7.03-6.52,.69-.66,1.49-1.53,.53-2.49-2.93-2.95-6.07-5.68-9.58-7.94-2.63-1.69-5.37-3.15-8.3-4.32-1.98-.79-4.05-1.61-6.05-1.8-4.08-.38-8.22-.85-12.29,.84-2.49,1.04-4.93,2.08-7.14,3.61-2.95,2.05-5.29,4.74-7.45,7.56-2.39,3.12-4.33,6.6-5.06,10.44-.9,4.78-1.08,9.6,.93,14.33,.96,2.27,1.96,4.49,3.59,6.27,5.94,8.02,42.61,45.49,48.73,51.49,3.31,3.25,6.52,2.03,8.12,.88s3.04-3.92-.67-7.72c-1.88-1.93-14.19-14.64-14.19-14.64-.42-.44-.41-1.14,.02-1.56s1.14-.41,1.56,.02c0,0,20.74,21.45,22.12,22.83s4.91,2.81,7.14,.59,1.62-5.45-.22-7.29c-1.84-1.84-22.25-22.96-22.25-22.96-.38-.4-.39-.99-.07-1.42,0-.12,.04-.23,.18-.34,.17-.12,.32-.13,.47-.08,.35-.07,.73,.02,1,.29,0,0,23.34,24.16,25.7,26.52,2.36,2.36,6.57,4.3,8.64,2.06,2.06-2.24,1.73-5.55-1.41-8.69-3.14-3.14-26.02-26.85-26.02-26.85-.42-.44-.41-1.14,.02-1.56s1.14-.41,1.56,.02c0,0,15.59,16.21,19.35,19.97,6.27,6.27,9.72,4.1,10.61,3.21s2.52-4.62-2.14-9.28Z"/></g></g></svg>