<?xml version="1.0" encoding="utf-8"?>
<!-- Generator: Adobe Illustrator 26.5.0, SVG Export Plug-In . SVG Version: 6.00 Build 0)  -->
<svg version="1.1" id="Capa_1" xmlns="http://www.w3.org/2000/svg" xmlns:xlink="http://www.w3.org/1999/xlink" x="0px" y="0px"
	 viewBox="0 0 750 500" style="enable-background:new 0 0 750 500;" xml:space="preserve">
<style type="text/css">
	.st0{opacity:0.2;}
	.st1{clip-path:url(#SVGID_00000104694513170915049430000004630716518328784790_);}
	.st2{fill:none;stroke:#FFFFFF;stroke-miterlimit:10;}
	.st3{fill:none;stroke:#F9F9F9;stroke-miterlimit:10;}
	.st4{fill:none;stroke:#F4F4F4;stroke-miterlimit:10;}
	.st5{fill:none;stroke:#EEEEEE;stroke-miterlimit:10;}
	.st6{fill:none;stroke:#E9E9E9;stroke-miterlimit:10;}
	.st7{fill:none;stroke:#E3E3E3;stroke-miterlimit:10;}
	.st8{fill:none;stroke:#DEDEDE;stroke-miterlimit:10;}
	.st9{fill:none;stroke:#D8D8D8;stroke-miterlimit:10;}
	.st10{fill:none;stroke:#D2D2D2;stroke-miterlimit:10;}
	.st11{fill:none;stroke:#CDCDCD;stroke-miterlimit:10;}
	.st12{fill:none;stroke:#C7C7C7;stroke-miterlimit:10;}
	.st13{fill:none;stroke:#C2C2C2;stroke-miterlimit:10;}
	.st14{fill:none;stroke:#BCBCBC;stroke-miterlimit:10;}
	.st15{fill:none;stroke:#B7B7B7;stroke-miterlimit:10;}
	.st16{fill:none;stroke:#B1B1B1;stroke-miterlimit:10;}
	.st17{fill:none;stroke:#ABABAB;stroke-miterlimit:10;}
	.st18{fill:none;stroke:#A6A6A6;stroke-miterlimit:10;}
	.st19{fill:none;stroke:#A0A0A0;stroke-miterlimit:10;}
	.st20{fill:none;stroke:#9B9B9B;stroke-miterlimit:10;}
	.st21{fill:none;stroke:#959595;stroke-miterlimit:10;}
	.st22{fill:none;stroke:#909090;stroke-miterlimit:10;}
	.st23{fill:none;stroke:#8A8A8A;stroke-miterlimit:10;}
	.st24{fill:none;stroke:#FBFBFB;stroke-miterlimit:10;}
	.st25{fill:none;stroke:#F6F6F6;stroke-miterlimit:10;}
	.st26{fill:none;stroke:#F2F2F2;stroke-miterlimit:10;}
	.st27{fill:none;stroke:#E5E5E5;stroke-miterlimit:10;}
	.st28{fill:none;stroke:#E1E1E1;stroke-miterlimit:10;}
	.st29{fill:none;stroke:#DCDCDC;stroke-miterlimit:10;}
	.st30{fill:none;stroke:#D4D4D4;stroke-miterlimit:10;}
	.st31{fill:none;stroke:#CFCFCF;stroke-miterlimit:10;}
	.st32{fill:none;stroke:#CBCBCB;stroke-miterlimit:10;}
	.st33{fill:none;stroke:#BEBEBE;stroke-miterlimit:10;}
	.st34{fill:none;stroke:#BABABA;stroke-miterlimit:10;}
	.st35{fill:none;stroke:#B5B5B5;stroke-miterlimit:10;}
	.st36{fill:none;stroke:#ADADAD;stroke-miterlimit:10;}
	.st37{fill:none;stroke:#A8A8A8;stroke-miterlimit:10;}
	.st38{fill:none;stroke:#A4A4A4;stroke-miterlimit:10;}
</style>
<g class="st0">
	<g id="Capa_2_00000016064897093799794360000017668967704687204515_">
		<g id="OBJECTS">
			<g>
				<defs>
					<rect id="SVGID_1_" width="750" height="500"/>
				</defs>
				<clipPath id="SVGID_00000183224336609302906800000012960171322627488672_">
					<use xlink:href="#SVGID_1_"  style="overflow:visible;"/>
				</clipPath>
				<g style="clip-path:url(#SVGID_00000183224336609302906800000012960171322627488672_);">
					<g>
						<g>
							<path class="st2" d="M426.7-52.3C420.7-26.4,413.1-1,404,24c-4,11.1-8.5,22.3-16.3,31.2c-19.9,22.6-54.8,23.4-84.6,18.4
								c-27.4-4.5-54.3-12.3-79.9-23.2c-25.3-10.8-49.9-24.6-77-29.2c-27.2-4.6-58.7,2.8-73.4,26.1c-8.7,13.9-10.1,31.4-6.7,47.5
								c3.4,16,11.2,30.8,19.8,44.7c9.9,15.9,21.4,32.1,22.9,50.8c1.5,19.4-9.2,39.1-26.2,48.5c-24.2,13.3-53.9,4.9-81.1,0
								c-34.5-6.3-71.6-6.2-103.1,9.1c-31.5,15.4-55.9,48.8-52.7,83.8"/>
							<path class="st3" d="M420.6-57.5c-5.9,25.3-13.3,50.2-22.3,74.5c-4,10.8-8.4,21.8-16,30.4c-19.4,22.2-53.1,23.4-82.1,19.2
								c-6.9-1-13.7-2.2-20.5-3.6c-19.6-4.1-38.8-9.9-57.3-17.4c-24.8-10-48.8-23-75.3-27.2c-26.5-4.2-56.5,3.5-71.9,25.1
								c-5.8,8.2-9.8,17-11.5,26.4c-1.2,6.5-1.4,13.2-0.7,19.8c0.3,3.1,0.8,6.1,1.4,9.2c2.7,12.2,8.3,24.2,14.5,35.6
								c0.6,1.1,1.2,2.2,1.9,3.4c9.7,17.5,19.9,35.4,20.5,54.9s-9.4,38-26,47.2c-23.6,13.1-52.4,5.6-78.7,1.4
								c-2.1-0.3-4.2-0.6-6.2-0.9c-31.6-4.2-64.6-2.5-92.7,12.1c-30,15.5-52.9,48.2-49.3,82.2"/>
							<path class="st4" d="M414.5-62.8c-5.7,24.7-13.1,49-21.9,72.7c-3.9,10.5-8.3,21.2-15.7,29.7c-18.9,21.7-51.5,23.5-79.6,19.9
								c-6.7-0.8-13.3-1.9-19.9-3.1c-19-3.6-37.8-8.9-55.9-15.7c-24.2-9.2-47.7-21.3-73.6-25.1c-25.9-3.8-54.4,4.1-70.4,24.2
								c-6.5,8.1-11.8,16.1-14.6,25.3c-1.9,6.3-3,12.9-3,19.8c0,3.1,0.2,6.3,0.6,9.6c1.7,12.9,7.3,26,13.4,38.4
								c0.6,1.2,1.2,2.4,1.8,3.7c9.4,19,18.4,38.6,18,59c-0.3,18.2-9.6,36.8-25.8,45.8c-23,12.9-50.9,6.2-76.3,2.8
								c-2-0.3-4-0.5-6-0.7c-30.5-3.3-62.1-0.8-88.8,13.9c-28.5,15.7-50,47.6-46,80.6"/>
							<path class="st5" d="M408.3-68c-5.6,24.1-12.8,47.8-21.5,71c-3.9,10.3-8.2,20.7-15.4,29c-18.4,21.2-49.9,23.5-77.2,20.7
								c-6.5-0.7-12.9-1.5-19.4-2.6c-18.5-3.1-36.8-7.8-54.4-14.1c-23.6-8.4-46.6-19.6-71.9-23.1c-25.3-3.4-52.4,4.7-69,23.2
								c-7.2,8.1-13.8,15.2-17.8,24.2C59.1,66.4,57.2,73,56.4,80c-0.3,3.2-0.5,6.5-0.3,9.9c0.7,13.6,6.3,27.8,12.2,41.2
								c0.6,1.3,1.2,2.6,1.8,4c9.2,20.6,17,41.7,15.6,63.2c-1.1,17.6-9.9,35.6-25.6,44.5c-22.3,12.7-49.4,6.9-73.9,4.2
								c-1.9-0.2-3.9-0.4-5.8-0.6c-29.4-2.4-59.6,0.9-84.9,15.7c-27,15.8-47,47-42.6,79"/>
							<path class="st6" d="M402.2-73.2c-5.4,23.5-12.5,46.7-21.1,69.2C377.3,6,373,16.1,366,24.2c-17.9,20.8-48.2,23.5-74.7,21.4
								c-6.3-0.5-12.6-1.2-18.8-2.1c-18-2.6-35.7-6.7-53-12.4c-23-7.6-45.5-18-70.2-21c-24.7-3.1-50.7,5.3-67.5,22.3
								c-8,8-15.8,14.4-21,23c-3.5,5.9-6.3,12.5-7.7,19.7c-0.7,3.3-1.1,6.7-1.2,10.3c-0.3,14.3,5.3,29.6,11.1,44
								c0.6,1.4,1.2,2.8,1.7,4.3c9,22.1,15.6,44.8,13.2,67.3c-1.8,17-10.1,34.4-25.4,43.2c-21.7,12.5-47.9,7.5-71.5,5.7
								c-1.9-0.1-3.7-0.3-5.6-0.4c-28.3-1.5-57.1,2.6-80.9,17.5c-25.5,15.9-44.1,46.5-39.2,77.4"/>
							<path class="st7" d="M396.1-78.4c-5.3,23-12.2,45.5-20.7,67.4c-3.8,9.7-8,19.5-14.8,27.5c-17.4,20.3-46.6,23.6-72.2,22.2
								c-6.1-0.3-12.2-0.9-18.2-1.6c-17.4-2.1-34.7-5.7-51.5-10.7c-22.4-6.8-44.4-16.3-68.4-19c-24-2.7-49,5.7-66.1,21.3
								c-8.8,8-17.8,13.5-24.1,21.9c-4.3,5.7-7.9,12.3-10,19.7c-1,3.4-1.7,6.9-2,10.7c-1.3,15,4.2,31.4,10,46.8
								c0.6,1.5,1.1,3,1.7,4.5c8.8,23.7,14.2,47.9,10.7,71.5c-2.4,16.4-10.3,33.2-25.2,41.9C24,257.9-1.3,253.7-24,252.7
								c-1.8-0.1-3.6-0.1-5.4-0.2c-27.2-0.6-54.6,4.3-77,19.4c-23.9,16.1-41.1,45.9-35.9,75.9"/>
							<path class="st8" d="M390-83.7C384.9-61.3,378-39.3,369.6-18c-3.7,9.5-7.9,19-14.5,26.8c-16.9,19.8-44.9,23.6-69.8,22.9
								c-5.9-0.2-11.8-0.5-17.7-1.1C250.8,29,234,26,217.7,21.5c-21.9-6-43.3-14.6-66.7-16.9c-23.4-2.3-47.5,6.1-64.6,20.4
								C76.7,33,66.4,37.6,59,45.7c-5.1,5.5-9.5,12.1-12.4,19.6c-1.3,3.5-2.3,7.2-2.9,11.1c-2.2,15.7,3.2,33.2,8.8,49.5
								c0.6,1.6,1.1,3.2,1.7,4.8c8.5,25.2,12.9,50.9,8.3,75.6c-2.9,15.8-10.6,32.1-25,40.6c-20.5,12.1-44.9,8.8-66.8,8.5
								c-1.7,0-3.5,0-5.2,0c-26.1,0.4-52.1,6-73.1,21.2c-22.4,16.2-38.1,45.3-32.5,74.3"/>
							<path class="st9" d="M383.9-88.9c-5,21.8-11.6,43.2-19.9,63.9c-3.7,9.2-7.8,18.4-14.2,26c-16.3,19.4-43.3,23.7-67.3,23.6
								c-5.7,0-11.4-0.2-17.1-0.5c-16.4-1-32.7-3.5-48.6-7.4c-21.3-5.2-42.2-12.9-65-14.9c-22.8-2-48.6,3.6-63.2,19.4
								c-11.8,6-21.9,11.8-30.5,19.6c-5.9,5.3-11.1,11.8-14.7,19.6c-1.6,3.5-2.9,7.4-3.8,11.5c-3.2,16.4,2.2,35.1,7.7,52.3
								c0.5,1.7,1.1,3.4,1.6,5.1c8.3,26.8,11.6,54,5.8,79.8C51.4,224.2,44,240,30,248.4c-19.8,12-43.4,9.4-64.4,9.9
								c-1.7,0-3.3,0.1-5,0.2c-25.1,1.3-49.6,7.6-69.2,23c-20.9,16.3-35.2,44.7-29.1,72.7"/>
							<path class="st10" d="M377.7-94.1c-4.8,21.2-11.4,42-19.5,62.1c-3.6,8.9-7.7,17.9-13.9,25.3c-15.8,18.9-41.7,23.7-64.8,24.4
								c-5.5,0.2-11,0.1-16.5,0c-15.9-0.5-31.7-2.5-47.2-5.8C195.1,7.5,174.7,0.6,152.5-1c-22.2-1.6-47.2,3.7-61.7,18.5
								C78.1,23.2,66.9,28.4,57.2,36c-6.7,5.2-12.8,11.6-17,19.5c-2,3.6-3.5,7.6-4.6,11.9c-4.2,17.1,1.2,36.8,6.6,55.1
								c0.5,1.8,1.1,3.6,1.6,5.4c8.1,28.3,10.5,57,3.4,83.9c-3.8,14.5-11.1,29.7-24.6,37.9c-19.2,11.8-41.9,10.1-62,11.4
								c-1.6,0.1-3.2,0.2-4.8,0.4c-24,2.2-47.1,9.3-65.3,24.8c-19.4,16.5-32.2,44.1-25.8,71.1"/>
							<path class="st11" d="M371.6-99.4C367-78.7,360.5-58.5,352.5-39c-3.6,8.7-7.6,17.3-13.6,24.6c-15.3,18.4-40,23.8-62.4,25.1
								c-5.3,0.3-10.6,0.5-16,0.5c-15.3,0-30.6-1.4-45.7-4.1c-20.1-3.6-40-9.6-61.6-10.8C131.7-4.9,107.5,0.1,93,13.8
								c-13.6,5.3-25.9,10-36.8,17.3c-7.4,5-14.4,11.4-19.4,19.5c-2.3,3.7-4.2,7.8-5.5,12.3c-5.2,17.8,0.2,38.7,5.4,57.9
								c0.5,1.9,1,3.8,1.5,5.7c7.9,29.9,9.3,60,1,88.1C35.2,228.4,28,243,15,251.1c-18.6,11.6-40.4,10.7-59.6,12.8
								c-1.5,0.2-3,0.3-4.5,0.5c-22.9,3.1-44.6,11-61.3,26.6c-17.9,16.6-29.2,43.5-22.4,69.5"/>
							<path class="st12" d="M365.5-104.6C361-84.5,354.7-64.9,346.7-46c-3.5,8.4-7.5,16.8-13.3,23.8c-14.8,18-38.4,23.8-59.9,25.9
								c-5.1,0.5-10.2,0.8-15.4,1c-14.8,0.5-29.6-0.3-44.3-2.4C194.4-0.6,175-5.7,154-6.5c-20.9-0.8-44.3,4-58.8,16.6
								c-14.6,5-27.9,9.1-39.9,16.2c-8.2,4.8-16,11.2-21.7,19.4c-2.6,3.8-4.8,8-6.4,12.7c-6.2,18.5-0.8,40.5,4.3,60.7
								c0.5,2,1,4,1.5,6c7.6,31.4,8.3,63.1-1.5,92.2c-4.4,13.2-11.6,27.3-24.1,35.3c-18,11.4-38.9,11.4-57.2,14.2
								c-1.5,0.2-2.9,0.5-4.3,0.7c-21.8,4-42.1,12.7-57.4,28.5c-16.4,16.8-26.3,42.9-19.1,68"/>
							<path class="st13" d="M359.4-109.8C355-90.3,348.8-71.3,341-53c-3.5,8.1-7.4,16.2-13,23.1c-14.3,17.5-36.7,23.9-57.4,26.6
								c-4.9,0.7-9.9,1.2-14.8,1.5c-14.3,1-28.6,0.7-42.8-0.8c-18.9-2-37.9-6.2-58.2-6.7c-20.3-0.5-42.8,4.1-57.3,15.6
								c-15.5,4.7-29.9,8.3-43.1,15c-9,4.6-17.7,11-24,19.4c-2.9,3.9-5.4,8.2-7.2,13.1c-7.1,19.2-1.9,42.3,3.2,63.5
								c0.5,2.1,1,4.2,1.5,6.3c7.4,33,7.3,66.1-3.9,96.3c-4.7,12.6-11.8,26.1-24,34c-17.3,11.2-37.4,12-54.8,15.6
								c-1.4,0.3-2.8,0.6-4.1,0.9c-20.7,4.9-39.6,14.4-53.5,30.3c-14.8,16.9-23.3,42.3-15.7,66.4"/>
							<path class="st14" d="M353.2-115.1c-4.2,18.9-10.2,37.3-18,55c-3.4,7.9-7.2,15.7-12.6,22.4c-13.8,17-35.1,23.9-55,27.4
								c-4.7,0.8-9.5,1.5-14.2,2c-13.7,1.5-27.6,1.8-41.4,0.9c-18.4-1.2-36.8-4.6-56.5-4.6c-19.7-0.1-41.4,4.2-55.9,14.7
								C83.2,7,67.7,10,53.4,16.5c-9.8,4.4-19.3,10.7-26.4,19.4c-3.3,4-6,8.4-8.1,13.5c-8.1,19.9-2.9,44.1,2,66.2
								c0.5,2.2,1,4.4,1.4,6.6c7.2,34.6,6.5,69.3-6.3,100.5c-4.9,12.1-12,24.9-23.8,32.7c-16.7,11-35.9,12.6-52.5,17
								c-1.3,0.4-2.6,0.7-3.9,1.1c-19.6,5.9-37.1,16.1-49.6,32.1c-13.3,17-20.3,41.7-12.3,64.8"/>
							<path class="st15" d="M347.1-120.3c-4,18.3-10,36.2-17.6,53.2c-3.4,7.6-7.1,15.1-12.4,21.6c-13.3,16.6-33.5,24-52.5,28.1
								c-4.5,1-9.1,1.8-13.7,2.5c-13.2,2-26.6,2.8-39.9,2.6c-17.8-0.4-35.7-2.9-54.8-2.6c-19,0.3-38.6,6.9-54.4,13.7
								S68,5.4,52.5,11.6c-10.6,4.2-20.9,10.5-28.7,19.3c-3.6,4-6.6,8.7-8.9,13.8c-9.1,20.6-3.9,45.9,0.9,69
								c0.5,2.3,0.9,4.6,1.4,6.9c7,36.1,5.7,72.4-8.8,104.6c-5.2,11.5-12.3,23.8-23.5,31.3c-16.1,10.8-34.4,13.3-50.1,18.5
								c-1.2,0.4-2.5,0.8-3.7,1.3c-18.6,6.8-34.6,17.8-45.7,33.9c-11.8,17.2-17.4,41.1-9,63.2"/>
							<path class="st16" d="M341-125.5c-3.9,17.8-9.7,35-17.2,51.5c-3.3,7.3-7,14.6-12,20.9c-12.8,16.1-31.8,24-50,28.9
								c-4.3,1.2-8.7,2.2-13.1,3.1c-12.7,2.5-25.6,3.9-38.5,4.2c-17.2,0.4-34.6-1.2-53.1-0.5c-18.4,0.6-37.4,6.9-53,12.8
								c-17.5,6.6-36,5.7-52.6,11.6C40.2,10.8,29,17,20.6,26c-3.9,4.1-7.3,8.9-9.8,14.2c-10.1,21.3-4.9,47.7-0.2,71.8
								c0.5,2.4,0.9,4.8,1.3,7.2c6.7,37.7,5,75.7-11.2,108.8c-5.4,10.9-12.5,22.6-23.3,30C-38.2,268.7-55.6,272-70.4,278
								c-1.2,0.5-2.3,1-3.5,1.5c-17.5,7.7-32.1,19.5-41.7,35.8c-10.3,17.3-14.4,40.5-5.6,61.6"/>
							<path class="st17" d="M334.9-130.7c-3.7,17.2-9.4,33.8-16.8,49.7c-3.3,7.1-6.9,14-11.7,20.2c-12.2,15.6-30.2,24-47.6,29.6
								c-4.1,1.3-8.3,2.5-12.5,3.6c-12.1,3-24.6,5-37,5.9c-16.6,1.2-33.5,0.5-51.4,1.5c-17.8,1-36.2,6.7-51.5,11.8
								c-18.6,6.1-38,4.8-55.8,10.4C38.5,5.8,26.5,12,17.3,21.1c-4.2,4.2-7.9,9.1-10.7,14.6c-11.1,22-5.9,49.5-1.4,74.6
								c0.4,2.5,0.9,5,1.3,7.5c6.5,39.2,4.4,79-13.6,112.9c-5.5,10.4-12.8,21.4-23.1,28.7c-14.8,10.5-31.3,14.6-45.3,21.3
								c-1.1,0.5-2.2,1.1-3.3,1.6c-16.4,8.6-29.6,21.2-37.8,37.6c-8.8,17.4-11.4,40-2.2,60"/>
							<path class="st18" d="M328.8-136c-3.5,16.6-9.1,32.7-16.4,47.9c-3.2,6.8-6.8,13.5-11.4,19.4c-11.7,15.2-28.5,24.1-45.1,30.3
								c-3.9,1.5-7.9,2.9-12,4.1c-11.6,3.6-23.5,6-35.6,7.5c-16.1,2-32.4,2.1-49.6,3.6c-17.2,1.4-35,6.5-50.1,10.8
								C89-6.7,68.6-8.3,49.7-3C36.8,0.7,23.9,6.9,14,16.2c-4.6,4.3-8.5,9.3-11.6,15C-9.6,54-4.5,82.5,0,108.6
								c0.4,2.6,0.9,5.2,1.3,7.8c6.3,40.8,4,82.4-16.1,117.1c-5.7,9.9-13,20.2-22.9,27.4C-52,271.1-67.6,276-80.7,283.5
								c-1,0.6-2.1,1.2-3.1,1.8c-15.3,9.5-27.1,22.9-33.9,39.4c-7.2,17.6-8.5,39.4,1.1,58.5"/>
							<path class="st19" d="M322.6-141.2c-3.4,16-8.8,31.5-16,46.1c-3.2,6.5-6.7,12.9-11.1,18.7c-11.2,14.7-26.9,24.1-42.6,31.1
								c-3.8,1.7-7.6,3.2-11.4,4.6c-11.1,4.1-22.5,7.1-34.1,9.2c-15.5,2.8-31.3,3.8-47.9,5.6c-16.5,1.8-33.7,6.3-48.6,9.9
								c-20.8,5-42,3.1-62.1,8.2C35-4.3,21.4,1.8,10.8,11.3c-4.9,4.4-9.1,9.5-12.4,15.4c-13,23.4-8,53.1-3.6,80.2
								c0.4,2.7,0.8,5.4,1.2,8.1c6.1,42.3,3.6,85.9-18.5,121.2c-5.9,9.4-13.2,19-22.7,26.1c-13.6,10.1-28.3,15.8-40.6,24.1
								c-1,0.6-1.9,1.3-2.8,2c-14.2,10.4-24.6,24.6-30,41.2c-5.7,17.7-5.5,38.8,4.5,56.9"/>
							<path class="st20" d="M316.5-146.4c-3.2,15.4-8.6,30.3-15.6,44.4c-3.1,6.2-6.6,12.3-10.8,17.9
								c-10.7,14.2-25.2,24.2-40.2,31.8c-3.6,1.8-7.2,3.5-10.8,5.1c-10.6,4.6-21.5,8.2-32.7,10.9c-14.9,3.6-30.2,5.5-46.2,7.6
								c-15.9,2.1-32.5,6.1-47.2,8.9c-21.8,4.2-44,2.2-65.2,7C33.3-9.4,18.8-3.3,7.5,6.4c-5.2,4.5-9.8,9.7-13.3,15.8
								c-14,24.1-9,54.9-4.8,82.9c0.4,2.8,0.8,5.6,1.2,8.4c5.8,43.9,3.3,89.5-21,125.4c-6,8.9-13.5,17.8-22.5,24.8
								c-12.9,9.9-26.8,16.5-38.2,25.5c-0.9,0.7-1.8,1.5-2.6,2.2c-13.1,11.3-22.1,26.3-26,43c-4.2,17.8-2.5,38.2,7.9,55.3"/>
							<path class="st21" d="M310.4-151.6c-3.1,14.9-8.3,29.2-15.2,42.6c-3.1,6-6.5,11.8-10.5,17.2c-10.2,13.8-23.6,24.2-37.7,32.6
								c-3.4,2-6.8,3.9-10.3,5.6c-10,5.1-20.5,9.2-31.2,12.5c-14.3,4.4-29.1,7.2-44.5,9.7c-15.3,2.5-31.1,5.8-45.7,8
								c-22.9,3.4-46.1,1.4-68.4,5.9C31.6-14.5,16.2-8.4,4.2,1.5C-1.3,6-6.1,11.4-9.9,17.7c-15,24.8-10,56.7-5.9,85.7
								c0.4,2.9,0.8,5.8,1.1,8.7c5.6,45.4,3.2,93.2-23.4,129.5c-6.2,8.5-13.7,16.6-22.3,23.4c-12.3,9.7-25.3,17.1-35.8,27
								c-0.8,0.8-1.6,1.6-2.4,2.4c-12,12.2-19.6,28-22.1,44.9c-2.7,18,0.4,37.6,11.2,53.7"/>
							<path class="st22" d="M304.3-156.9c-2.9,14.3-8,28-14.8,40.8c-3,5.7-6.4,11.2-10.2,16.5c-9.7,13.3-22,24.3-35.2,33.3
								c-3.2,2.2-6.4,4.2-9.7,6.2c-9.5,5.6-19.5,10.3-29.8,14.2c-13.7,5.2-28,8.8-42.8,11.8c-14.7,2.9-29.8,5.5-44.2,7
								c-23.9,2.5-48.1,0.5-71.6,4.7c-16.1,2.9-32.3,8.9-45,19C-4.9,1.2-10,6.7-14,13.1c-16,25.5-11,58.5-7,88.5
								c0.4,3,0.8,5.9,1.1,8.9c5.4,47,3.1,97.1-25.8,133.6c-6.4,8-13.9,15.5-22.1,22.1c-11.7,9.5-23.8,17.8-33.4,28.4
								c-0.8,0.8-1.5,1.7-2.2,2.6c-10.9,13.2-17.1,29.6-18.2,46.7c-1.2,18.1,3.4,37,14.6,52.1"/>
							<path class="st23" d="M298.1-162.1c-7.9,38.9-33.4,73.2-66.2,95.5s-72.5,33.4-112.2,35.7c-24.9,1.5-50.1-0.4-74.7,3.6
								S-4.6-12.3-18.2,8.6c-17,26.2-12,60.3-8.2,91.3c6.4,51,6.3,108.1-27.2,147c-16.7,19.4-40.2,32.4-54.9,53.4
								c-20.4,29-18.8,71.6,3.7,99.1"/>
						</g>
						<g>
							<path class="st2" d="M89.9,505.8c15.6-21.5,32.4-42.1,50.4-61.6c8-8.7,16.5-17.3,27.1-22.5c27.1-13.2,59.6-0.4,85.1,15.6
								c23.5,14.8,45.3,32.3,64.7,52.2c19.2,19.7,36.5,42,59.8,56.7c23.3,14.7,55.2,20.1,77.8,4.3c13.4-9.4,21.5-25.1,24.5-41.2
								c3-16.1,1.5-32.7-1.1-48.9c-3-18.5-7.4-37.8-1.5-55.6c6-18.5,23.6-32.6,42.9-34.6c27.5-2.9,51.6,16.2,74.8,31.3
								c29.4,19.1,63.6,33.4,98.6,31.4c35-2,70.4-23.4,80.9-56.9"/>
							<path class="st3" d="M93.6,513c15.3-21.2,31.9-41.4,49.7-60.4c7.9-8.5,16.3-16.9,26.7-22c20.9-10.2,45.1-5,66.7,5
								c5.9,2.7,11.6,5.8,17,9.1c23.3,14,44.8,30.7,64.2,49.8c19.1,18.9,36.3,40.4,59.4,54.6c12.9,7.9,28.2,13.4,43.3,14.3
								c13.1,0.8,26.2-1.8,37.1-9.2c2-1.3,3.8-2.8,5.5-4.4c10.7-9.7,17.2-23.7,20-38c0.9-4.6,1.5-9.2,1.8-13.9
								c0.8-12.1-0.1-24.4-1.5-36.4c-2.2-19-5.1-38.5,1.5-56.3s23.3-31.4,42.2-33.5c26.8-2.9,50.5,15.1,73.1,29.1
								c1.8,1.1,3.6,2.2,5.4,3.2c27.5,16.1,58.6,27.2,90.2,24.7c33.7-2.7,67.5-24,77.2-56.8"/>
							<path class="st4" d="M97.2,520.2c15-20.8,31.4-40.6,49-59.2c7.8-8.3,16.1-16.4,26.4-21.4c20.6-10,44.2-5.4,65.5,4
								c5.8,2.5,11.4,5.5,16.8,8.5c23,13.1,44.4,29.1,63.6,47.3c19.1,18,36.2,38.8,59,52.5c13.4,8,29.1,13.7,44.7,14.9
								c13.5,1,27-1.4,38.3-8.9c2-1.3,3.9-2.8,5.8-4.4c11.1-9.9,17.8-24.3,20.9-39c1-4.7,1.6-9.5,2-14.3c1-12.5,0.5-25.1-0.4-37.4
								c-1.4-19.5-2.9-39.2,4.5-56.9c7-16.9,23.1-30.2,41.5-32.3c26.2-3,49.3,13.9,71.5,26.9c1.7,1,3.5,2,5.3,3
								c26.8,14.8,56.9,24.7,87.3,21.5c32.3-3.4,64.5-24.6,73.5-56.6"/>
							<path class="st5" d="M100.8,527.3c14.7-20.5,30.9-39.8,48.3-58c7.8-8,15.9-16,26-20.9c20.2-9.9,43.4-5.7,64.3,3
								c5.7,2.4,11.3,5.1,16.6,8c22.7,12.3,43.9,27.4,63.1,44.8c19,17.2,36,37.2,58.6,50.4c13.9,8.1,30,14,46,15.5
								c13.9,1.2,27.9-1.1,39.6-8.6c2.1-1.3,4.1-2.8,6-4.5c11.6-10.1,18.4-24.9,21.7-40.1c1-4.9,1.8-9.8,2.2-14.7
								c1.2-12.8,1-25.8,0.6-38.4c-0.6-20-0.6-39.8,7.5-57.6c7.4-16.1,22.8-29,40.8-31.2c25.5-3.1,48.2,12.7,69.8,24.6
								c1.7,0.9,3.4,1.9,5.2,2.8c26.2,13.5,55.3,22.2,84.3,18.3c31-4.1,61.5-25.2,69.8-56.5"/>
							<path class="st6" d="M104.4,534.5c14.4-20.1,30.4-39.1,47.6-56.7c7.7-7.9,15.8-15.6,25.6-20.4c19.8-9.7,42.5-6,63.1,2
								c5.6,2.2,11.1,4.7,16.3,7.4c22.4,11.5,43.5,25.8,62.5,42.3c18.9,16.4,35.9,35.6,58.2,48.2c14.4,8.2,30.9,14.3,47.4,16
								c14.2,1.5,28.7-0.7,40.8-8.3c2.2-1.4,4.2-2.9,6.2-4.5c12-10.3,19-25.5,22.5-41.2c1.1-5,1.9-10,2.5-15.1
								c1.5-13.1,1.6-26.5,1.7-39.3c0.2-20.5,1.6-40.4,10.5-58.2c7.7-15.3,22.6-27.8,40.1-30c24.9-3.1,47.1,11.6,68.2,22.4
								c1.7,0.9,3.3,1.7,5,2.5c25.5,12.3,53.6,19.7,81.4,15.1c29.6-4.9,58.6-25.8,66.1-56.3"/>
							<path class="st7" d="M108.1,541.7c14.1-19.8,29.9-38.3,46.9-55.5c7.6-7.6,15.6-15.1,25.3-19.9c19.4-9.5,41.6-6.4,61.9,1.1
								c5.5,2,10.9,4.4,16.1,6.8c22.1,10.7,43,24.1,62,39.8c18.8,15.5,35.8,34,57.8,46.1c14.9,8.2,31.8,14.6,48.7,16.6
								c14.6,1.7,29.6-0.3,42.1-8c2.2-1.4,4.4-2.9,6.4-4.6c12.5-10.5,19.6-26.1,23.3-42.2c1.2-5.1,2-10.3,2.7-15.5
								c1.7-13.5,2.2-27.1,2.8-40.3c1-21.1,3.7-41,13.5-58.9c8-14.5,22.4-26.6,39.4-28.9c24.2-3.2,45.9,10.4,66.5,20.2
								c1.6,0.8,3.3,1.5,4.9,2.2c24.9,11,52,17.1,78.5,11.9c28.3-5.6,55.6-26.5,62.4-56.1"/>
							<path class="st8" d="M111.7,548.9c13.8-19.4,29.4-37.6,46.2-54.3c7.5-7.4,15.4-14.7,24.9-19.4c19.1-9.4,40.8-6.7,60.7,0.1
								c5.5,1.8,10.8,4,15.9,6.3c21.9,9.9,42.5,22.5,61.5,37.3c18.7,14.7,35.7,32.3,57.4,44c15.4,8.3,32.7,15,50.1,17.1
								c15,1.9,30.4,0,43.3-7.7c2.3-1.4,4.5-2.9,6.6-4.7c12.9-10.6,20.2-26.7,24.1-43.3c1.2-5.3,2.2-10.6,2.9-15.9
								c1.9-13.8,2.8-27.8,3.9-41.3c1.8-21.6,5.8-41.6,16.5-59.5c8.2-13.8,22.1-25.5,38.7-27.8c23.6-3.3,44.8,9.2,64.9,17.9
								c1.6,0.7,3.2,1.4,4.8,2c24.2,9.8,50.3,14.6,75.6,8.7c27-6.3,52.7-27,58.7-56"/>
							<path class="st9" d="M115.3,556.1c13.6-19.1,28.9-36.8,45.5-53.1c7.4-7.2,15.2-14.3,24.6-18.9c18.7-9.2,39.9-7.1,59.5-0.9
								c5.4,1.7,10.6,3.6,15.6,5.7c21.6,9.1,42.1,20.8,60.9,34.9c18.6,13.9,35.6,30.7,57,41.9c15.9,8.4,33.6,15.3,51.4,17.7
								c15.4,2.1,31.3,0.4,44.6-7.4c2.4-1.4,4.7-3,6.9-4.7c13.4-10.8,20.8-27.3,25-44.3c1.3-5.4,2.3-10.9,3.1-16.3
								c2.1-14.1,3.4-28.5,5-42.3c2.6-22.1,7.9-42.2,19.5-60.1c8.4-13,21.9-24.3,38-26.6c22.9-3.4,43.7,8,63.2,15.7
								c1.5,0.6,3.1,1.2,4.7,1.8c23.6,8.5,48.7,12.1,72.7,5.5c25.6-7,49.7-27.6,55-55.8"/>
							<path class="st10" d="M119,563.3c13.3-18.7,28.4-36.1,44.8-51.9c7.3-7,15-13.9,24.2-18.4c18.3-9,39.1-7.4,58.3-1.9
								c5.3,1.5,10.4,3.2,15.4,5.2c21.3,8.2,41.6,19.2,60.4,32.4c18.6,13.1,35.5,29,56.6,39.8c16.5,8.4,34.5,15.6,52.8,18.3
								c15.7,2.3,32.1,0.7,45.9-7.1c2.5-1.4,4.8-3,7.1-4.8c13.8-11,21.4-28,25.8-45.4c1.4-5.5,2.5-11.1,3.4-16.7
								c2.4-14.5,4-29.2,6.1-43.3c3.4-22.6,10-42.8,22.5-60.8c8.6-12.3,21.7-23.1,37.3-25.5c22.3-3.4,42.5,6.9,61.6,13.5
								c1.5,0.5,3,1,4.5,1.5c23,7.2,47,9.6,69.8,2.3c24.2-7.7,46.7-28.2,51.2-55.6"/>
							<path class="st11" d="M122.6,570.5c13-18.4,27.9-35.3,44.1-50.7c7.2-6.8,14.9-13.4,23.8-17.8c17.9-8.9,38.2-7.7,57.1-2.9
								c5.2,1.3,10.3,2.9,15.2,4.6c21,7.4,41.1,17.6,59.8,29.9c18.5,12.2,35.5,27.3,56.2,37.7c17,8.5,35.4,15.9,54.1,18.8
								c16.1,2.5,33,1.1,47.1-6.8c2.5-1.4,5-3,7.3-4.8c14.3-11.2,22-28.6,26.6-46.5c1.5-5.7,2.6-11.4,3.6-17.1
								c2.6-14.8,4.6-29.9,7.2-44.2c4.2-23.1,12-43.4,25.5-61.4c8.7-11.5,21.4-21.9,36.6-24.4c21.6-3.5,41.4,5.7,59.9,11.2
								c1.5,0.4,2.9,0.9,4.4,1.2c22.3,6,45.4,7,66.9-0.9c22.9-8.4,43.8-28.9,47.5-55.5"/>
							<path class="st12" d="M126.2,577.7c12.7-18,27.4-34.5,43.5-49.4c7.1-6.6,14.7-13,23.5-17.3c17.6-8.7,37.3-8,55.9-3.9
								c5.1,1.1,10.1,2.5,15,4c20.7,6.6,40.7,15.9,59.3,27.4c18.4,11.4,35.4,25.6,55.8,35.6c17.5,8.5,36.2,16.2,55.5,19.4
								c16.5,2.7,33.8,1.4,48.4-6.5c2.6-1.4,5.1-3.1,7.5-4.9c14.7-11.4,22.6-29.2,27.4-47.5c1.5-5.8,2.7-11.7,3.8-17.5
								c2.8-15.1,5.2-30.6,8.3-45.2c5-23.6,14-44.1,28.6-62.1c8.8-10.9,21.2-20.7,35.9-23.2c21-3.6,40.2,4.5,58.3,9
								c1.4,0.4,2.8,0.7,4.3,1c21.7,4.7,43.7,4.5,64-4.1c21.6-9.1,40.8-29.5,43.8-55.3"/>
							<path class="st13" d="M129.9,584.8c12.4-17.7,26.9-33.8,42.8-48.2c7.1-6.4,14.5-12.5,23.1-16.8c17.2-8.5,36.5-8.4,54.7-4.9
								c5,1,10,2.1,14.8,3.5c20.5,5.8,40.2,14.3,58.7,24.9c18.3,10.6,35.3,23.9,55.4,33.5c18,8.6,37.1,16.5,56.8,19.9
								c16.8,2.9,34.7,1.8,49.6-6.2c2.7-1.4,5.3-3.1,7.8-5c15.1-11.6,23.2-29.8,28.3-48.6c1.6-6,2.9-12,4-17.9
								c3-15.5,5.8-31.2,9.3-46.2c5.8-24.1,15.9-44.8,31.6-62.7c8.9-10.2,21-19.5,35.2-22.1c20.3-3.6,39.1,3.4,56.6,6.8
								c1.4,0.3,2.8,0.5,4.2,0.8c21,3.5,42.1,2,61-7.3c20.2-9.9,37.8-30,40.1-55.2"/>
							<path class="st14" d="M133.5,592c12.1-17.3,26.4-33,42.1-47c7-6.2,14.3-12.1,22.7-16.3c16.8-8.3,35.6-8.7,53.5-5.9
								c4.9,0.8,9.8,1.8,14.5,2.9c20.2,5,39.8,12.6,58.2,22.5c18.2,9.7,35.3,22.2,55,31.3c18.6,8.6,38,16.8,58.2,20.5
								c17.2,3.1,35.5,2.2,50.9-5.9c2.8-1.5,5.5-3.1,8-5c15.6-11.8,23.8-30.4,29.1-49.6c1.7-6.1,3-12.2,4.3-18.3
								c3.2-15.8,6.4-31.9,10.4-47.2c6.6-24.6,17.8-45.5,34.6-63.4c8.9-9.5,20.7-18.4,34.5-21c19.7-3.7,38,2.2,55,4.5
								c1.3,0.2,2.7,0.4,4,0.5c20.4,2.2,40.4-0.5,58.1-10.5c18.9-10.6,34.9-30.6,36.4-55"/>
							<path class="st15" d="M137.1,599.2c11.9-17,25.9-32.3,41.4-45.8c6.9-6,14.1-11.7,22.4-15.8c16.4-8.2,34.8-9,52.3-6.9
								c4.8,0.6,9.6,1.4,14.3,2.4c19.9,4.2,39.3,11,57.7,20c18.2,8.9,35.2,20.5,54.6,29.2s38.9,17.2,59.5,21.1
								c17.6,3.3,36.4,2.5,52.1-5.6c2.9-1.5,5.6-3.2,8.2-5.1c16.1-11.9,24.4-31,29.9-50.7c1.7-6.2,3.2-12.5,4.5-18.7
								c3.5-16.1,7-32.6,11.5-48.2c7.5-25.1,19.6-46.2,37.6-64c8.9-8.9,20.5-17.2,33.8-19.8c19-3.8,36.8,1,53.3,2.3
								c1.3,0.1,2.6,0.2,3.9,0.2c19.7,0.9,38.8-3.1,55.2-13.7c17.5-11.3,31.9-31.2,32.7-54.9"/>
							<path class="st16" d="M140.7,606.4c11.6-16.6,25.4-31.5,40.7-44.6c6.8-5.8,14-11.3,22-15.3c16.1-8,33.9-9.4,51.1-7.9
								c4.8,0.4,9.5,1,14.1,1.8c19.6,3.4,38.8,9.3,57.1,17.5c18.1,8.1,35.2,18.8,54.2,27.1c19.6,8.6,39.8,17.5,60.9,21.6
								c17.9,3.5,37.2,2.9,53.4-5.3c2.9-1.5,5.8-3.2,8.4-5.2c16.5-12.1,25-31.7,30.7-51.8c1.8-6.3,3.3-12.8,4.7-19.1
								c3.7-16.5,7.6-33.3,12.6-49.1c8.2-25.6,21.5-47,40.6-64.6c9-8.2,20.2-16,33.1-18.7c18.4-3.9,35.7-0.2,51.7,0.1
								c1.3,0,2.5,0,3.8,0c19.1-0.3,37.1-5.6,52.3-16.9c16.2-12,28.9-31.9,29-54.7"/>
							<path class="st17" d="M144.4,613.6c11.3-16.2,24.9-30.8,40-43.3c6.7-5.6,13.8-10.8,21.6-14.8c15.7-7.8,33.1-9.7,49.9-8.9
								c4.7,0.2,9.3,0.7,13.9,1.2c19.3,2.5,38.4,7.7,56.6,15c18,7.2,35.1,17,53.8,25c20.2,8.6,40.7,17.8,62.2,22.2
								c18.3,3.7,38.1,3.2,54.6-5c3-1.5,5.9-3.2,8.6-5.2c16.9-12.3,25.6-32.3,31.6-52.8c1.9-6.5,3.4-13,4.9-19.5
								c3.9-16.8,8.2-34,13.7-50.1c9-26.2,23.2-47.9,43.6-65.3c9-7.6,20-14.8,32.4-17.5c17.7-3.9,34.5-1.3,50-2.1
								c1.2-0.1,2.4-0.1,3.7-0.2c18.4-1.6,35.5-8.1,49.4-20.1c14.8-12.7,26-32.5,25.2-54.5"/>
							<path class="st18" d="M148,620.8c11-15.9,24.4-30,39.3-42.1c6.6-5.4,13.6-10.4,21.3-14.2c15.3-7.7,32.2-10.1,48.7-9.9
								c4.6,0.1,9.1,0.3,13.6,0.7c19.1,1.7,37.9,6.1,56,12.5c17.9,6.4,35,15.3,53.4,22.9c20.7,8.6,41.6,18.1,63.6,22.7
								c18.7,3.9,39,3.6,55.9-4.7c3.1-1.5,6-3.2,8.9-5.3c17.4-12.5,26.3-32.9,32.4-53.9c1.9-6.6,3.6-13.3,5.2-19.9
								c4.1-17.1,8.8-34.7,14.8-51.1c9.8-26.7,25-48.8,46.6-65.9c9-7.1,19.8-13.6,31.7-16.4c17-4,33.4-2.5,48.4-4.4
								c1.2-0.1,2.4-0.3,3.5-0.5c17.8-2.9,33.8-10.6,46.5-23.2c13.5-13.4,23-33,21.5-54.4"/>
							<path class="st19" d="M151.6,628c10.7-15.5,23.9-29.3,38.6-40.9c6.5-5.2,13.4-10,20.9-13.7c15-7.5,31.3-10.4,47.5-10.9
								c4.5-0.1,9-0.1,13.4,0.1c18.8,0.9,37.5,4.4,55.5,10c17.8,5.6,35,13.6,53,20.8c21.3,8.5,42.5,18.4,64.9,23.3
								c19,4.1,39.8,4,57.2-4.3c3.2-1.5,6.2-3.3,9.1-5.3c17.8-12.7,26.9-33.5,33.2-55c2-6.8,3.7-13.6,5.4-20.3
								c4.4-17.5,9.3-35.3,15.9-52.1c10.7-27.2,26.7-49.8,49.6-66.6c9-6.5,19.5-12.4,31-15.3c16.4-4.1,32.3-3.7,46.7-6.6
								c1.1-0.2,2.3-0.5,3.4-0.8c17.1-4.1,32.2-13.2,43.5-26.5c12.1-14.1,20-33.6,17.8-54.2"/>
							<path class="st20" d="M155.2,635.1c10.4-15.2,23.4-28.5,37.9-39.7c6.4-5,13.2-9.5,20.6-13.2c14.6-7.3,30.5-10.8,46.3-11.8
								c4.4-0.3,8.8-0.4,13.2-0.4c18.5,0.1,37,2.8,55,7.6c17.8,4.7,35,11.8,52.6,18.7c21.9,8.5,43.4,18.8,66.3,23.9
								c19.4,4.3,40.6,4.3,58.4-4c3.2-1.5,6.4-3.3,9.3-5.4c18.3-12.9,27.5-34.1,34-56c2.1-6.9,3.9-13.9,5.6-20.7
								c4.6-17.8,9.9-36,17-53.1c11.5-27.7,28.3-51,52.6-67.2c9-6,19.3-11.2,30.3-14.1c15.8-4.1,31.1-4.8,45.1-8.8
								c1.1-0.3,2.2-0.6,3.3-1c16.5-5.4,30.5-15.7,40.6-29.6c10.8-14.8,17.1-34.2,14.1-54"/>
							<path class="st21" d="M158.9,642.3c10.2-14.8,22.9-27.8,37.2-38.5c6.4-4.8,13.1-9.1,20.2-12.7c14.2-7.2,29.6-11.1,45.1-12.8
								c4.3-0.5,8.6-0.8,13-1c18.2-0.7,36.5,1.1,54.4,5.1c17.7,3.9,34.9,10,52.2,16.6c22.4,8.5,44.3,19.1,67.6,24.4
								c19.8,4.5,41.5,4.7,59.7-3.7c3.3-1.5,6.5-3.3,9.5-5.5c18.7-13.1,28.1-34.7,34.8-57.1c2.1-7,4-14.1,5.8-21.1
								c4.8-18.1,10.5-36.7,18-54c12.3-28.2,30-52.1,55.6-67.8c9-5.5,19.1-10.1,29.6-13c15.1-4.2,30-6,43.4-11.1
								c1.1-0.4,2.1-0.8,3.2-1.3c15.8-6.6,28.9-18.2,37.7-32.8c9.4-15.5,14.1-34.9,10.4-53.9"/>
							<path class="st22" d="M162.5,649.5c9.9-14.5,22.4-27,36.5-37.3c6.3-4.5,12.9-8.7,19.8-12.2c13.8-7,28.8-11.5,43.9-13.8
								c4.2-0.7,8.5-1.2,12.7-1.5c17.9-1.5,36.1-0.5,53.9,2.6c17.6,3.1,34.9,8.3,51.8,14.5c23,8.4,45.2,19.4,69,25
								c20.1,4.7,42.4,5,60.9-3.4c3.4-1.5,6.7-3.4,9.8-5.5c19.2-13.2,28.7-35.3,35.7-58.1c2.2-7.2,4.1-14.4,6.1-21.5
								c5-18.5,11.1-37.4,19.1-55c13.1-28.7,31.6-53.5,58.6-68.5c9-5,18.8-8.9,29-11.9c14.5-4.3,28.8-7.2,41.8-13.3c1-0.5,2-1,3-1.5
								c15.2-7.9,27.2-20.7,34.8-36c8.1-16.3,11.2-35.5,6.7-53.7"/>
							<path class="st23" d="M166.1,656.7c22.3-32.9,59-54.6,97.9-62.5s79.8-2.8,117.3,10.4c23.5,8.3,46.1,19.7,70.3,25.5
								c24.3,5.8,51.6,5.4,72.2-8.7c25.8-17.7,34.4-51,42.8-81.1c13.8-49.5,36-102.1,81.9-125.1c22.9-11.5,49.6-14.4,71.3-28
								c30-18.9,45-58.8,34.9-92.8"/>
						</g>
						<g>
							<path class="st23" d="M-264.2-61.2c19.2-18.4,39.4-35.6,60.7-51.5c9.4-7.1,19.3-14.1,30.7-17.2c29.1-8.1,58.7,10.4,80.9,30.7
								c20.5,18.8,38.7,40,54.2,63c15.4,22.9,28.3,47.9,48.6,66.5s50.7,29.8,75.7,18.2c14.9-6.9,25.6-20.8,31.5-36.1
								s7.4-31.9,7.8-48.3c0.4-18.8-0.4-38.5,8.5-55c9.3-17.1,29.1-27.8,48.4-26.3c27.5,2.1,47.9,25.3,67.9,44.3
								c25.5,24.1,56.5,44.3,91.4,48.7s73.5-10.4,89.9-41.4"/>
							<path class="st22" d="M-262-53.4c18.8-18.1,38.8-34.9,59.8-50.4c9.3-6.9,19.1-13.7,30.2-16.8c22.4-6.3,45.2,3.2,64.7,17
								c5.3,3.8,10.4,7.8,15.1,12C-71.8-73.8-53.6-53.4-38-31.2c15.4,22,28.4,46.3,48.5,64.4c11.3,10.1,25.4,18.2,40,21.9
								c12.8,3.2,26.1,3,38.1-2.4c2.2-1,4.2-2.1,6.2-3.3c12.3-7.6,21.2-20.2,26.5-33.7c1.7-4.4,3.1-8.8,4.3-13.3
								c3-11.8,4.3-24,5.1-36.1c1.3-19.1,1.9-38.8,11.6-55.1s28.6-26.7,47.5-25.3c26.9,1.9,46.9,23.9,66.7,41.8
								c1.6,1.4,3.1,2.8,4.7,4.2c24.1,20.8,52.7,37.3,84.2,40.5c33.6,3.4,70.7-11.5,86.2-41.9"/>
							<path class="st21" d="M-259.7-45.7c18.5-17.8,38.2-34.3,58.9-49.4c9.2-6.7,18.8-13.3,29.8-16.3c22-6.2,44.4,2.7,63.7,15.8
								c5.2,3.6,10.3,7.4,15,11.4c20.2,17.1,38.4,36.6,54,58C-22.8-5.1-9.7,18.5,10.2,36C22,46.3,36.4,54.7,51.5,58.7
								c13.1,3.5,26.8,3.5,39.3-1.9c2.2-1,4.4-2.1,6.4-3.3c12.7-7.7,21.9-20.7,27.5-34.6c1.8-4.5,3.3-9.1,4.5-13.7
								c3.2-12.1,5-24.6,6.3-36.8c2.2-19.5,4.3-39,14.7-55.2s28.2-25.5,46.6-24.3c26.3,1.8,46,22.6,65.5,39.3
								c1.5,1.3,3.1,2.6,4.6,3.9c23.7,19.4,51.5,34.6,82,36.9c32.4,2.5,67.9-12.6,82.5-42.4"/>
							<path class="st20" d="M-257.4-38c18.1-17.5,37.6-33.6,58-48.3c9.1-6.5,18.6-12.9,29.3-15.9c21.6-6.1,43.7,2.2,62.7,14.6
								c5.2,3.4,10.2,7,14.8,10.8c20.1,16.2,38.3,34.9,54,55.4C-23-1-9.9,21.8,9.9,38.7c12.2,10.5,27,19.2,42.5,23.5
								c13.4,3.7,27.6,4,40.5-1.3c2.3-1,4.5-2.1,6.7-3.3c13.2-7.8,22.6-21.2,28.6-35.5c1.9-4.6,3.5-9.3,4.9-14
								c3.5-12.4,5.7-25.2,7.6-37.6c3-19.8,6.6-39.3,17.8-55.3c10.1-14.5,27.7-24.4,45.7-23.3c25.7,1.6,45.1,21.2,64.2,36.8
								c1.5,1.2,3,2.4,4.6,3.6c23.3,18,50.4,31.8,79.7,33.2c31.2,1.5,65.1-13.7,78.8-42.9"/>
							<path class="st19" d="M-255.1-30.3c17.8-17.2,36.9-33,57.1-47.2c8.9-6.3,18.3-12.5,28.9-15.4c21.2-6,42.9,1.7,61.7,13.4
								c5.1,3.2,10.1,6.7,14.7,10.2c20,15.4,38.1,33.2,53.9,52.9C-23.3,3.1-10,25.1,9.6,41.5c12.7,10.6,27.8,19.7,43.7,24.3
								c13.7,4,28.4,4.5,41.7-0.8c2.4-0.9,4.7-2.1,6.9-3.4c13.7-7.9,23.3-21.7,29.6-36.4c2-4.7,3.7-9.5,5.1-14.4
								c3.8-12.6,6.4-25.7,8.8-38.4c3.9-20.2,8.8-39.5,20.8-55.4c10.3-13.7,27.3-23.3,44.9-22.3c25,1.4,44.2,19.9,63,34.3
								c1.5,1.1,3,2.3,4.5,3.4c22.9,16.7,49.2,29,77.4,29.5c30,0.6,62.3-14.9,75.2-43.4"/>
							<path class="st18" d="M-252.9-22.5c17.5-16.9,36.3-32.3,56.2-46.2c8.8-6.2,18.1-12.1,28.4-15c20.9-5.9,42.1,1.2,60.7,12.2
								c5.1,3,10,6.3,14.6,9.6C-73.1-47.4-55-30.4-39.2-11.5C-23.5,7.2-10.1,28.4,9.3,44.3C22.5,55.1,38,64.4,54.2,69.4
								c14.1,4.3,29.2,5,42.8-0.3c2.5-0.9,4.8-2.1,7.1-3.4c14.2-8,24-22.2,30.6-37.3c2.1-4.8,3.9-9.8,5.4-14.7
								c4.1-12.9,7.1-26.3,10.1-39.2c4.8-20.5,11.1-39.7,23.9-55.5c10.5-12.8,26.8-22.2,44-21.3c24.4,1.2,43.3,18.5,61.8,31.8
								c1.5,1.1,2.9,2.1,4.4,3.1c22.5,15.3,48,26.2,75.1,25.9c28.8-0.4,59.5-16,71.5-44"/>
							<path class="st17" d="M-250.6-14.8c17.1-16.6,35.7-31.7,55.3-45.1c8.7-6,17.8-11.7,28-14.6c20.4-5.8,41.3,0.8,59.7,11
								c5,2.8,9.9,5.9,14.5,9c19.7,13.7,37.8,29.8,53.7,47.8C-23.7,11.2-10.2,31.6,9,47c13.7,11,29.5,20.6,46.2,25.9
								c14.4,4.5,29.9,5.5,44,0.2c2.5-0.9,5-2.1,7.4-3.4c14.6-8.1,24.7-22.7,31.5-38.2c2.2-5,4.1-10,5.7-15.1
								c4.4-13.2,7.8-26.9,11.3-39.9c5.6-20.9,13.2-39.9,27-55.6c10.6-12.1,26.4-21.1,43.1-20.3c23.8,1,42.4,17.2,60.6,29.3
								c1.4,1,2.9,1.9,4.3,2.8c22.1,14,46.9,23.4,72.8,22.2c27.6-1.3,56.7-17.1,67.8-44.5"/>
							<path class="st16" d="M-248.3-7.1c16.8-16.3,35-31,54.4-44c8.6-5.8,17.5-11.3,27.6-14.1c20.1-5.7,40.5,0.3,58.7,9.8
								c5,2.6,9.8,5.5,14.4,8.5c19.6,12.8,37.6,28.1,53.6,45.3c15.8,17,29.5,36.6,48.5,51.5C22.9,60.9,39,70.9,56.1,76.5
								c14.7,4.8,30.7,6,45.2,0.8c2.6-0.9,5.2-2.1,7.6-3.4c15.1-8.2,25.4-23.2,32.5-39.1c2.3-5.1,4.2-10.3,6-15.4
								c4.6-13.5,8.5-27.4,12.5-40.7c6.5-21.3,15.4-40.1,30.1-55.6C200.7-88.3,216-97,232.2-96.4c23.1,0.8,41.5,15.8,59.4,26.8
								c1.4,0.9,2.8,1.7,4.3,2.6c21.7,12.6,45.7,20.7,70.5,18.5c26.4-2.3,53.9-18.2,64.1-45"/>
							<path class="st15" d="M-246.1,0.6c16.4-16,34.4-30.4,53.5-42.9c8.5-5.6,17.3-10.9,27.1-13.7c19.6-5.6,39.7-0.2,57.7,8.6
								c4.9,2.4,9.7,5.1,14.2,7.9C-74.1-27.6-56.1-13.1-40,3.2c15.9,16.2,29.7,34.9,48.5,49.3C23.1,63.8,39.5,74.1,57,80.1
								c15,5.1,31.5,6.5,46.4,1.3c2.7-0.9,5.3-2.1,7.8-3.4c15.6-8.3,26.1-23.6,33.5-40c2.4-5.2,4.4-10.5,6.3-15.8
								c4.9-13.8,9.2-28,13.8-41.5c7.4-21.6,17.5-40.3,33.1-55.7c10.6-10.5,25.5-18.8,41.3-18.4c22.5,0.6,40.6,14.4,58.1,24.4
								c1.4,0.8,2.8,1.6,4.2,2.3c21.3,11.3,44.5,17.9,68.2,14.8c25.2-3.2,51-19.4,60.4-45.5"/>
							<path class="st14" d="M-243.8,8.4c16.1-15.7,33.8-29.7,52.6-41.9c8.3-5.4,17-10.5,26.6-13.2c19.2-5.5,38.9-0.7,56.7,7.4
								c4.9,2.2,9.6,4.7,14.1,7.3C-74.5-21-56.5-7.4-40.3,8.1c16,15.4,30,33.3,48.5,47.2C23.3,66.8,40,77.4,58,83.6
								c15.4,5.3,32.2,7,47.6,1.8c2.8-0.9,5.5-2.1,8.1-3.5c16-8.4,26.8-24.1,34.5-40.9c2.4-5.3,4.6-10.8,6.6-16.1
								c5.2-14.1,9.9-28.6,15-42.2c8.3-22,19.6-40.6,36.2-55.8c10.6-9.8,25-17.7,40.4-17.4c21.9,0.5,39.7,13.1,56.9,21.9
								c1.4,0.7,2.7,1.4,4.1,2c20.9,9.9,43.4,15.1,65.9,11.2c24-4.2,48.2-20.5,56.8-46"/>
							<path class="st13" d="M-241.5,16.1c15.8-15.4,33.2-29,51.7-40.8c8.2-5.2,16.8-10.1,26.2-12.8c18.9-5.4,38.2-1.2,55.7,6.2
								c4.8,2,9.5,4.3,14,6.7c19.2,10.3,37.1,23,53.4,37.7c16,14.5,30.2,31.6,48.5,45c15.7,11.5,32.7,22.5,51.1,29.1
								c15.7,5.6,33,7.5,48.7,2.3c2.8-0.9,5.6-2.1,8.3-3.5c16.5-8.5,27.5-24.6,35.6-41.8c2.5-5.4,4.8-11,6.9-16.5
								c5.5-14.4,10.6-29.1,16.3-43c9.2-22.3,21.7-40.8,39.3-55.9c10.6-9.1,24.6-16.6,39.5-16.4c21.3,0.3,38.8,11.7,55.7,19.4
								c1.3,0.6,2.7,1.2,4,1.8c20.5,8.5,42.2,12.3,63.6,7.5c22.9-5.1,45.4-21.6,53.1-46.5"/>
							<path class="st12" d="M-239.2,23.8c15.4-15.1,32.5-28.4,50.8-39.7c8.1-5,16.5-9.7,25.8-12.4c18.5-5.3,37.4-1.7,54.7,5
								c4.8,1.9,9.4,3.9,13.9,6.1c19.1,9.4,37,21.3,53.3,35.1c16.1,13.7,30.4,29.9,48.5,42.9c16.2,11.7,33.5,23,52.3,29.9
								c16,5.9,33.8,8,49.9,2.9c2.9-0.9,5.8-2.1,8.5-3.5c17-8.7,28.2-25.1,36.6-42.7c2.6-5.6,5-11.2,7.2-16.9
								c5.8-14.7,11.3-29.7,17.5-43.8c10.1-22.7,23.7-41.2,42.4-56c10.6-8.4,24.1-15.4,38.6-15.4c20.6,0.1,37.9,10.4,54.5,16.9
								c1.3,0.5,2.6,1,4,1.5c20,7.2,41,9.5,61.4,3.8c21.7-6,42.6-22.7,49.4-47"/>
							<path class="st11" d="M-237,31.5c15.1-14.8,31.9-27.7,49.8-38.6c8-4.8,16.3-9.3,25.3-11.9c18.1-5.2,36.6-2.1,53.7,3.9
								c4.7,1.6,9.3,3.5,13.8,5.5c19,8.5,36.8,19.6,53.2,32.6C-25,35.7-10.5,51.1,7.2,63.6C24,75.4,41.6,87.1,60.8,94.3
								c16.4,6.2,34.6,8.5,51.1,3.4c3-0.9,5.9-2.1,8.8-3.5c17.5-8.8,28.9-25.6,37.6-43.6c2.7-5.7,5.2-11.5,7.5-17.2
								c6.1-15,12-30.2,18.8-44.5c11-23,25.7-41.5,45.4-56.1c10.5-7.7,23.7-14.3,37.7-14.4c20-0.1,36.9,9,53.2,14.4
								c1.3,0.4,2.6,0.8,3.9,1.2c19.6,5.8,39.9,6.8,59.1,0.2c20.5-7,39.8-23.9,45.7-47.5"/>
							<path class="st10" d="M-234.7,39.2c14.7-14.5,31.3-27.1,48.9-37.6c7.9-4.7,16-8.9,24.9-11.5c17.7-5.1,35.8-2.6,52.7,2.7
								c4.7,1.5,9.2,3.1,13.6,4.9c18.8,7.7,36.7,17.9,53.1,30c16.3,12,30.9,26.5,48.4,38.6s35.2,23.9,54.8,31.5
								c16.7,6.4,35.3,9,52.3,3.9c3.1-0.9,6.1-2.1,9-3.5c17.9-8.8,29.6-26.1,38.6-44.5c2.8-5.8,5.4-11.7,7.8-17.5
								c6.3-15.2,12.7-30.8,20-45.3C201.2-32.4,217-51,237.8-65.2c10.4-7.1,23.2-13.2,36.8-13.4c19.4-0.3,36,7.6,52,11.9
								c1.3,0.3,2.5,0.7,3.8,0.9c19.2,4.5,38.7,4,56.8-3.5c19.3-7.9,37-25,42-48.1"/>
							<path class="st9" d="M-232.4,47c14.4-14.2,30.6-26.4,48.1-36.5c7.7-4.5,15.8-8.6,24.4-11.1c17.3-5,35-3.1,51.7,1.5
								c4.6,1.3,9.1,2.7,13.5,4.3c18.7,6.8,36.5,16.2,53,27.5c16.3,11.2,31.2,24.8,48.4,36.5c17.8,12,36,24.4,56,32.2
								c17,6.7,36.1,9.5,53.5,4.4c3.2-0.9,6.2-2.1,9.2-3.6c18.4-8.9,30.3-26.6,39.6-45.4c2.9-5.9,5.6-12,8.1-17.9
								c6.6-15.5,13.4-31.4,21.3-46.1c12.7-23.7,29.6-42.4,51.6-56.2c10.3-6.5,22.8-12.1,35.9-12.4c18.8-0.5,35.1,6.3,50.8,9.4
								c1.2,0.2,2.5,0.5,3.7,0.7c18.8,3.1,37.5,1.2,54.5-7.2c18.1-8.9,34.2-26.1,38.4-48.6"/>
							<path class="st8" d="M-230.1,54.7c14-14,30-25.8,47.1-35.4c7.6-4.3,15.5-8.2,23.9-10.6c16.9-4.9,34.3-3.6,50.6,0.3
								c4.6,1.1,9,2.3,13.4,3.7c18.6,6,36.3,14.5,52.9,25C-25.7,48-10.6,60.7,6.3,71.9C24.7,84,43.2,96.8,63.5,105
								c17.3,6.9,36.9,10.1,54.6,5c3.2-0.9,6.4-2.1,9.4-3.6c18.9-9.1,31.1-27.1,40.6-46.3c3-6,5.7-12.2,8.4-18.3
								c6.9-15.8,14.1-32,22.5-46.8c13.6-24.1,31.5-42.9,54.6-56.3c10.2-5.9,22.4-11,35.1-11.4c18.1-0.7,34.2,4.9,49.6,6.9
								c1.2,0.2,2.4,0.3,3.6,0.4c18.4,1.8,36.4-1.6,52.2-10.8c16.9-9.8,31.4-27.2,34.7-49.1"/>
							<path class="st7" d="M-227.9,62.4c13.7-13.7,29.4-25.1,46.2-34.3c7.5-4.1,15.2-7.8,23.5-10.2c16.5-4.8,33.5-4.1,49.6-0.9
								c4.5,0.9,8.9,1.9,13.3,3.1c18.4,5.1,36.2,12.8,52.9,22.4c16.5,9.5,31.7,21.4,48.4,32.2c18.9,12.2,37.7,25.3,58.4,33.8
								c17.7,7.2,37.7,10.6,55.8,5.5c3.3-0.9,6.5-2.1,9.7-3.6c19.4-9.2,31.8-27.6,41.6-47.2c3.1-6.2,5.9-12.5,8.7-18.6
								c7.2-16.1,14.9-32.5,23.8-47.6c14.5-24.5,33.4-43.5,57.7-56.4c10.1-5.3,21.9-9.8,34.2-10.4c17.5-0.8,33.3,3.6,48.4,4.4
								c1.2,0.1,2.4,0.1,3.6,0.1c18,0.4,35.2-4.4,49.9-14.5c15.7-10.8,28.6-28.4,31-49.6"/>
							<path class="st6" d="M-225.6,70.2c13.4-13.4,28.8-24.5,45.3-33.3c7.4-3.9,15-7.4,23.1-9.7c16.1-4.7,32.7-4.6,48.6-2.1
								c4.4,0.7,8.8,1.5,13.2,2.5c18.3,4.3,36,11.1,52.8,19.9c16.5,8.7,32,19.6,48.4,30c19.4,12.2,38.5,25.8,59.7,34.6
								c18,7.5,38.4,11.1,57,6c3.4-0.9,6.7-2.1,9.9-3.6c19.8-9.3,32.5-28.1,42.6-48.1c3.2-6.3,6.1-12.7,9-19
								c7.4-16.4,15.6-33.1,25-48.4c15.4-24.8,35.2-44.2,60.8-56.5c10-4.8,21.5-8.7,33.3-9.4c16.9-1,32.4,2.2,47.1,1.9
								c1.2,0,2.3-0.1,3.5-0.1c17.6-1,34-7.2,47.6-18.2c14.5-11.7,25.8-29.5,27.3-50.1"/>
							<path class="st5" d="M-223.3,77.9c13-13.1,28.1-23.8,44.4-32.2c7.2-3.7,14.7-7,22.6-9.3c15.7-4.6,31.9-5.1,47.6-3.3
								c4.4,0.5,8.7,1.2,13,2c18.2,3.4,35.9,9.4,52.7,17.4c16.6,7.9,32.2,17.9,48.4,27.9c20,12.3,39.3,26.3,60.9,35.4
								c18.3,7.8,39.2,11.6,58.2,6.6c3.5-0.9,6.8-2.1,10.1-3.6c20.3-9.4,33.2-28.6,43.6-49c3.3-6.4,6.3-12.9,9.3-19.3
								c7.7-16.7,16.3-33.6,26.2-49.1c16.3-25.2,37-45,63.9-56.6c9.9-4.3,21-7.6,32.4-8.4c16.2-1.2,31.5,0.8,45.9-0.6
								c1.1-0.1,2.3-0.2,3.4-0.4c17.2-2.3,32.8-9.9,45.3-21.8c13.3-12.7,23-30.6,23.6-50.6"/>
							<path class="st4" d="M-221.1,85.6c12.7-12.8,27.5-23.2,43.5-31.1c7.1-3.5,14.5-6.6,22.1-8.8c15.3-4.5,31.1-5.6,46.6-4.5
								c4.3,0.3,8.6,0.8,12.9,1.4c18.1,2.6,35.7,7.7,52.6,14.8c16.7,7,32.5,16.2,48.4,25.7c20.5,12.3,40.1,26.7,62.1,36.2
								c18.6,8,40,12.1,59.4,7.1c3.5-0.9,7-2.1,10.4-3.7c20.8-9.5,33.9-29.1,44.6-49.8c3.4-6.5,6.5-13.2,9.6-19.7
								c8-17,17-34.2,27.5-49.9c17.1-25.5,38.9-45.9,66.9-56.7c9.8-3.8,20.6-6.5,31.5-7.4c15.6-1.4,30.6-0.5,44.7-3
								c1.1-0.2,2.2-0.4,3.3-0.7c16.8-3.7,31.7-12.7,43-25.5c12.1-13.6,20.2-31.7,20-51.1"/>
							<path class="st3" d="M-218.8,93.3c12.3-12.5,26.9-22.5,42.6-30.1c7-3.3,14.2-6.2,21.7-8.4c14.9-4.4,30.3-6.1,45.6-5.7
								c4.3,0.1,8.6,0.4,12.8,0.8c17.9,1.7,35.6,6,52.5,12.3c16.7,6.2,32.8,14.4,48.4,23.6c21.1,12.4,40.9,27.2,63.3,37
								c19,8.3,40.8,12.6,60.5,7.6c3.6-0.9,7.2-2.1,10.6-3.7C160.6,117.2,174,97.1,185,76c3.4-6.7,6.7-13.4,9.8-20
								c8.3-17.3,17.7-34.8,28.8-50.7c18-25.9,40.7-46.9,70-56.8c9.7-3.3,20.1-5.3,30.6-6.5c15-1.6,29.7-1.9,43.5-5.5
								c1.1-0.3,2.2-0.6,3.3-0.9c16.4-5.1,30.5-15.5,40.7-29.2c10.9-14.5,17.4-32.9,16.3-51.7"/>
							<path class="st2" d="M-216.5,101c27.9-28.3,67.9-43.1,107.6-43.9c39.7-0.8,79,11.6,113.5,31.3c21.7,12.4,41.8,27.7,64.6,37.8
								s49.8,14.6,72.6,4.4c28.5-12.7,43-43.9,56.7-72c22.5-46.2,53.8-93.9,103.1-108.3c24.6-7.2,51.4-5.2,75.2-14.7
								c32.9-13.2,54.8-49.7,51-85"/>
						</g>
						<g>
							<path class="st23" d="M-42.4,511c-4.2-34,29.4-62.7,63.2-68c33.8-5.3,67.8,5.6,101.3,12.6s71.3,9.3,99.3-10.4
								c35.8-25.2,44.1-78.2,81-101.9c28.7-18.5,66.1-12.9,95.5,0.8c16.6,7.8,30.8,20.8,46.7,29.9c72.1,41.3,77,125.6,138.3,138.1
								c66.3,13.6,102.3-18.7,114.9-41.2c16-28.7,42.8-103.3-22.8-155.1c-26.6-21-52.9-43.5-72.5-71.2
								c-29.3-41.5-29.1-104.9,8.4-139.2c25.7-23.5,65.2-32.1,82.6-62.2c11.7-20.2,10.1-46.4,0-67.5c-10.1-21.1-27.7-37.8-46.7-51.4
								"/>
							<path class="st22" d="M-40.8,512.7c-2.9-35,30.5-65.2,65.3-71.2c34-5.9,68.6,5,102.1,12.7c33.1,7.6,69.9,11.1,97.9-6.8
								c35.7-22.9,45.7-73.3,82.5-96.6c29.3-18.5,66.1-15.1,96.2-3.1c17.3,6.9,32.6,19.2,49.3,28.4
								c70.6,39.1,76.4,120.7,136.4,133.1c64.5,13.3,100.3-17.3,113.3-39.4c16.5-28,42-99.8-19.9-151.1
								c-25.5-21.1-50.8-44-70.1-71.5c-28.5-40.5-28.7-101.7,6.7-135.7c24.5-23.5,62.5-33.1,79.9-62.8c11.9-20.3,11.2-46.1,2.4-67.3
								S676-57.9,657.6-72.4"/>
							<path class="st21" d="M-39.3,514.4c-1.6-36,31.6-67.7,67.5-74.4c34.2-6.4,69.3,4.3,102.8,12.7c32.8,8.2,68.6,12.9,96.5-3.3
								c35.5-20.7,47.3-68.4,84.1-91.4c29.9-18.6,66.1-17.2,97-6.9c18,6,34.5,17.6,51.9,26.9c69,37.1,75.8,115.8,134.4,128
								c62.6,13,98.2-15.9,111.7-37.6c16.9-27.2,41.2-96.4-17.1-147c-24.4-21.2-48.8-44.5-67.7-71.9c-27.6-39.5-28.3-98.5,5-132.1
								C650,94,686.6,83.5,703.9,54.1c12.1-20.4,12.3-45.8,4.7-67.2c-7.7-21.8-22.6-40.4-40.2-56"/>
							<path class="st20" d="M-37.8,516.1c-0.3-36.9,32.7-70.1,69.6-77.6c34.4-7,70,3.6,103.6,12.8c32.4,8.9,67.3,14.6,95.1,0.3
								c35.4-18.4,48.8-63.5,85.6-86.1c30.5-18.7,66.2-19.4,97.6-10.8c18.7,5.1,36.3,16,54.5,25.5c67.4,35.1,75.3,110.9,132.5,123
								c60.7,12.7,96.1-14.4,110.1-35.8c17.3-26.5,40.5-93-14.2-142.9c-23.4-21.3-46.7-45-65.4-72.2c-26.6-38.6-27.9-95.3,3.3-128.6
								c22.1-23.6,57.2-35.2,74.5-64.1C721.4,39,722.5,14,716.2-7.5s-20-41.7-36.9-58.3"/>
							<path class="st19" d="M-36.3,517.8c1-37.9,33.8-72.5,71.7-80.8c34.6-7.5,70.8,2.9,104.3,12.8s66,16.4,93.6,3.9
								c35.2-16.1,50.4-58.5,87.2-80.8c31-18.8,66.3-21.6,98.4-14.7c19.4,4.2,38.2,14.4,57.1,24c65.7,33.2,74.7,106.1,130.6,117.9
								c58.9,12.4,94-13,108.5-34c17.8-25.7,39.7-89.7-11.4-138.8c-22.3-21.4-44.6-45.5-63-72.5c-25.7-37.7-27.5-92.1,1.6-125.1
								c20.9-23.7,54.6-36.2,71.8-64.7c12.5-20.6,14.5-45.3,9.4-66.9c-5.3-22.6-17.5-43-33.6-60.6"/>
							<path class="st18" d="M-34.8,519.5c2.3-38.9,35-75,73.9-84c34.7-8.1,71.5,2.2,105.1,12.9c31.6,10.1,64.7,18.3,92.2,7.5
								c35.1-13.8,52-53.6,88.7-75.5c31.6-18.9,66.4-23.9,99.1-18.5c20.2,3.3,40,12.8,59.8,22.5c64,31.4,74.1,101.2,128.7,112.9
								c57,12.1,91.9-11.6,107-32.2c18.2-25,39-86.4-8.6-134.7c-21.2-21.6-42.5-46.1-60.6-72.9c-24.8-36.7-27.1-88.9-0.1-121.5
								c19.7-23.7,51.9-37.2,69.1-65.3c12.7-20.7,15.6-45.1,11.8-66.8c-4.1-23.1-15-44.3-30.3-62.9"/>
							<path class="st17" d="M-33.2,521.2c3.6-39.9,36.1-77.4,76-87.2c34.9-8.6,72.2,1.5,105.8,12.9c31.2,10.7,63.3,20.1,90.8,11
								c35-11.5,53.6-48.6,90.3-70.3c32.2-19,66.6-26.2,99.8-22.4c20.9,2.4,41.8,11.2,62.4,21c62.2,29.7,73.6,96.3,126.8,107.8
								C673.7,506,708.4,484,724,463.7c18.6-24.2,38.3-83.2-5.8-130.7c-20.2-21.7-40.4-46.6-58.2-73.2c-23.9-35.7-26.7-85.8-1.8-118
								c18.5-23.8,49.3-38.2,66.4-65.9c12.8-20.8,16.7-44.9,14.1-66.7c-2.8-23.5-12.4-45.7-27-65.2"/>
							<path class="st16" d="M-31.7,522.9c4.9-40.8,37.2-79.8,78.1-90.4c35.1-9.1,72.9,0.7,106.5,13c30.8,11.2,62,21.9,89.4,14.6
								c34.8-9.2,55.2-43.7,91.8-65c32.8-19.1,66.7-28.5,100.5-26.3c21.7,1.4,43.6,9.6,65,19.5c60.4,28,73,91.4,124.9,102.8
								c53.2,11.5,87.7-8.7,103.8-28.6c19-23.5,37.6-80.1-2.9-126.6c-19.1-21.9-38.3-47.1-55.9-73.5c-23.1-34.8-26.4-82.7-3.5-114.4
								c17.2-23.9,46.6-39.2,63.7-66.6c13-20.9,17.8-44.7,16.4-66.6c-1.6-24-9.9-47-23.8-67.5"/>
							<path class="st15" d="M-30.2,524.6C-24,482.8,8.1,442.4,50,431c35.3-9.6,73.7,0,107.3,13c30.4,11.8,60.7,23.6,88,18.2
								c34.7-6.9,56.8-38.7,93.4-59.7c33.4-19.1,66.9-30.8,101.2-30.1c22.4,0.5,45.5,8,67.6,18c58.5,26.4,72.4,86.6,123,97.7
								c51.4,11.2,85.6-7.3,102.2-26.9c19.3-22.7,37-77-0.1-122.5c-18-22.2-36.2-47.6-53.5-73.8c-22.2-33.8-26-79.7-5.2-110.9
								c16-24.1,44-40.2,61-67.2c13.2-21,19-44.5,18.8-66.4c-0.3-24.4-7.3-48.3-20.5-69.8"/>
							<path class="st14" d="M-28.7,526.3c7.5-42.8,39.5-84.5,82.4-96.8c35.5-10.1,74.4-0.7,108,13.1c30,12.4,59.4,25.4,86.6,21.8
								c34.5-4.6,58.4-33.8,95-54.4c34-19.2,67-33.2,101.9-34c23.2-0.5,47.3,6.5,70.2,16.5c56.7,24.8,71.8,81.7,121.1,92.7
								c49.5,10.9,83.5-5.9,100.6-25c19.7-22,36.4-74.1,2.7-118.4c-17-22.4-34.2-48.1-51.1-74.2c-21.3-32.8-25.7-76.6-6.9-107.4
								c14.8-24.2,41.4-41.2,58.3-67.8c13.4-21.1,20.2-44.2,21.1-66.3c1-24.9-4.8-49.6-17.2-72.1"/>
							<path class="st13" d="M-27.2,528c8.8-43.8,40.6-86.9,84.5-100c35.7-10.6,75.2-1.5,108.8,13.2c29.6,12.9,58,27.2,85.1,25.4
								c34.4-2.4,60-28.8,96.5-49.1c34.6-19.3,67.1-35.6,102.6-37.9c23.9-1.5,49.1,4.9,72.8,15c54.8,23.3,71.3,76.8,119.2,87.6
								c47.6,10.6,81.3-4.5,99.1-23.3c20.1-21.2,35.8-71.2,5.6-114.4c-15.9-22.7-32.1-48.6-48.7-74.5
								c-20.4-31.8-25.4-73.6-8.6-103.8c13.6-24.4,38.7-42.2,55.6-68.4c13.6-21.1,21.4-44,23.5-66.2c2.3-25.3-2.3-50.9-13.9-74.4"/>
							<path class="st12" d="M-25.6,529.7C-15.5,485,16.1,440.4,61,426.5c35.8-11.1,75.9-2.2,109.5,13.2
								c29.3,13.5,56.7,29,83.7,28.9c34.2-0.1,61.6-23.8,98.1-43.9c35.2-19.3,67.3-38,103.3-41.8c24.7-2.6,50.9,3.4,75.4,13.5
								c52.9,21.8,70.7,71.9,117.3,82.6c45.8,10.3,79.2-3.1,97.5-21.5c20.4-20.5,35.3-68.4,8.4-110.3c-14.8-23-30-49.1-46.4-74.8
								c-19.6-30.8-25.1-70.7-10.3-100.3c12.3-24.6,36.1-43.2,52.9-69c13.8-21.2,22.6-43.8,25.8-66c3.7-25.8,0.3-52.2-10.6-76.7"/>
							<path class="st11" d="M-24.1,531.4c11.4-45.7,42.8-91.6,88.8-106.4c36-11.5,76.7-3,110.2,13.3c28.9,14,55.4,30.8,82.3,32.5
								c34.1,2.2,63.2-18.9,99.6-38.6c35.8-19.4,67.4-40.4,104-45.6c25.4-3.6,52.6,1.9,78,12.1c51,20.4,70.1,67.1,115.4,77.6
								c43.9,10.1,77-1.7,95.9-19.7c20.8-19.8,35-65.6,11.2-106.2c-13.7-23.4-28-49.6-44-75.2c-18.7-29.8-24.9-67.7-12-96.7
								c11-24.8,33.5-44.2,50.2-69.6c14-21.3,23.9-43.6,28.1-65.9c5-26.2,2.8-53.5-7.3-79"/>
							<path class="st10" d="M-22.6,533.1c12.7-46.7,44-94,90.9-109.6c36.2-12,77.4-3.8,111,13.3c28.5,14.5,54,32.6,80.9,36.1
								c33.9,4.5,64.8-13.9,101.2-33.3c36.4-19.4,67.5-42.9,104.7-49.5c26.1-4.6,54.4,0.4,80.6,10.6c49,19,69.5,62.3,113.5,72.5
								c42,9.8,74.9-0.3,94.3-17.9c21.1-19.1,34.7-63,14.1-102.1c-12.5-23.8-25.9-50.1-41.6-75.5c-17.8-28.9-24.7-64.8-13.7-93.2
								c9.7-25.1,30.8-45.3,47.5-70.2c14.2-21.4,25.1-43.4,30.5-65.7c6.4-26.6,5.3-54.8-4-81.3"/>
							<path class="st9" d="M-21.1,534.8C-7,487.1,24,438.4,72,422c36.4-12.5,78.2-4.6,111.7,13.4c28.1,15.1,52.7,34.3,79.5,39.7
								c33.8,6.7,66.4-8.9,102.7-28s67.6-45.4,105.4-53.4c26.9-5.7,56.2-1,83.3,9.1c47.1,17.6,69,57.4,111.6,67.4
								c40.1,9.5,72.7,1.1,92.7-16.1c21.5-18.4,34.5-60.4,16.9-98.1c-11.3-24.2-23.8-50.6-39.2-75.8c-17-27.9-24.5-61.9-15.4-89.7
								c8.3-25.3,28.2-46.3,44.8-70.9c14.4-21.5,26.4-43.2,32.8-65.6C806.5,27,806.6-2,798-29.5"/>
							<path class="st8" d="M-19.5,536.5c15.3-48.6,46.3-98.7,95.2-116c36.6-13,78.9-5.4,112.5,13.4c27.8,15.6,51.4,36.1,78.1,43.2
								c33.6,9,68-3.9,104.3-22.8c37.6-19.5,67.7-47.8,106.1-57.2c27.6-6.8,57.9-2.5,85.9,7.6c45.1,16.3,68.4,52.5,109.7,62.4
								c38.2,9.2,70.5,2.5,91.2-14.3c21.8-17.7,34.4-57.8,19.7-94c-10-24.7-21.8-51.1-36.8-76.1c-16.1-26.9-24.5-59-17.1-86.1
								c6.9-25.6,25.6-47.3,42-71.5c14.6-21.5,27.6-43,35.2-65.5c9.2-27.5,10.4-57.4,2.5-85.9"/>
							<path class="st7" d="M-18,538.2c16.6-49.6,47.4-101,97.3-119.2c36.8-13.4,79.7-6.1,113.2,13.5c27.4,16.1,50,37.9,76.6,46.8
								c33.5,11.2,69.6,1.1,105.8-17.5c38.2-19.6,67.8-50.3,106.8-61.1c28.3-7.8,59.7-3.9,88.5,6.1c43.1,15,67.8,47.6,107.8,57.4
								c36.4,8.9,68.4,3.8,89.6-12.5s34.4-55.3,22.6-89.9c-8.6-25.1-19.8-51.6-34.5-76.5c-15.3-25.9-24.4-56.1-18.8-82.6
								c5.5-25.9,23-48.3,39.3-72.1c14.8-21.6,28.9-42.7,37.5-65.3c10.6-27.9,13-58.7,5.8-88.2"/>
							<path class="st6" d="M-16.5,539.9c17.9-50.6,48.6-103.3,99.4-122.4c37-13.9,80.5-7,113.9,13.5c27.1,16.6,48.7,39.6,75.2,50.4
								c33.4,13.4,71.2,6.1,107.4-12.2c38.8-19.6,67.9-52.8,107.5-65c29-8.9,61.4-5.3,91.1,4.6c41.2,13.7,67.3,42.7,105.9,52.3
								c34.5,8.5,66.2,5.2,88-10.7c22.4-16.4,34.5-52.8,25.4-85.8c-7.1-25.6-17.7-52.1-32.1-76.8c-14.5-24.9-24.4-53.2-20.5-79
								c4-26.1,20.4-49.3,36.6-72.7c15-21.7,30.2-42.5,39.8-65.2c12-28.3,15.5-60,9.1-90.5"/>
							<path class="st5" d="M-15,541.6C4.2,490,34.7,435.9,86.6,416c37.2-14.3,81.3-7.8,114.7,13.6c26.7,17.1,47.4,41.4,73.8,54
								c33.2,15.7,72.9,11,109-6.9c39.4-19.6,68-55.3,108.2-68.8c29.7-10,63.1-6.6,93.7,3.1c39.2,12.5,66.7,37.8,104,47.2
								c32.7,8.2,64,6.5,86.4-8.9s34.8-50.3,28.2-81.8c-5.5-26.1-15.7-52.5-29.7-77.1c-13.6-23.9-24.5-50.3-22.2-75.5
								c2.4-26.4,17.8-50.2,33.9-73.3c15.2-21.8,31.5-42.2,42.2-65.1c13.4-28.7,18-61.3,12.4-92.8"/>
							<path class="st4" d="M-13.5,543.3c20.5-52.5,50.9-108,103.7-128.8c37.5-14.8,82.1-8.6,115.4,13.7
								c26.4,17.6,46.1,43.2,72.4,57.6c33.1,18,74.5,16.1,110.5-1.6c40.1-19.6,68.1-57.8,108.9-72.7c30.4-11.1,64.8-7.9,96.3,1.6
								c37.2,11.2,66.1,32.9,102.1,42.2c30.8,7.9,61.8,7.9,84.8-7.1s35.2-47.7,31.1-77.7c-3.7-26.6-13.7-53-27.3-77.5
								c-12.8-22.9-24.6-47.4-23.9-72c0.7-26.6,15.2-51.2,31.2-73.9c15.5-21.8,32.8-41.9,44.5-64.9c14.9-29,20.6-62.6,15.7-95.1"/>
							<path class="st3" d="M-11.9,545C9.9,491.4,40.1,434.8,93.9,413c37.7-15.1,82.9-9.4,116.2,13.7c26.1,18.1,44.7,45,71,61.1
								c32.9,20.3,76.1,21.1,112.1,3.6c40.7-19.6,68.1-60.3,109.6-76.6c31.1-12.2,66.5-9.1,98.9,0.2c35.3,10,65.6,28,100.2,37.1
								c28.9,7.6,59.7,9.2,83.3-5.4c23.4-14.4,35.7-45,33.9-73.6c-1.7-27.1-11.7-53.5-25-77.8c-12-21.8-24.7-44.4-25.6-68.4
								c-1-26.8,12.5-52.2,28.5-74.6c15.7-21.9,34-41.7,46.9-64.8c16.3-29.4,23.1-63.9,18.9-97.4"/>
							<path class="st2" d="M-10.4,546.7c23.1-54.5,53.2-112.5,107.9-135.1c37.9-15.6,83.7-10.2,116.9,13.8
								c25.7,18.6,43.4,46.8,69.6,64.7c32.8,22.5,77.7,26,113.6,8.9c41.2-19.7,68.2-62.8,110.3-80.4c31.8-13.3,68.2-10.2,101.5-1.3
								c33.3,8.9,65,23.2,98.3,32.1c27,7.3,57.5,10.5,81.7-3.6c23.7-13.8,36.3-42.1,36.7-69.5s-9.6-54-22.6-78.1
								c-11.2-20.8-24.9-41.4-27.3-64.9c-2.8-27,9.9-53.2,25.8-75.2s35.3-41.4,49.2-64.7c17.7-29.7,25.6-65.2,22.2-99.7"/>
						</g>
						<g>
							<path class="st2" d="M386,749.7c-29.1-18-30.5-62.2-13.4-91.9s46.9-49.3,73.3-71.1c26.5-21.8,51.9-49.7,54.1-83.9
								c2.8-43.7-33.4-83.4-28.7-127c3.6-34,31.3-59.6,60.5-74c16.5-8.1,35.5-11,52.6-17.6c77.3-30.4,146.1,18.7,194.3-21.2
								c52.2-43.2,49.5-91.5,39.9-115.3c-12.3-30.5-53.7-98.1-135.2-79.4c-33.1,7.6-67,14-100.9,11.9c-50.7-3.1-100-43-103.3-93.8
								c-2.2-34.8,15.8-70.9,3.3-103.4c-8.4-21.8-29.8-36.9-52.6-42.3c-22.8-5.4-46.8-2.1-69.3,4.2"/>
							<path class="st24" d="M388.3,749.5c-29.1-19.7-31.7-64.6-14.6-95.5s46.8-50.3,73.8-71.6c26.7-21.1,52.5-47.6,56-80.6
								c4.5-42.2-28.5-81.5-23.6-124.9c3.9-34.5,29.7-61,57.9-76.9c16.2-9.2,35.4-13.4,53-20.6c74.7-30.5,141.9,16,189.2-22.9
								c50.8-41.9,49.3-89,40.3-113c-11.5-30.4-51.5-95.3-130.2-79.1c-32.5,6.7-66.1,12.1-99.7,9.8C541,71,493.2,32.9,488.9-16
								c-3-33.8,13.4-69.5,1.1-101.7c-8.4-22-28.9-37.6-51-44s-46.2-4.9-69.1,0.2"/>
							<path class="st25" d="M390.6,749.4c-29-21.3-32.9-67-15.7-99.2c16.4-30.7,46.7-51.3,74.3-72.2s53-45.4,57.9-77.2
								c6.2-40.6-23.7-79.7-18.5-122.8c4.2-35,28-62.4,55.3-79.9c16-10.3,35.3-15.9,53.5-23.6c72.1-30.6,137.8,13.4,184-24.6
								c49.4-40.6,49.2-86.5,40.7-110.6c-10.6-30.2-49.3-92.5-125.3-78.8c-31.8,5.8-65.2,10.2-98.5,7.8
								c-48.1-3.3-94.5-39.6-99.9-86.7c-3.8-32.9,11-68.1-1.1-99.9c-8.3-22.2-28-38.3-49.4-45.8c-21.9-7.7-45.7-7.7-68.8-3.8"/>
							<path class="st26" d="M392.9,749.3c-29-22.9-34.1-69.4-16.9-102.9c16.1-31.2,46.7-52.3,74.8-72.7
								c27.2-19.7,53.6-43.3,59.8-73.9c7.8-39.1-18.9-77.8-13.5-120.7c4.5-35.5,26.4-63.8,52.8-82.9c15.7-11.4,35.2-18.3,54-26.5
								c69.6-30.5,133.6,10.8,178.9-26.3c48-39.4,49-84,41.1-108.3c-9.8-30.1-47.1-89.8-120.3-78.4c-31.2,4.9-64.3,8.1-97.2,5.7
								c-46.8-3.5-91.8-37.9-98.2-83.1c-4.6-32,8.4-66.6-3.3-98.2c-8.3-22.4-27.1-38.9-47.9-47.5c-21.4-8.9-45.1-10.5-68.5-7.8"/>
							<path class="st5" d="M395.1,749.2c-28.9-24.5-35.3-71.8-18-106.5c15.8-31.7,46.6-53.3,75.4-73.3s54.1-41.1,61.7-70.5
								c9.5-37.6-14-76-8.4-118.6c4.8-36,24.7-65.2,50.2-85.9c15.5-12.5,35.1-20.8,54.5-29.5c67.1-30.4,129.5,8.2,173.8-27.9
								c46.5-38.1,48.8-81.4,41.5-105.9c-8.9-29.9-45-87.1-115.3-78.1c-30.7,4-63.4,6.2-96,3.7c-45.5-3.5-89-36.3-96.5-79.6
								c-5.4-31.1,6-65.2-5.4-96.5c-8.3-22.6-26.2-39.6-46.3-49.3s-44.5-13.3-68.3-11.8"/>
							<path class="st6" d="M397.4,749c-28.9-26.2-36.5-74.2-19.2-110.2c15.5-32.1,46.5-54.3,75.9-73.8c27.6-18.3,54.8-39,63.6-67.2
								c11.3-36-9.2-74.1-3.3-116.5c5.1-36.5,23-66.8,47.6-88.8c15.2-13.6,35-23.2,55-32.5c64.6-30.2,125.3,5.6,168.7-29.6
								c45.1-36.8,48.6-78.9,41.9-103.6c-8-29.8-42.9-84.5-110.4-77.7c-30.1,3-62.5,4.2-94.8,1.6c-44.2-3.6-86.3-34.6-94.8-76
								c-6.2-30.2,3.5-63.8-7.6-94.8c-8.2-22.8-25.4-40.4-44.7-51c-20.5-11.3-43.9-16.1-68-15.8"/>
							<path class="st27" d="M399.7,748.9c-28.8-27.8-37.7-76.6-20.4-113.9c15.2-32.6,46.4-55.4,76.4-74.3
								c27.8-17.6,55.3-36.8,65.5-63.9c13-34.5-4.3-72.2,1.8-114.4c5.4-37,21.3-68.3,45-91.8c15-14.8,34.9-25.6,55.4-35.4
								c62.1-29.9,121.2,3,163.5-31.3c43.7-35.6,48.4-76.4,42.3-101.2c-7.2-29.6-40.9-82-105.5-77.4c-29.6,2.1-61.6,2.3-93.5-0.5
								c-42.8-3.7-83.7-32.9-93.1-72.5c-7-29.3,1.1-62.3-9.8-93.1c-8.2-23-24.5-41.1-43.1-52.8c-20.1-12.5-43.4-18.9-67.7-19.8"/>
							<path class="st28" d="M402,748.8c-28.8-29.4-38.9-79-21.5-117.5c14.9-33.1,46.3-56.4,76.9-74.9c28-17,55.9-34.6,67.4-60.5
								c14.7-32.9,0.5-70.4,6.9-112.3c5.7-37.5,19.6-69.9,42.5-94.8c14.7-16,34.8-28,55.9-38.4c59.7-29.5,117,0.4,158.4-33
								c42.3-34.3,48.1-73.8,42.7-98.8c-6.4-29.5-39.8-87.7-100.5-77c-28.7,5-60.7,0.4-92.3-2.5c-41.5-3.8-81-31.3-91.4-69
								c-7.8-28.4-1.3-60.9-12-91.3c-8.1-23.2-23.6-41.9-41.6-54.5c-19.6-13.8-42.8-21.7-67.5-23.8"/>
							<path class="st29" d="M404.2,748.7c-28.7-31-40-81.3-22.7-121.2c14.6-33.5,46.2-57.4,77.4-75.4
								c28.2-16.3,56.4-32.5,69.3-57.2c16.3-31.4,5.4-68.5,12-110.2c6-38,17.8-71.4,39.9-97.8c14.4-17.2,34.8-30.4,56.4-41.4
								c57.2-29.1,112.8-2.2,153.3-34.7c40.9-33,47.9-71.3,43.1-96.5c-5.6-29.3-37.6-86-95.5-76.7c-28.2,4.5-59.8-1.6-91.1-4.6
								c-40.2-3.9-78.4-29.6-89.7-65.4c-8.7-27.6-3.8-59.5-14.1-89.6c-8.1-23.4-22.7-42.7-40-56.2c-19.2-15.1-42.2-24.5-67.2-27.8"
								/>
							<path class="st9" d="M406.5,748.5c-28.6-32.7-41.2-83.7-23.8-124.8c14.4-34,46.1-58.5,77.9-76c28.5-15.7,57-30.3,71.2-53.8
								c18-29.8,10.3-66.7,17.1-108.1c6.3-38.5,16.1-73,37.3-100.7c14.1-18.4,34.7-32.8,56.9-44.4c54.9-28.6,108.7-4.8,148.1-36.3
								c39.5-31.8,47.7-68.7,43.5-94.1c-4.8-29.1-35.5-84.2-90.6-76.3c-27.8,4-58.9-3.5-89.8-6.6c-38.9-3.9-75.8-28-88-61.9
								c-9.6-26.7-6.2-58.1-16.3-87.9c-8-23.6-21.8-43.5-38.4-58c-18.7-16.4-41.6-27.3-67-31.8"/>
							<path class="st30" d="M408.8,748.4c-28.6-34.3-42.3-86.1-25-128.5c14.1-34.4,45.9-59.5,78.4-76.5
								c28.6-15,57.6-28.2,73.1-50.5c19.7-28.3,15.1-64.8,22.2-106c6.7-39,14.3-74.6,34.7-103.7c13.8-19.6,34.6-35.1,57.3-47.3
								c52.5-28.1,104.5-7.4,143-38c38.1-30.5,47.5-66.2,43.9-91.8c-4-29-33.3-82.3-85.7-76c-27.5,3.3-58-5.4-88.6-8.7
								c-37.6-4-73.3-26.4-86.3-58.3c-10.5-25.9-8.7-56.6-18.5-86.2c-7.9-23.9-20.9-44.3-36.9-59.7c-18.3-17.7-41.1-30.1-66.7-35.8"
								/>
							<path class="st31" d="M411.1,748.3c-28.5-35.9-43.5-88.5-26.1-132.2c13.8-34.9,45.8-60.6,78.9-77.1
								c28.8-14.4,58.1-26,75-47.1c21.4-26.7,20-62.9,27.2-103.9c7-39.5,12.5-76.2,32.2-106.7c13.5-20.8,34.5-37.5,57.8-50.3
								c50.1-27.5,100.3-10.1,137.9-39.7c36.7-29.2,47.2-63.6,44.3-89.4c-3.2-28.8-31.2-70.4-80.7-75.7
								c-27.2-2.9-57.1-7.4-87.4-10.8c-36.3-4.1-70.8-24.7-84.6-54.8c-11.5-25-11.1-55.2-20.7-84.4c-7.9-24.1-20-45.1-35.3-61.5
								c-17.8-19-40.5-32.9-66.4-39.8"/>
							<path class="st32" d="M413.3,748.2c-28.5-37.5-44.6-90.8-27.3-135.8c13.6-35.3,45.7-61.6,79.4-77.6
								c29-13.7,58.7-23.9,76.9-43.8c23-25.2,24.9-61.1,32.3-101.8c7.3-40,10.7-77.9,29.6-109.6c13.1-22.1,34.5-39.8,58.3-53.3
								c47.8-26.9,96.2-12.6,132.8-41.4s47-61.1,44.7-87.1c-2.4-28.6-29.3-68.4-75.8-75.3c-26.8-4-56.2-9.3-86.1-12.8
								c-35-4.1-68.4-23-82.9-51.2c-12.5-24.1-13.5-53.8-22.8-82.7c-7.8-24.3-19.1-45.9-33.7-63.2c-17.3-20.3-39.9-35.7-66.1-43.8"
								/>
							<path class="st12" d="M415.6,748.1c-28.4-39.2-45.7-93.2-28.5-139.5c13.3-35.8,45.6-62.7,79.9-78.2
								c29.2-13.1,59.2-21.7,78.8-40.4c24.7-23.7,29.8-59.2,37.4-99.7c7.6-40.5,8.9-79.5,27-112.6c12.8-23.3,34.4-42.1,58.8-56.2
								c45.5-26.3,92.1-15.2,127.6-43.1c33.9-26.6,46.7-58.5,45.2-84.7c-1.7-28.4-27.4-66.5-70.8-75c-26.4-5.1-55.3-11.2-84.9-14.9
								c-33.7-4.2-66-21.4-81.2-47.7c-13.5-23.3-16-52.4-25-81c-7.8-24.5-18.1-46.8-32.2-64.9c-16.8-21.7-39.4-38.5-65.9-47.8"/>
							<path class="st13" d="M417.9,748c-28.4-40.8-46.8-95.5-29.6-143.2c13.1-36.2,45.4-63.8,80.4-78.7
								c29.4-12.5,59.8-19.5,80.7-37.1c26.4-22.1,34.7-57.4,42.5-97.6c8-41,7-81.1,24.5-115.6c12.4-24.5,34.4-44.4,59.2-59.2
								c43.2-25.6,87.9-17.8,122.5-44.7c32.5-25.3,46.4-56,45.5-82.4c-0.9-28.2-25.5-64.7-65.8-74.6C751.9,8.5,723.4,1.8,694.1-2
								c-32.4-4.2-63.6-19.7-79.5-44.2c-14.5-22.4-18.4-51-27.2-79.3c-7.7-24.7-17.2-47.6-30.6-66.7c-16.2-23-38.8-41.3-65.6-51.8"
								/>
							<path class="st33" d="M420.2,747.8c-28.3-42.4-47.9-97.9-30.8-146.8c12.9-36.7,45.3-64.9,80.9-79.2
								c29.5-11.9,60.3-17.4,82.6-33.8c28.1-20.6,39.6-55.5,47.6-95.5c8.3-41.5,5.2-82.8,21.9-118.5c12-25.8,34.3-46.7,59.7-62.2
								c41-25,83.8-20.4,117.4-46.4c31.1-24.1,46.1-53.4,46-80c-0.2-28.1-23.5-63-60.9-74.3c-25.5-7.7-53.5-15-82.4-19
								c-31-4.2-61.3-17.9-77.8-40.6c-15.6-21.4-20.8-49.6-29.4-77.6c-7.6-24.9-16.2-48.5-29-68.4c-15.7-24.4-38.2-44.1-65.4-55.8"
								/>
							<path class="st34" d="M422.4,747.7c-28.2-44-49-100.2-31.9-150.5c12.6-37.1,45.2-66,81.4-79.8c29.7-11.3,60.9-15.2,84.5-30.4
								c29.7-19.1,44.5-53.6,52.7-93.4c8.7-42,3.3-84.4,19.3-121.5c11.6-27,34.3-48.9,60.2-65.1c38.7-24.2,79.6-23,112.2-48.1
								c29.7-22.8,45.8-50.9,46.4-77.7c0.6-27.9-21.6-61.5-55.9-73.9c-25-9.1-52.6-16.9-81.2-21c-29.8-4.3-59-16.1-76.2-37.1
								c-16.7-20.5-23.2-48.2-31.5-75.8c-7.5-25.1-15.2-49.3-27.4-70.2c-15.1-25.7-37.6-46.9-65.1-59.8"/>
							<path class="st35" d="M424.7,747.6c-28.2-45.7-50.1-102.6-33.1-154.1c12.4-37.5,45-67.1,82-80.3
								c29.9-10.7,61.4-13.2,86.4-27.1c31.4-17.6,49.4-51.7,57.8-91.4c9-42.5,1.4-86,16.7-124.5c11.2-28.2,34.4-51.1,60.7-68.1
								c36.5-23.5,75.4-25.7,107.1-49.8c28.2-21.6,45.5-48.3,46.8-75.3c1.3-27.7-19.5-60-51-73.6c-24.4-10.5-51.7-18.8-80-23.1
								S661.3-34,643.6-53.2c-17.9-19.4-25.6-46.7-33.7-74.1c-7.5-25.3-14.2-50.1-25.9-71.9c-14.5-27.1-37.1-49.7-64.8-63.8"/>
							<path class="st16" d="M427,747.5c-28.1-47.3-51.2-104.9-34.2-157.8c12.2-38,44.9-68.2,82.4-80.9c30.1-10.1,62-11,88.3-23.7
								c33.1-16,54.3-49.9,62.9-89.3c9.4-43-0.5-87.6,14.2-127.5c10.8-29.4,34.4-53.3,61.2-71.1c34.3-22.8,71.2-28.3,102-51.4
								c26.8-20.3,45.2-45.8,47.2-73c2-27.6-17.4-58.6-46-73.2C781-12.5,754-21.1,726.1-25.5c-27.1-4.3-54.6-12.5-72.8-30
								c-19.1-18.4-28-45.3-35.9-72.4c-7.4-25.5-13.2-51-24.3-73.6c-13.9-28.4-36.5-52.5-64.6-67.8"/>
							<path class="st36" d="M429.3,747.3c-28.1-48.9-52.3-107.3-35.4-161.5c12-38.4,44.7-69.3,83-81.4c30.2-9.5,62.5-8.9,90.2-20.4
								c34.7-14.5,59.2-48,67.9-87.2c9.8-43.5-2.4-89.2,11.6-130.4c10.4-30.7,34.5-55.4,61.6-74c32.1-22,67.1-30.9,96.8-53.1
								c25.4-19.1,44.9-43.3,47.6-70.6s-15.1-57.3-41.1-72.9C788.5-18,761.7-26.7,734-31.4c-25.8-4.3-52.3-10.5-71.1-26.4
								c-20.3-17.2-30.4-43.9-38.1-70.7c-7.3-25.7-12.2-51.8-22.7-75.4c-13.3-29.8-35.9-55.2-64.3-71.8"/>
							<path class="st37" d="M431.5,747.2c-28-50.6-53.2-109.6-36.5-165.1c11.8-38.9,44.6-70.5,83.5-81.9c30.4-9,63.1-6.7,92.1-17
								c36.4-13,64.1-46.1,73-85.1c10.2-44-4.3-90.9,9-133.4c10-31.9,34.6-57.5,62.1-77c29.9-21.2,62.9-33.5,91.7-54.8
								c24-17.8,44.5-40.8,48-68.2S841.7,8.6,818.3-8c-22.2-15.6-49-24.4-76.3-29.3c-24.5-4.3-50.1-8.6-69.4-22.9
								c-21.5-16-32.8-42.5-40.3-69c-7.2-25.9-11.2-52.6-21.2-77.1c-12.7-31.1-35.3-58-64-75.8"/>
							<path class="st38" d="M433.8,747.1c-28-52.2-54.4-112-37.7-168.8c11.5-39.3,44.5-71.6,84-82.5c30.6-8.4,63.6-4.5,94-13.7
								c38.1-11.4,69-44.3,78.1-83c10.5-44.5-6.2-92.5,6.4-136.4c9.6-33.1,34.8-59.6,62.6-80s58.8-36.1,86.6-56.5
								c22.6-16.5,44.2-38.2,48.4-65.9c4.1-27.1-10.1-54.7-31.2-72.2C804-29.3,777-38.1,750-43.1c-23.2-4.3-47.8-6.5-67.7-19.3
								c-22.8-14.7-35.3-41.1-42.4-67.2c-7.2-26.1-10.1-53.5-19.6-78.9c-12.1-32.4-34.8-60.8-63.8-79.8"/>
						</g>
					</g>
				</g>
			</g>
		</g>
	</g>
</g>
</svg>
