<?xml version="1.0" encoding="UTF-8"?><svg id="Capa_2" xmlns="http://www.w3.org/2000/svg" viewBox="0 0 235.48 33.14"><defs><style>.cls-1{fill:#60bdd9;}.cls-2{fill:#0c2955;}.cls-3{fill:#393839;}</style></defs><g id="Capa_1-2"><g><polygon class="cls-3" points="54.95 17.37 61.91 17.37 61.91 14.16 54.95 14.16 54.95 8.62 63.11 8.62 63.11 5.31 54.95 5.31 53.8 5.31 50.99 5.31 50.99 26.86 53.8 26.86 54.95 26.86 63.17 26.86 63.17 23.56 54.95 23.56 54.95 17.37"/><path class="cls-3" d="M83.74,11.92c-.38-.48-.85-.83-1.38-1.04-.54-.22-1.14-.33-1.8-.33-.89,0-1.66,.19-2.32,.58-.66,.38-1.2,.91-1.64,1.58-.01,.02-.02,.04-.03,.06-.15-.34-.33-.65-.54-.91-.37-.45-.81-.78-1.32-.99-.51-.21-1.05-.32-1.64-.32-.9,0-1.69,.19-2.36,.58-.53,.3-.97,.74-1.36,1.24l-.11-1.52h-3.57V26.86h3.8V15.08c.2-.41,.46-.74,.78-.98s.72-.36,1.17-.36c.42,0,.78,.08,1.07,.25,.29,.17,.51,.46,.67,.87,.15,.41,.23,.99,.23,1.73v10.26h3.77v-10.69c0-.18-.02-.32-.03-.49,.09-.29,.18-.57,.31-.81,.19-.36,.43-.63,.7-.83,.28-.2,.61-.3,1.01-.3s.74,.08,1.03,.24c.29,.16,.51,.44,.67,.84,.15,.4,.23,.99,.23,1.76v10.27h3.82v-10.27c0-1.1-.1-2.04-.3-2.8-.2-.76-.5-1.39-.88-1.87Z"/><path class="cls-3" d="M99.18,12.43c-.43-.64-.98-1.11-1.63-1.42s-1.41-.47-2.28-.47c-.8,0-1.49,.18-2.08,.54-.51,.32-.95,.78-1.32,1.33l-.15-1.58h-3.49v22.17h3.79v-7.58c.35,.47,.74,.88,1.2,1.17,.58,.36,1.28,.55,2.09,.55,.86,0,1.61-.17,2.26-.5,.65-.34,1.18-.83,1.61-1.49s.75-1.46,.98-2.42,.33-2.06,.33-3.32v-1.17c0-1.32-.11-2.46-.33-3.43-.22-.96-.54-1.76-.98-2.4Zm-2.5,6.99c0,.77-.04,1.44-.13,2.01-.08,.57-.23,1.05-.43,1.42-.2,.38-.46,.66-.78,.84-.32,.19-.71,.28-1.18,.28-.62,0-1.12-.15-1.49-.46-.28-.23-.49-.53-.66-.88v-7.56c.06-.12,.12-.25,.19-.36,.21-.32,.47-.56,.8-.73s.7-.26,1.12-.26c.46,0,.86,.09,1.18,.26,.32,.17,.58,.44,.78,.81,.2,.36,.35,.83,.44,1.4,.09,.57,.14,1.25,.14,2.05v1.17Z"/><rect class="cls-3" x="103.43" y="4.12" width="3.8" height="22.74"/><path class="cls-3" d="M121.12,12.52c-.49-.65-1.12-1.14-1.87-1.47s-1.64-.5-2.64-.5c-.94,0-1.79,.16-2.57,.48-.77,.32-1.44,.81-1.98,1.46s-.97,1.47-1.28,2.45c-.31,.98-.46,2.13-.46,3.46v1.44c0,1.17,.15,2.21,.45,3.12,.3,.91,.74,1.67,1.31,2.29,.57,.62,1.27,1.1,2.09,1.42,.82,.33,1.77,.49,2.83,.49,.93,0,1.74-.12,2.43-.36,.69-.24,1.28-.54,1.78-.91,.49-.37,.88-.75,1.17-1.13l-1.58-2.32c-.42,.48-.93,.86-1.51,1.14-.58,.28-1.26,.41-2.03,.41-.51,0-.96-.07-1.35-.22s-.71-.39-.98-.72-.47-.76-.6-1.29c-.12-.46-.17-1.03-.19-1.67h8.44v-1.82c0-1.26-.12-2.38-.36-3.34-.24-.96-.61-1.77-1.1-2.42Zm-2.26,4.81h-4.69c.02-.41,.06-.78,.11-1.11,.09-.59,.24-1.07,.44-1.44,.2-.36,.45-.63,.76-.81s.68-.26,1.12-.26c.55,0,.99,.13,1.32,.38s.56,.62,.7,1.1c.14,.48,.22,1.07,.24,1.76v.37Z"/><path class="cls-3" d="M136.23,23.06v-7.3c0-1.24-.23-2.25-.7-3.01-.47-.76-1.11-1.32-1.93-1.67-.82-.35-1.75-.53-2.78-.53-.89,0-1.69,.13-2.4,.4s-1.32,.63-1.82,1.1-.89,1-1.15,1.61-.4,1.24-.4,1.91h3.8c0-.4,.07-.76,.2-1.06s.34-.53,.62-.7,.62-.24,1.01-.24,.69,.07,.95,.21c.26,.14,.45,.37,.58,.68s.2,.72,.2,1.24v1.38h-1.29c-1.07,0-2,.13-2.8,.38-.8,.26-1.47,.62-1.99,1.08-.52,.46-.92,1.02-1.18,1.67-.26,.65-.39,1.38-.39,2.19,0,.98,.2,1.82,.61,2.53,.41,.71,.96,1.26,1.67,1.64,.7,.38,1.49,.58,2.37,.58,.62,0,1.16-.11,1.62-.34s.85-.52,1.17-.87c.14-.15,.26-.31,.38-.48,.09,.54,.2,1.02,.35,1.39h3.85v-.25c-.19-.4-.33-.89-.41-1.47s-.13-1.27-.13-2.09Zm-3.82-.15s-.02,.04-.03,.07c-.19,.3-.47,.56-.84,.78-.38,.22-.82,.33-1.33,.33-.35,0-.64-.07-.89-.22-.25-.15-.43-.36-.56-.65-.13-.29-.19-.65-.19-1.1,0-.39,.06-.75,.18-1.07s.29-.6,.53-.84c.23-.24,.52-.42,.87-.55,.35-.13,.74-.19,1.18-.19h1.1v3.45Z"/><polygon class="cls-3" points="151 5.31 145.66 5.31 145.66 8.62 151 8.62 151 26.86 154.94 26.86 154.94 8.62 160.36 8.62 160.36 5.31 154.94 5.31 151 5.31"/><path class="cls-3" d="M173.86,23.06v-7.3c0-1.24-.23-2.25-.7-3.01s-1.11-1.32-1.93-1.67-1.75-.53-2.78-.53c-.89,0-1.69,.13-2.4,.4s-1.32,.63-1.82,1.1-.89,1-1.15,1.61-.4,1.24-.4,1.91h3.8c0-.4,.07-.76,.2-1.06s.34-.53,.62-.7,.62-.24,1.01-.24,.69,.07,.95,.21,.45,.37,.58,.68,.2,.72,.2,1.24v1.38h-1.29c-1.07,0-2,.13-2.8,.38s-1.47,.62-1.99,1.08-.92,1.02-1.18,1.67-.39,1.38-.39,2.19c0,.98,.21,1.82,.61,2.53s.96,1.26,1.67,1.64,1.49,.58,2.37,.58c.62,0,1.16-.11,1.62-.34s.85-.52,1.17-.87c.14-.15,.26-.31,.38-.48,.09,.54,.2,1.02,.35,1.39h3.85v-.25c-.19-.4-.33-.89-.41-1.47s-.13-1.27-.13-2.09Zm-3.82-.15s-.02,.04-.03,.07c-.19,.3-.47,.56-.84,.78s-.82,.33-1.33,.33c-.35,0-.64-.07-.89-.22s-.43-.36-.56-.65-.19-.65-.19-1.1c0-.39,.06-.75,.18-1.07s.29-.6,.53-.84,.52-.42,.87-.55,.74-.19,1.18-.19h1.1v3.45Z"/><rect class="cls-3" x="177.34" y="4.12" width="3.8" height="22.74"/><path class="cls-3" d="M195.02,12.52c-.49-.65-1.12-1.14-1.87-1.47s-1.64-.5-2.64-.5c-.94,0-1.79,.16-2.57,.48s-1.44,.81-1.98,1.46-.97,1.47-1.28,2.45-.46,2.13-.46,3.46v1.44c0,1.17,.15,2.21,.45,3.12s.74,1.67,1.31,2.29,1.27,1.1,2.09,1.42,1.77,.49,2.83,.49c.93,0,1.74-.12,2.43-.36s1.28-.54,1.78-.91,.88-.75,1.17-1.13l-1.58-2.32c-.42,.48-.93,.86-1.51,1.14s-1.26,.41-2.03,.41c-.51,0-.96-.07-1.35-.22s-.71-.39-.98-.72-.47-.76-.6-1.29c-.12-.46-.17-1.03-.19-1.67h8.44v-1.82c0-1.26-.12-2.38-.36-3.34s-.61-1.77-1.1-2.42Zm-2.26,4.81h-4.69c.02-.41,.06-.78,.11-1.11,.09-.59,.24-1.07,.44-1.44s.45-.63,.76-.81,.68-.26,1.12-.26c.55,0,.99,.13,1.32,.38s.56,.62,.7,1.1,.22,1.07,.24,1.76v.37Z"/><path class="cls-3" d="M209.51,11.91c-.38-.47-.82-.82-1.34-1.04s-1.1-.33-1.74-.33c-.82,0-1.56,.18-2.21,.55-.59,.33-1.1,.81-1.54,1.39l-.12-1.65h-3.55V26.86h3.8V15.26c.03-.06,.05-.12,.08-.18,.23-.41,.52-.74,.85-.98s.72-.36,1.14-.36c.45,0,.83,.09,1.12,.26s.51,.46,.67,.87,.23,.97,.23,1.69v10.29h3.8v-10.24c0-1.12-.1-2.07-.31-2.84s-.5-1.39-.87-1.87Z"/><path class="cls-3" d="M219.73,23.9c-.28,0-.51-.04-.7-.13s-.34-.26-.43-.51-.14-.61-.14-1.07V13.73h2.21v-2.89h-2.21v-3.94h-3.79v3.94h-2.03v2.89h2.03v8.79c0,1.12,.16,2.02,.49,2.7s.77,1.18,1.35,1.48,1.24,.45,2.01,.45c.49,0,.91-.03,1.26-.1s.66-.16,.95-.28v-3c-.09,.03-.22,.06-.41,.09s-.38,.04-.58,.04Z"/><path class="cls-3" d="M235.02,14.94c-.31-.96-.74-1.76-1.3-2.41s-1.24-1.15-2.02-1.48-1.67-.5-2.64-.5-1.83,.17-2.61,.5-1.45,.83-2.02,1.48-1,1.46-1.3,2.41-.45,2.07-.45,3.33v1.17c0,1.25,.15,2.36,.45,3.32s.73,1.77,1.3,2.42,1.25,1.14,2.04,1.47,1.66,.5,2.62,.5,1.83-.16,2.61-.5,1.46-.82,2.02-1.47,1-1.46,1.3-2.42,.46-2.07,.46-3.32v-1.17c0-1.26-.15-2.37-.46-3.33Zm-3.33,4.5c0,.78-.05,1.45-.16,2.02s-.27,1.04-.49,1.42-.49,.66-.82,.84-.71,.27-1.13,.27-.77-.09-1.09-.27-.59-.46-.82-.84-.4-.85-.53-1.42-.19-1.24-.19-2.02v-1.17c0-.77,.06-1.44,.19-2.01s.3-1.04,.53-1.41,.5-.66,.81-.85,.67-.29,1.07-.29,.77,.1,1.1,.29,.6,.48,.83,.85,.4,.85,.53,1.41,.19,1.24,.19,2.01v1.17Z"/></g><g><path class="cls-1" d="M29.01,12.35c1.82-1.07,3.41-2.42,4.58-4.22,.88-1.36,1.78-2.8,1.71-4.48-.02-.6-.13-1.17-.44-1.74-.45-.82-1.15-1.27-2.02-1.55-1.72-.54-3.44-.49-5.08,.22-1.31,.56-2.49,1.38-3.63,2.24-1.68,1.28-3.3,2.64-4.9,4.03-2.93,2.53-5.72,5.21-8.45,7.95-.77,.77-.79,1.81-.11,2.65,.54,.67,1.98,.77,2.59,.31,.59-.45,1.13-.93,1.66-1.45,1.54-1.52,3.15-2.97,4.72-4.46,.36-.34,.68-.39,1.07-.02,.69,.67,1.51,1.2,2.43,1.39,2.04,.43,4.05,.19,5.87-.87Z"/><path class="cls-1" d="M12.94,27.85c-.41-.46-.81-.94-1.24-1.38-.27-.29-.62-.34-.92-.05-.67,.64-1.41,1.21-2.04,1.9-.28,.3-.36,.65-.39,.97-.04,1.05,1.22,2.14,2.31,1.41,.87-.58,1.59-1.31,2.3-2.06,.23-.24,.22-.52-.02-.79Z"/><path class="cls-1" d="M14.38,29.04c-.17-.18-.43-.32-.65-.16-.62,.45-1.12,1.05-1.24,1.82-.12,.79,.67,1.49,1.6,1.5,.78,0,1.31-.43,1.75-1,.14-.18,.14-.38-.03-.56-.48-.53-.95-1.07-1.44-1.6Z"/><path class="cls-1" d="M10.34,25.66c.19-.21,.17-.43-.03-.64-.45-.47-.89-.95-1.33-1.43-.3-.33-.61-.35-.93-.04-.14,.13-.29,.24-.43,.37-.46,.4-.75,.86-.51,1.49,.25,.65,.93,1.11,1.69,1.1,.56-.08,1.11-.36,1.55-.85Z"/><path class="cls-1" d="M39.5,8.04c-.67-1.83-1.76-3.37-3.06-4.78-.08-.09-.17-.18-.31-.14-.14,.04-.17,.16-.19,.28-.01,.1,0,.21-.02,.31-.15,1.52-.52,2.98-1.34,4.28-1.03,1.64-2.32,3.06-3.82,4.3-1.21,1.01-2.58,1.69-4.12,1.97-.71,.13-1.44,.11-2.16,.16-.13,0-.26,0-.35,.1l7.36,7.63c.05-.03,.11-.07,.17-.13,.52-.5,1.06-.98,1.58-1.48,1.9-1.85,3.71-3.77,5.17-6,.84-1.28,1.52-2.62,1.54-4.37-.1-.61-.18-1.38-.46-2.14Z"/><path class="cls-2" d="M31.64,23.64c-1.63-1.63-9.64-9.95-9.64-9.95-.33-.25-.67-.47-1.05-.66-.35-.17-.64-.22-.94,.04-1.83,1.59-3.66,3.17-5.5,4.75-2.76,2.76-5.89,.16-5.2-2.13,.26-.88,.71-1.4,1.37-2.01,1.97-1.82,3.94-3.63,5.91-5.45,.8-.73,1.6-1.46,2.38-2.21,.24-.22,.5-.52,.18-.84-.99-1-2.06-1.92-3.24-2.69-.89-.57-1.82-1.07-2.81-1.46-.67-.27-1.37-.55-2.05-.61-1.38-.13-2.78-.29-4.16,.28-.84,.35-1.67,.7-2.42,1.22-1,.7-1.79,1.61-2.52,2.56-.81,1.06-1.47,2.23-1.71,3.54-.31,1.62-.36,3.25,.31,4.85,.33,.77,.66,1.52,1.22,2.12,2.01,2.72,14.43,15.4,16.5,17.44,1.12,1.1,2.21,.69,2.75,.3s1.03-1.33-.23-2.61c-.64-.65-4.8-4.96-4.8-4.96-.14-.15-.14-.38,0-.53s.38-.14,.53,0c0,0,7.02,7.26,7.49,7.73s1.66,.95,2.42,.2,.55-1.85-.07-2.47-7.53-7.78-7.53-7.78c-.13-.13-.13-.34-.03-.48,0-.04,.01-.08,.06-.11,.06-.04,.11-.04,.16-.03,.12-.02,.25,0,.34,.1,0,0,7.9,8.18,8.7,8.98s2.23,1.46,2.93,.7,.59-1.88-.48-2.94-8.81-9.09-8.81-9.09c-.14-.15-.14-.38,0-.53s.38-.14,.53,0c0,0,5.28,5.49,6.55,6.76,2.12,2.12,3.29,1.39,3.59,1.09s.85-1.56-.72-3.14Z"/></g></g></svg>